<svg width="6858" height="2001" viewBox="0 0 6858 2001" fill="none" xmlns="http://www.w3.org/2000/svg">
<path fill-rule="evenodd" clip-rule="evenodd" d="M823.521 963.487V1077.6C823.521 1153.99 886.081 1216.59 962.593 1216.59H1076.66C1153.12 1216.59 1215.68 1153.99 1215.68 1077.6V963.487C1215.68 887.044 1153.12 824.436 1076.66 824.436H962.593C886.081 824.436 823.521 887.044 823.521 963.487Z" fill="#B5A9F2"/>
<path fill-rule="evenodd" clip-rule="evenodd" d="M823.516 608.752C823.516 720.41 735.717 811.166 627.568 811.166C519.477 811.166 431.679 901.862 431.679 1014.18C431.679 1125.84 343.822 1216.59 235.092 1216.59C127.001 1216.59 39.2021 1125.84 39.2021 1014.18C39.2021 901.862 127.001 811.166 235.092 811.166C343.822 811.166 431.679 720.41 431.679 608.752C431.679 497.033 343.822 406.337 235.092 406.337H178.11C101.94 406.337 39.2021 341.469 39.2021 262.786V144.46C39.2021 65.7771 101.94 0.908447 178.11 0.908447H292.655C368.883 0.908447 431.679 65.7771 431.679 144.46V203.923C431.679 315.641 519.477 406.337 627.568 406.337C735.717 406.337 823.516 497.033 823.516 608.752Z" fill="#DD4800"/>
<path fill-rule="evenodd" clip-rule="evenodd" d="M1215.69 1747.45V1862C1215.69 1938.17 1150.81 2000.91 1072.13 2000.91H953.856C875.109 2000.91 810.237 1938.17 810.237 1862V1805.02C810.237 1696.29 719.537 1608.43 607.813 1608.43C496.15 1608.43 405.449 1696.29 405.449 1805.02C405.449 1913.17 314.689 2000.91 202.364 2000.91C90.7004 2000.91 0 1913.17 0 1805.02C0 1696.29 90.7004 1608.43 202.364 1608.43C314.689 1608.43 405.449 1520.69 405.449 1412.54V1355.56C405.449 1278.75 469.66 1216.59 548.948 1216.59H666.678C746.026 1216.59 810.237 1278.75 810.237 1355.56V1412.54C810.237 1520.69 900.998 1608.43 1012.66 1608.43H1072.13C1150.81 1608.43 1215.69 1671.23 1215.69 1747.45Z" fill="#007D0D"/>
<mask id="mask0_4930_141005" style="mask-type:alpha" maskUnits="userSpaceOnUse" x="1215" y="785" width="785" height="1216">
<path d="M1215.68 785.221H1999.99V2000.91H1215.68V785.221Z" fill="white"/>
</mask>
<g mask="url(#mask0_4930_141005)">
<path fill-rule="evenodd" clip-rule="evenodd" d="M2000.01 1798.54C2000.01 1910.21 1912.22 2000.91 1803.49 2000.91C1695.35 2000.91 1607.56 1910.21 1607.56 1798.54C1607.56 1686.22 1519.76 1595.46 1411.62 1595.46H1354.58C1277.89 1595.46 1215.68 1531.25 1215.68 1451.9V1334.23C1215.68 1254.88 1277.89 1190.67 1354.58 1190.67H1411.62C1519.76 1190.67 1607.56 1099.91 1607.56 988.246C1607.56 875.922 1695.35 785.221 1803.49 785.221C1912.22 785.221 2000.01 875.922 2000.01 988.246C2000.01 1099.91 1912.22 1190.67 1803.49 1190.67C1695.35 1190.67 1607.56 1281.37 1607.56 1393.09C1607.56 1504.76 1695.35 1595.46 1803.49 1595.46C1912.22 1595.46 2000.01 1686.22 2000.01 1798.54Z" fill="#67A0EE"/>
</g>
<mask id="mask1_4930_141005" style="mask-type:alpha" maskUnits="userSpaceOnUse" x="784" y="0" width="1217" height="786">
<path d="M784.319 0.908447H2000.01V785.222H784.319V0.908447Z" fill="white"/>
</mask>
<g mask="url(#mask1_4930_141005)">
<path fill-rule="evenodd" clip-rule="evenodd" d="M2000.02 139.855V254.443C2000.02 330.545 1935.15 393.333 1856.41 393.333H1797.01C1685.29 393.333 1594.59 481.121 1594.59 589.256C1594.59 697.392 1503.89 785.237 1392.17 785.237C1280.45 785.237 1189.75 697.392 1189.75 589.256C1189.75 481.121 1099.06 393.333 986.736 393.333H927.813C849.189 393.333 784.319 330.545 784.319 254.443V139.855C784.319 63.6946 849.189 0.906281 927.813 0.906281H1046.2C1124.88 0.906281 1189.75 63.6946 1189.75 139.855V197.411C1189.75 305.604 1280.45 393.333 1392.17 393.333C1503.89 393.333 1594.59 305.604 1594.59 197.411V139.855C1594.59 63.6946 1659.46 0.906281 1738.14 0.906281H1856.41C1935.15 0.906281 2000.02 63.6946 2000.02 139.855Z" fill="#F4C328"/>
</g>
<path fill-rule="evenodd" clip-rule="evenodd" d="M3562.52 1376.74V1380.69C3562.52 1381.22 3560.91 1381.52 3557.68 1381.52C3555.53 1381.52 3554.45 1381.22 3554.45 1380.69C3554.45 1380.22 3553.92 1379.4 3552.84 1378.27L3435.41 919.052C3421.48 863.98 3398.66 822.662 3367.04 795.097C3335.37 767.591 3294.37 753.779 3243.93 753.779C3194.63 753.779 3153.87 767.886 3121.66 795.923C3089.51 824.02 3065.36 866.105 3049.29 922.239L2931.79 1378.27C2932.87 1378.27 2933.17 1378.57 2932.63 1379.1C2932.09 1379.69 2930.72 1379.93 2928.63 1379.93C2926.42 1379.93 2925.1 1379.69 2924.56 1379.1C2924.02 1378.57 2923.79 1377.8 2923.79 1376.74L2785.44 777.625H2571.43L2724.24 1419.65C2733.92 1456.72 2749.22 1487.71 2770.14 1512.62C2791.05 1537.53 2815.68 1556.06 2844.12 1568.22C2872.57 1580.38 2901.26 1586.52 2930.18 1586.52C2976.32 1586.52 3016.3 1572.71 3050.06 1545.2C3083.89 1517.63 3107.73 1475.84 3121.66 1419.65L3240.76 950.808C3239.63 949.804 3240.17 949.273 3242.38 949.273C3245.54 949.273 3246.62 949.804 3245.54 950.808L3364.59 1419.65C3378.52 1475.84 3402.42 1517.63 3436.25 1545.2C3470.01 1572.71 3509.99 1586.52 3556.07 1586.52C3585.05 1586.52 3613.74 1580.38 3642.19 1568.22C3670.57 1556.06 3695.25 1537.53 3716.17 1512.62C3737.09 1487.71 3751.79 1456.72 3760.45 1419.65L3906.81 777.625H3696.03L3562.52 1376.74Z" fill="#1F1D2B"/>
<path fill-rule="evenodd" clip-rule="evenodd" d="M6579.32 1271.83C6562.17 1302.58 6538.26 1327.19 6507.72 1345.73C6477.19 1364.26 6442.05 1373.59 6402.36 1373.59C6363.76 1373.59 6329.1 1364.26 6298.56 1345.73C6268.02 1327.19 6243.87 1302.58 6226.19 1271.83C6208.44 1241.13 6199.59 1207.78 6199.59 1171.78C6199.59 1134.65 6208.44 1100.53 6226.19 1069.19C6243.87 1037.96 6268.02 1013.35 6298.56 995.289C6329.1 977.345 6363.76 968.314 6402.36 968.314C6442.05 968.314 6477.19 977.345 6507.72 995.289C6538.26 1013.35 6562.17 1037.96 6579.32 1069.19C6596.47 1100.53 6605.08 1134.65 6605.08 1171.78C6605.08 1207.78 6596.47 1241.13 6579.32 1271.83ZM6780.42 954.797C6745.04 891.816 6695.98 842.766 6633.22 807.822C6570.47 772.879 6497.8 755.407 6415.21 755.407C6357.3 755.407 6303.64 768.098 6254.33 793.479C6234.43 803.75 6216.44 815.732 6199.59 828.777V415.3H5971.12V1171.78C5971.12 1251.17 5989.89 1322.23 6027.48 1384.68C6065.01 1447.19 6116.16 1496.48 6181.12 1532.48C6245.97 1568.43 6319.71 1586.49 6402.36 1586.49C6484.9 1586.49 6558.64 1567.66 6623.54 1530.06C6688.45 1492.46 6739.66 1442.17 6777.25 1379.08C6814.72 1316.1 6833.55 1246.98 6833.55 1171.78C6833.55 1090.14 6815.86 1017.84 6780.42 954.797Z" fill="#1F1D2B"/>
<path fill-rule="evenodd" clip-rule="evenodd" d="M4206.09 1089.1C4212.54 1062.66 4223.54 1038.51 4239.08 1016.79C4254.61 995.071 4274.99 977.836 4300.21 965.145C4325.43 952.454 4354.66 946.08 4387.88 946.08C4420.1 946.08 4448.48 952.218 4473.16 964.378C4497.85 976.537 4517.99 993.537 4533.52 1015.2C4549.06 1036.92 4558.45 1061.53 4561.67 1089.1H4206.09ZM4605.12 803.827C4546.13 767.29 4474.24 748.992 4389.5 748.992C4307.98 748.992 4236.09 767.88 4173.94 805.421C4111.66 843.079 4063.14 893.429 4028.3 956.409C3993.45 1019.45 3976 1088.57 3976 1163.83C3976 1247.53 3994.77 1320.89 4032.36 1383.88C4069.89 1446.92 4121.64 1496.14 4187.56 1531.68C4253.54 1567.15 4327.82 1584.86 4410.41 1584.86C4495.16 1584.86 4569.44 1565.56 4633.27 1526.9C4697.09 1488.23 4746.16 1433.4 4780.52 1362.45L4605.12 1274.97C4586.89 1311.1 4560.3 1339.13 4525.46 1359.26C4490.61 1379.39 4451.71 1389.42 4408.86 1389.42C4363.8 1389.42 4324.89 1379.68 4292.15 1360.03C4259.46 1340.49 4234.24 1313.16 4216.55 1278.22C4206.63 1258.56 4200.11 1237.31 4196.47 1214.65H4788.53V1147.89C4788.53 1075.82 4772.69 1009.65 4741.08 949.267C4709.4 888.825 4664.1 840.364 4605.12 803.827Z" fill="#1F1D2B"/>
<path fill-rule="evenodd" clip-rule="evenodd" d="M5564.04 1271.83C5546.89 1302.58 5522.99 1327.19 5492.45 1345.73C5461.91 1364.26 5426.77 1373.59 5387.09 1373.59C5348.48 1373.59 5313.82 1364.26 5283.28 1345.73C5252.74 1327.19 5228.6 1302.58 5210.91 1271.83C5193.16 1241.13 5184.32 1207.78 5184.32 1171.78C5184.32 1134.65 5193.16 1100.53 5210.91 1069.19C5228.6 1037.96 5252.74 1013.35 5283.28 995.289C5313.82 977.345 5348.48 968.314 5387.09 968.314C5426.77 968.314 5461.91 977.345 5492.45 995.289C5522.99 1013.35 5546.89 1037.96 5564.04 1069.19C5581.2 1100.53 5589.8 1134.65 5589.8 1171.78C5589.8 1207.78 5581.2 1241.13 5564.04 1271.83ZM5617.95 807.822C5555.2 772.879 5482.53 755.407 5399.94 755.407C5342.03 755.407 5288.36 768.098 5239.06 793.479C5219.16 803.75 5201.17 815.732 5184.32 828.777V415.3H4955.85V1171.78C4955.85 1251.17 4974.61 1322.23 5012.2 1384.68C5049.73 1447.19 5100.89 1496.48 5165.85 1532.48C5230.69 1568.43 5304.44 1586.49 5387.09 1586.49C5469.62 1586.49 5543.37 1567.66 5608.27 1530.06C5673.17 1492.46 5724.39 1442.17 5761.98 1379.08C5799.45 1316.1 5818.27 1246.98 5818.27 1171.78C5818.27 1090.14 5800.58 1017.84 5765.14 954.797C5729.76 891.816 5680.7 842.766 5617.95 807.822Z" fill="#1F1D2B"/>
</svg>
