<svg width="288" height="314" viewBox="0 0 288 314" fill="none" xmlns="http://www.w3.org/2000/svg">
<path d="M190.728 0.622055C158.125 3.32307 125.844 13.0986 98.4376 30.9663C111.067 26.983 124.144 24.4211 137.338 23.338C102.71 28.7237 70.8025 49.6471 52.059 79.2602C46.8698 87.4588 42.529 97.0516 44.2642 106.601C46.4632 118.714 57.7503 127.079 69.1355 131.767C92.82 141.518 120.733 140.413 143.575 128.82C128.119 129.472 112.524 126.545 98.3585 120.33C93.1938 118.065 87.7508 114.813 86.2066 109.392C85.3799 106.511 85.8165 103.419 86.4876 100.497C90.3291 83.8056 102.276 69.1818 117.869 62.0855C97.5155 67.9868 83.0227 85.4862 69.8449 102.08C89.0413 65.1303 130.872 41.1948 172.454 43.3665C182.653 43.8986 192.982 45.9502 201.786 51.1258C210.585 56.3042 217.709 64.9448 219.348 75.0231C221.796 68.8026 221.899 61.6954 219.643 55.4011C231.618 76.7611 222.587 107.195 200.897 118.559C214.105 111.637 227.82 109.823 240.269 100.145C252.143 90.9183 261.509 79.2493 268.507 65.9869C273.655 56.2305 277.513 47.9283 272.867 37.2988C266.638 23.0488 252.126 11.1943 237.961 5.58485C227.432 1.41327 216.091 0 204.708 0C200.037 0 195.361 0.240082 190.728 0.622055Z" fill="url(#paint0_linear_50_4088)"/>
<path d="M248.208 40.8046C246.683 54.6917 239.759 67.4111 231.765 78.8618C193.697 133.39 126.82 166.495 60.3801 163.701C72.5702 168.833 92.8416 178.726 118.954 177.597C138.467 176.756 157.164 174.132 175.957 169.281C214.148 159.432 249.196 136.506 272.051 104.175C280.072 92.8253 286.814 80.0105 287.864 66.1506C290.151 35.9673 263.179 9.07147 233.374 3.7758C244.893 11.677 249.731 26.9229 248.208 40.8046Z" fill="url(#paint1_linear_50_4088)"/>
<path d="M195.432 173.482C158.174 188.791 116.455 191.612 76.6685 183.168C104.443 205.753 134.481 207.9 164.968 209.357C195.454 210.817 233.896 196.286 247.172 176.797C226.019 188.21 201.874 193.47 177.894 191.89C202.567 186.747 254.915 168.509 276.921 114.693C249.289 147.484 212.948 166.285 195.432 173.482Z" fill="url(#paint2_linear_50_4088)"/>
<path d="M36.9577 138.486C39.8143 143.294 44.657 146.609 49.7208 148.982C60.6886 154.12 73.5963 155.402 85.1016 151.61C77.6806 150.693 70.1422 149.746 63.2778 146.778C55.4284 143.381 48.875 137.499 43.4047 130.921C41.2985 128.386 40.1908 125.849 40.0053 122.567C39.9262 121.148 39.4323 115.738 40.2727 114.946C34.033 120.81 32.5815 131.128 36.9577 138.486Z" fill="url(#paint3_linear_50_4088)"/>
<path d="M109.108 237.055C124.558 248.386 143.804 255.507 162.837 253.332C149.299 260.126 133.215 261.681 118.624 257.61C132.17 262.245 146.59 264.313 160.889 263.672C186.385 262.535 213.141 251.032 224.87 228.363C213.597 234.668 200.359 237.404 187.512 236.086C203.238 228.791 220.213 220.268 227.285 204.438C211.346 216.298 191.208 221.596 171.352 222.12C151.495 222.647 131.778 218.669 112.611 213.441C100.969 210.266 75.7516 198.698 70.7097 194.665C81.5711 210.446 93.6603 225.727 109.108 237.055Z" fill="url(#paint4_linear_50_4088)"/>
<path d="M100.939 246.942C110.046 252.803 121.061 255.214 131.892 255.334C127.805 255.291 121.816 251.414 118.229 249.597C113.642 247.278 109.228 244.615 105.032 241.644C96.915 235.898 89.3603 228.804 83.5217 220.739C84.8231 231.494 91.8267 241.079 100.939 246.942Z" fill="url(#paint5_linear_50_4088)"/>
<path d="M127.458 275.21C120.223 271.816 113.165 268.059 106.314 263.953C115.871 278.184 132.468 287.433 149.599 288.082C143.946 295.231 135.422 300.038 126.383 301.178C132.773 304.57 140.284 305.811 147.427 304.646C144.939 307.688 142.448 310.727 139.96 313.761C146.158 312.111 151.525 307.574 154.177 301.732C152.433 301.795 150.679 301.006 149.56 299.661C159.358 296.663 168.091 290.309 173.963 281.914C169.534 282.792 164.913 282.669 160.539 281.562C166.198 279.232 171.455 275.941 176.02 271.865C164.329 275.044 152.073 273.404 140.516 270.482C130.481 267.945 120.886 265.844 111.421 261.681C116.038 266.971 121.464 271.549 127.458 275.21Z" fill="url(#paint6_linear_50_4088)"/>
<path d="M34.6961 180.985C59.1446 211.78 98.5114 225.82 135.761 238.411C120.136 236.345 104.77 232.348 90.1246 226.537C130.804 243.098 173.442 257.261 217.294 256.442C226.227 256.27 235.448 255.395 243.298 251.133C251.152 246.869 257.343 238.482 256.601 229.579C255.924 221.451 249.966 214.925 244.19 209.114C250.258 215.583 246.94 227.334 239.533 232.477C231.942 237.753 222.006 237.922 212.773 237.412C200.591 236.738 188.456 235.219 176.481 232.87C195.388 239.458 215.744 246.118 235.044 240.793C222.988 245.567 209.483 244.506 196.641 242.711C156.624 237.12 117.514 225.086 81.2794 207.204C69.3212 201.303 57.2156 194.34 48.5751 183.951C43.2221 177.515 30.0826 164.904 35.913 155.26C32.2407 161.341 32.3416 169.502 36.1721 175.488C29.2177 169.764 24.8824 160.976 24.5741 151.975C22.6397 162.367 28.1236 172.707 34.6961 180.985ZM244.19 209.114C244.034 208.948 243.873 208.787 243.707 208.628C243.868 208.789 244.029 208.95 244.19 209.114ZM90.1246 226.537C88.8204 226.008 87.5218 225.473 86.2231 224.941C87.5163 225.487 88.8177 226.019 90.1246 226.537Z" fill="url(#paint7_linear_50_4088)"/>
<path d="M236.386 191.983C235.374 195.252 243.297 199.83 245.248 201.178C253.034 206.566 259.143 214.342 262.529 223.181C260.125 212.83 254.213 202.55 245.859 195.846C244.448 194.714 240.037 191.012 237.718 191.012C237.082 191.012 236.602 191.293 236.386 191.983Z" fill="url(#paint8_linear_50_4088)"/>
<path d="M7.26824 131.791C2.95477 137.709 2.74741 145.569 4.85912 152.717C6.97357 159.865 11.1834 166.49 15.3468 173.013C8.53963 166.064 3.27943 157.967 0 149.386C3.07208 162.85 9.95835 175.821 19.6684 186.917C24.4211 192.343 29.8696 197.437 35.9237 201.761C39.1131 204.037 42.4553 206.263 45.8984 208.208C49.4971 210.238 54.3289 211.382 57.6739 213.559C42.6026 203.742 29.1957 191.855 18.1488 178.513C21.8293 181.943 26.0336 184.936 30.5899 187.375C23.0815 179.812 17.052 171.136 12.8831 161.903C9.48635 154.384 7.31734 146.112 9.55183 138.604C11.789 131.093 19.4692 124.752 28.4427 125.399C26.5028 124.697 24.4866 124.373 22.4868 124.373C16.4326 124.373 10.5122 127.341 7.26824 131.791Z" fill="url(#paint9_linear_50_4088)"/>
<path d="M263.132 243.472C262.701 246.77 260.388 249.892 257.94 252.009C254.986 254.565 251.343 256.191 247.655 257.476C244.547 258.554 241.366 259.419 238.138 260.06C247.117 261.683 256.819 258.565 263.17 252.012C264.758 250.375 266.174 248.476 266.78 246.274C267.896 242.179 265.937 237.737 262.914 234.755C263.558 235.393 263.315 242.08 263.132 243.472Z" fill="url(#paint10_linear_50_4088)"/>
<defs>
<linearGradient id="paint0_linear_50_4088" x1="53.7546" y1="97.69" x2="260.604" y2="39.1045" gradientUnits="userSpaceOnUse">
<stop stop-color="white"/>
<stop offset="1" stop-color="#6BD2E9"/>
</linearGradient>
<linearGradient id="paint1_linear_50_4088" x1="70.1113" y1="126.558" x2="279.876" y2="79.9953" gradientUnits="userSpaceOnUse">
<stop stop-color="white"/>
<stop offset="1" stop-color="#6BD2E9"/>
</linearGradient>
<linearGradient id="paint2_linear_50_4088" x1="79.0449" y1="194.234" x2="284.526" y2="150.099" gradientUnits="userSpaceOnUse">
<stop stop-color="#6BDAE9"/>
<stop offset="1" stop-color="#0072A3"/>
</linearGradient>
<linearGradient id="paint3_linear_50_4088" x1="34.4361" y1="134.374" x2="85.1012" y2="134.374" gradientUnits="userSpaceOnUse">
<stop stop-color="white"/>
<stop offset="0.408439" stop-color="white"/>
<stop offset="1" stop-color="#4DDFF3"/>
</linearGradient>
<linearGradient id="paint4_linear_50_4088" x1="77.4036" y1="243.465" x2="209.335" y2="192.781" gradientUnits="userSpaceOnUse">
<stop stop-color="white"/>
<stop offset="1" stop-color="#6BD2E9"/>
</linearGradient>
<linearGradient id="paint5_linear_50_4088" x1="83.5219" y1="238.036" x2="131.892" y2="238.036" gradientUnits="userSpaceOnUse">
<stop stop-color="white"/>
<stop offset="0.462745" stop-color="#52D5DD"/>
<stop offset="1" stop-color="#333D98"/>
</linearGradient>
<linearGradient id="paint6_linear_50_4088" x1="109.294" y1="298.45" x2="173.394" y2="283.9" gradientUnits="userSpaceOnUse">
<stop stop-color="white"/>
<stop offset="1" stop-color="#6BD2E9"/>
</linearGradient>
<linearGradient id="paint7_linear_50_4088" x1="239.364" y1="240.988" x2="-28.7665" y2="159.602" gradientUnits="userSpaceOnUse">
<stop stop-color="#8FFFFF"/>
<stop offset="1" stop-color="#2792B4"/>
</linearGradient>
<linearGradient id="paint8_linear_50_4088" x1="237.419" y1="213.724" x2="262.308" y2="210.282" gradientUnits="userSpaceOnUse">
<stop stop-color="white"/>
<stop offset="1" stop-color="#6BD2E9"/>
</linearGradient>
<linearGradient id="paint9_linear_50_4088" x1="2.46566" y1="187.339" x2="57.5715" y2="181.295" gradientUnits="userSpaceOnUse">
<stop stop-color="white"/>
<stop offset="1" stop-color="#6BD2E9"/>
</linearGradient>
<linearGradient id="paint10_linear_50_4088" x1="239.376" y1="252.92" x2="266.394" y2="247.762" gradientUnits="userSpaceOnUse">
<stop stop-color="white"/>
<stop offset="1" stop-color="#6BD2E9"/>
</linearGradient>
</defs>
</svg>
