<svg width="251" height="55" viewBox="0 0 251 55" fill="none" xmlns="http://www.w3.org/2000/svg">
<path d="M27.0991 0C12.1331 0 0 12.1331 0 27.0991C0 42.0652 12.1331 54.1982 27.0991 54.1982C42.0652 54.1982 54.1982 42.0652 54.1982 27.0991C54.1982 12.1331 42.0652 0 27.0991 0ZM27.0991 49.2006C14.9123 49.2006 4.99764 39.2859 4.99764 27.0991C4.99764 14.9123 14.9107 4.99606 27.0991 4.99606C39.2875 4.99606 49.2006 14.9108 49.2006 27.0975C49.2006 39.2843 39.2859 49.199 27.0991 49.199V49.2006Z" fill="#0A0A0A"/>
<path d="M29.6431 24.5547H24.5554V29.6424H29.6431V24.5547Z" fill="#0A0A0A"/>
<path d="M29.6431 16.5234H24.5554V21.6111H29.6431V16.5234Z" fill="#0A0A0A"/>
<path d="M29.6431 8.49219H24.5554V13.5799H29.6431V8.49219Z" fill="#0A0A0A"/>
<path d="M101.185 16.3016C99.7456 15.5479 98.1387 15.1719 96.3643 15.1719C94.59 15.1719 92.9246 15.5574 91.4694 16.3269C90.2701 16.9605 89.2621 17.8137 88.4373 18.8786C87.6757 17.7805 86.704 16.9131 85.519 16.2763C84.146 15.54 82.6228 15.1719 80.9496 15.1719C79.1752 15.1719 77.5936 15.5479 76.2047 16.3016C75.421 16.7266 74.729 17.2496 74.1207 17.8658V15.6727H67.7437V39.8741H74.1207V25.5637C74.1207 24.5936 74.3387 23.7641 74.7732 23.0784C75.2077 22.3926 75.7781 21.8649 76.4812 21.4967C77.1843 21.1286 77.987 20.9453 78.8908 20.9453C80.2291 20.9453 81.3509 21.3466 82.2547 22.1509C83.1584 22.9535 83.6103 24.0927 83.6103 25.5653V39.8757H89.9873V25.5653C89.9873 24.5952 90.2054 23.7657 90.6399 23.0799C91.0744 22.3942 91.6527 21.8665 92.3716 21.4983C93.0905 21.1302 93.8853 20.9469 94.7559 20.9469C96.061 20.9469 97.1654 21.3482 98.0692 22.1525C98.973 22.9551 99.4249 24.0943 99.4249 25.5669V39.8772H105.852V24.513C105.852 22.538 105.434 20.8647 104.598 19.4917C103.76 18.1202 102.623 17.0569 101.183 16.3032L101.185 16.3016Z" fill="#0A0A0A"/>
<path d="M115.217 15.6738H108.84V39.8752H115.217V15.6738Z" fill="#0A0A0A"/>
<path d="M136.235 17.8721C135.589 17.2306 134.844 16.6903 134.001 16.2526C132.612 15.5337 131.03 15.1734 129.256 15.1734C127.012 15.1734 125.004 15.7265 123.231 16.8309C121.457 17.9353 120.058 19.4332 119.039 21.3245C118.017 23.2158 117.508 25.3836 117.508 27.8263C117.508 30.2691 118.019 32.3373 119.039 34.2286C120.06 36.1199 121.457 37.6178 123.231 38.7222C125.006 39.8267 127.014 40.3797 129.256 40.3797C130.995 40.3797 132.577 40.0036 134.001 39.25C134.873 38.7886 135.633 38.2245 136.285 37.5625V39.8772H142.612V3.625H136.235V17.8721ZM133.625 33.5998C132.688 34.1686 131.583 34.453 130.311 34.453C129.106 34.453 128.027 34.1765 127.072 33.625C126.118 33.072 125.374 32.2868 124.838 31.2645C124.302 30.2438 124.035 29.0809 124.035 27.7758C124.035 26.4707 124.302 25.2746 124.838 24.2855C125.374 23.298 126.118 22.5111 127.072 21.9249C128.027 21.3403 129.122 21.0464 130.36 21.0464C131.599 21.0464 132.686 21.3403 133.625 21.9249C134.562 22.5111 135.298 23.298 135.833 24.2855C136.369 25.273 136.636 26.4359 136.636 27.7758C136.636 29.1156 136.368 30.2359 135.833 31.2408C135.298 32.2457 134.562 33.0325 133.625 33.6013V33.5998Z" fill="#0A0A0A"/>
<path d="M163.865 16.5042C162.459 15.6178 160.869 15.1738 159.095 15.1738C157.32 15.1738 155.612 15.5752 154.174 16.3794C153.356 16.836 152.639 17.3969 152.016 18.0526V15.6763H145.639V39.8776H152.016V25.9702C152.016 25 152.234 24.1294 152.669 23.36C153.103 22.5905 153.699 21.9964 154.451 21.5777C155.205 21.159 156.066 20.9504 157.036 20.9504C158.475 20.9504 159.664 21.4197 160.6 22.3566C161.537 23.2936 162.007 24.4992 162.007 25.9718V39.8792H168.384V24.5655C168.384 22.9586 167.982 21.4355 167.178 19.9961C166.375 18.5567 165.269 17.3938 163.865 16.5074V16.5042Z" fill="#0A0A0A"/>
<path d="M177.696 15.6738H171.319V39.8752H177.696V15.6738Z" fill="#0A0A0A"/>
<path d="M198.72 17.8014C198.098 17.1931 197.372 16.6749 196.537 16.253C195.113 15.5341 193.498 15.1738 191.691 15.1738C189.548 15.1738 187.606 15.7016 185.867 16.7554C184.125 17.8093 182.762 19.2408 181.774 21.0484C180.787 22.8559 180.292 24.8973 180.292 27.1742C180.292 29.451 180.785 31.5003 181.774 33.3252C182.762 35.1502 184.125 36.5975 185.867 37.6687C187.606 38.74 189.565 39.2756 191.741 39.2756C193.516 39.2756 195.105 38.9169 196.511 38.1965C197.331 37.7762 198.049 37.2595 198.67 36.6512V38.7732C198.67 40.6139 198.075 42.0612 196.887 43.1167C195.699 44.1706 194.051 44.6983 191.942 44.6983C190.302 44.6983 188.896 44.4044 187.725 43.8198C186.552 43.2336 185.498 42.3709 184.561 41.2333L180.494 45.3003C181.665 46.9735 183.231 48.2707 185.189 49.1919C187.146 50.1115 189.431 50.5728 192.043 50.5728C194.655 50.5728 196.838 50.0783 198.796 49.0923C200.754 48.1048 202.285 46.7239 203.391 44.9495C204.495 43.1751 205.048 41.1006 205.048 38.7242V15.6747H198.722V17.8014H198.72ZM196.184 32.6205C195.263 33.1404 194.184 33.3995 192.945 33.3995C191.706 33.3995 190.678 33.1325 189.757 32.5968C188.835 32.0612 188.117 31.3249 187.598 30.3879C187.078 29.451 186.819 28.3971 186.819 27.2247C186.819 25.986 187.078 24.9068 187.598 23.9857C188.117 23.0661 188.837 22.3377 189.757 21.8021C190.676 21.2664 191.757 20.9994 192.996 20.9994C194.234 20.9994 195.263 21.268 196.184 21.8021C197.104 22.3377 197.816 23.0661 198.319 23.9857C198.821 24.9068 199.072 25.986 199.072 27.2247C199.072 28.4635 198.821 29.5015 198.319 30.4385C197.816 31.3755 197.105 32.1039 196.184 32.6221V32.6205Z" fill="#0A0A0A"/>
<path d="M226.017 16.3521C224.593 15.5653 222.963 15.1719 221.122 15.1719C219.281 15.1719 217.649 15.5732 216.227 16.3774C215.439 16.823 214.747 17.3665 214.143 18.0017V3.625H207.766V39.8756H214.143V25.9682C214.143 24.9981 214.361 24.1275 214.796 23.358C215.23 22.5885 215.826 21.9944 216.578 21.5757C217.332 21.157 218.193 20.9485 219.163 20.9485C220.602 20.9485 221.79 21.4177 222.727 22.3547C223.664 23.2916 224.134 24.4972 224.134 25.9698V39.8772H230.511V24.5636C230.511 22.7228 230.117 21.0907 229.33 19.6686C228.544 18.2466 227.439 17.1422 226.017 16.3553V16.3521Z" fill="#0A0A0A"/>
<path d="M250.193 15.6737H244.519V5.58203H238.144V15.6737H232.419V21.248H238.144V39.875H244.519V21.248H250.193V15.6737Z" fill="#0A0A0A"/>
<path d="M112.004 11.6072C114 11.6072 115.619 9.98863 115.619 7.99206C115.619 5.99549 114 4.37695 112.004 4.37695C110.007 4.37695 108.388 5.99549 108.388 7.99206C108.388 9.98863 110.007 11.6072 112.004 11.6072Z" fill="#0A0A0A"/>
<path d="M174.508 11.6072C176.505 11.6072 178.123 9.98863 178.123 7.99206C178.123 5.99549 176.505 4.37695 174.508 4.37695C172.511 4.37695 170.893 5.99549 170.893 7.99206C170.893 9.98863 172.511 11.6072 174.508 11.6072Z" fill="#0A0A0A"/>
</svg>
