<svg width="148" height="61" viewBox="0 0 148 61" fill="none" xmlns="http://www.w3.org/2000/svg">
<circle cx="29.7591" cy="30.6093" r="29.3907" fill="#2BCE6D"/>
<mask id="mask0_29_1439" style="mask-type:alpha" maskUnits="userSpaceOnUse" x="0" y="1" width="60" height="59">
<path d="M59.1498 30.6093C59.1498 46.8413 45.9911 60 29.7591 60C13.5271 60 0.368408 46.8413 0.368408 30.6093C0.368408 14.3773 13.5271 1.21863 29.7591 1.21863C45.9911 1.21863 59.1498 14.3773 59.1498 30.6093Z" fill="#2BCE6D"/>
</mask>
<g mask="url(#mask0_29_1439)">
<path d="M11.7896 61.7491C11.7896 59.5797 12.6144 57.4751 14.3723 56.2038C17.3289 54.0657 22.6901 51.1144 29.7588 51.1144C36.8274 51.1144 42.1886 54.0657 45.1452 56.2038C46.9031 57.4751 47.728 59.5797 47.728 61.7491V67.0446H11.7896V61.7491Z" fill="#F1D1C4"/>
<path d="M11.7896 61.7491C11.7896 59.5797 12.6144 57.4751 14.3723 56.2038C17.3289 54.0657 22.6901 51.1144 29.7588 51.1144C36.8274 51.1144 42.1886 54.0657 45.1452 56.2038C46.9031 57.4751 47.728 59.5797 47.728 61.7491V67.0446H11.7896V61.7491Z" fill="#F1D1C4"/>
<path d="M40.7452 67.9814C37.2522 66.2359 10.1833 54.7599 15.807 27.5674C16.0446 26.4187 15.1455 25.3464 13.8866 25.5089C-2.8045 27.6642 -3.73924 51.9915 0.84663 59.4465C4.33853 59.8844 7.86272 63.0146 8.72134 70.2885C9.84339 70.2425 10.3972 69.7175 10.6332 69.079C10.6425 69.1146 10.652 69.1506 10.6618 69.1871C12.6891 69.3095 12.349 66.8403 11.4343 64.9331C14.683 65.1646 19.9643 66.7964 24.5032 70.2884C30.7213 69.0683 34.1732 64.7772 40.7452 67.9814Z" fill="black"/>
<path d="M18.7731 67.9814C22.2662 66.2359 49.335 54.7599 43.7113 27.5674C43.4737 26.4187 44.3728 25.3464 45.6317 25.5089C62.3228 27.6642 63.2576 51.9915 58.6717 59.4465C55.1798 59.8844 51.6556 63.0146 50.797 70.2885C49.6749 70.2425 49.1211 69.7175 48.8851 69.079C48.8758 69.1146 48.8663 69.1506 48.8565 69.1871C46.8293 69.3095 47.1693 66.8403 48.084 64.9331C44.8353 65.1646 39.554 66.7964 35.0151 70.2884C28.797 69.0683 25.3451 64.7772 18.7731 67.9814Z" fill="black"/>
<path d="M26.8745 49.8238H32.6425V52.4194H26.8745V49.8238Z" fill="black"/>
<path d="M32.6435 52.3526C32.6435 53.0932 31.3535 53.6935 29.7623 53.6935C28.1711 53.6935 26.8811 53.0932 26.8811 52.3526C26.8811 51.6121 28.1711 51.0118 29.7623 51.0118C31.3535 51.0118 32.6435 51.6121 32.6435 52.3526Z" fill="black"/>
<path d="M11.7896 61.7491C11.7896 59.5797 12.6144 57.4751 14.3723 56.2038C17.3289 54.0657 22.6901 51.1144 29.7588 51.1144C36.8274 51.1144 42.1886 54.0657 45.1452 56.2038C46.9031 57.4751 47.728 59.5797 47.728 61.7491V67.0446H11.7896V61.7491Z" fill="#F1D1C4"/>
<mask id="mask1_29_1439" style="mask-type:alpha" maskUnits="userSpaceOnUse" x="11" y="51" width="37" height="17">
<path d="M11.7898 61.7491C11.7898 59.5797 12.6146 57.4751 14.3726 56.2038C17.3291 54.0657 22.6904 51.1144 29.759 51.1144C36.8276 51.1144 42.1889 54.0657 45.1454 56.2038C46.9034 57.4751 47.7282 59.5797 47.7282 61.7491V67.0446H11.7898V61.7491Z" fill="#F1D1C4"/>
</mask>
<g mask="url(#mask1_29_1439)">
<path d="M38.7659 63.1917C35.4034 61.2063 9.203 47.8662 16.7137 21.1334C17.031 20.0041 16.2091 18.8715 14.9419 18.9457C-1.85902 19.929 -4.49201 44.1314 -0.438482 51.8888C3.01427 52.5696 6.31103 55.9386 6.65909 63.2546C7.7816 63.2872 8.37081 62.8023 8.65079 62.1818C8.65762 62.2179 8.66461 62.2545 8.67176 62.2916C10.6855 62.5554 10.5189 60.0685 9.73978 58.102C12.9643 58.5601 18.1187 60.557 22.4024 64.3578C28.6905 63.5753 32.4339 59.5359 38.7659 63.1917Z" fill="#723CB5"/>
<path d="M21.4727 63.0458C24.8351 61.0604 51.0355 47.7203 43.5248 20.9875C43.2075 19.8582 44.0294 18.7257 45.2966 18.7998C62.0975 19.7831 64.7305 43.9855 60.677 51.7429C57.2243 52.4238 53.9275 55.7927 53.5794 63.1088C52.4569 63.1414 51.8677 62.6564 51.5877 62.0359C51.5809 62.0721 51.5739 62.1086 51.5668 62.1457C49.553 62.4096 49.7196 59.9226 50.4987 57.9561C47.2742 58.4142 42.1198 60.4111 37.8361 64.2119C31.548 63.4294 27.8046 59.3901 21.4727 63.0458Z" fill="#723CB5"/>
</g>
<path d="M26.8755 48.63H32.6435V51.2257H26.8755V48.63Z" fill="black"/>
<path d="M32.6445 51.1589C32.6445 51.8994 31.3545 52.4998 29.7633 52.4998C28.172 52.4998 26.8821 51.8994 26.8821 51.1589C26.8821 50.4183 28.172 49.818 29.7633 49.818C31.3545 49.818 32.6445 50.4183 32.6445 51.1589Z" fill="black"/>
<path d="M16.9259 33.3639C17.5424 35.6647 19.7288 38.9184 20.817 40.131C21.7975 41.2235 22.5536 41.1634 23.4083 41.2619L20.2227 34.688C19.1255 34.2743 18.6106 33.7348 18.1546 33.2059C17.5525 32.5076 16.2322 30.7751 16.9259 33.3639Z" fill="#F1C8B8"/>
<path d="M42.5922 33.3639C41.9757 35.6647 39.7892 38.9184 38.701 40.131C37.7205 41.2235 36.9645 41.1634 36.1098 41.2619L39.2954 34.688C40.3925 34.2743 40.9074 33.7348 41.3634 33.2059C41.9656 32.5076 43.2859 30.7751 42.5922 33.3639Z" fill="#F1C8B8"/>
<path d="M39.5328 31.552C39.5328 37.9313 36.1565 50.1139 29.9897 50.1139C23.8229 50.1139 19.9856 37.9313 19.9856 31.552C19.9856 25.1728 23.6104 20.0013 29.9897 20.0013C36.369 20.0013 39.5328 25.1728 39.5328 31.552Z" fill="#F1D1C4"/>
<path fill-rule="evenodd" clip-rule="evenodd" d="M20.1028 33.663C19.5153 28.7564 17.4378 24.3437 15.5848 21.2451C13.9658 18.5377 14.2501 15.0843 16.9923 13.5249C19.661 12.0073 22.5763 10.5911 23.6915 10.0593C23.8528 9.98238 24.0016 10.1412 23.9078 10.2932C23.1561 11.511 21.3261 13.7855 20.1084 15.2625C19.4104 16.1091 19.291 17.3154 19.9317 18.2062C21.1075 19.8407 22.4111 21.0225 24.1139 21.9014C25.6713 20.7004 27.6444 20.0014 29.9897 20.0014C32.2707 20.0014 34.1406 20.6625 35.6017 21.8037C37.2144 20.9354 38.4658 19.7809 39.5985 18.2062C40.2392 17.3154 40.1198 16.1091 39.4218 15.2625C38.2041 13.7855 36.3741 11.511 35.6224 10.2932C35.5286 10.1412 35.6775 9.98238 35.8387 10.0593C36.9539 10.5911 39.8693 12.0073 42.5379 13.5249C45.2801 15.0843 45.5644 18.5377 43.9454 21.2451C42.0986 24.3335 40.0287 28.7271 39.4333 33.6141C39.2965 35.1272 39.0192 36.8101 38.6066 38.5064C38.3028 36.0251 37.4467 31.4413 35.2685 31.4413C34.3964 31.4413 32.0904 33.2879 30.7454 34.4319C30.1642 34.9263 29.3011 34.924 28.722 34.4273C27.383 33.2786 25.085 31.426 24.193 31.426C22.0679 31.426 21.2717 35.9252 20.9933 38.4274C20.5567 36.7761 20.2559 35.1398 20.1028 33.663Z" fill="black"/>
</g>
<path d="M73.6567 39.4918H77.4412V31.5175H85.2854V28.517H77.4412V23.6783H85.808V20.6237H73.6567V39.4918Z" fill="white"/>
<path d="M100.804 39.4918H104.805L98.0196 20.5967H93.6135L86.8285 39.4918H90.8022L92.0456 35.8966H99.5604L100.804 39.4918ZM98.5332 32.869H93.0728L95.803 24.9758L98.5332 32.869Z" fill="white"/>
<path d="M107.341 39.4918H111.125V20.6237H107.341V39.4918Z" fill="white"/>
<path d="M125.366 26.4896C125.366 28.1926 124.42 29.3009 122.312 29.3009H119.149V23.7594H122.312C124.42 23.7594 125.366 24.8136 125.366 26.4896ZM115.365 20.6237V39.4918H119.149V32.1392H120.933L125.096 39.4918H129.475L124.961 31.8418C127.989 31.0309 129.259 28.7062 129.259 26.4085C129.259 23.2458 126.988 20.6237 122.447 20.6237H115.365Z" fill="white"/>
<path d="M137.521 32.9231V39.4918H141.305V32.9231L147.684 20.6237H143.468L139.44 29.2468L135.385 20.6237H131.114L137.521 32.9231Z" fill="white"/>
</svg>
