<svg width="806" height="235" viewBox="0 0 806 235" fill="none" xmlns="http://www.w3.org/2000/svg">
<path d="M369.652 87.9912H392.717C394.539 87.9912 396.221 88.9596 397.136 90.5442L450.247 182.056C452.871 186.563 459.781 184.705 459.781 179.494V93.1148C459.781 90.2889 462.07 88 464.896 88H479.527C482.353 88 484.642 90.2889 484.642 93.1148V229.083C484.642 231.909 482.353 234.198 479.527 234.198H456.462C454.64 234.198 452.959 233.23 452.043 231.645L398.932 140.134C396.309 135.626 389.398 137.484 389.398 142.696V229.083C389.398 231.909 387.109 234.198 384.283 234.198H369.652C366.826 234.198 364.537 231.909 364.537 229.083V93.1148C364.537 90.2889 366.826 88 369.652 88V87.9912Z" fill="black"/>
<path d="M511.51 87.9912H593.813C596.639 87.9912 598.928 90.2801 598.928 93.106V106.478C598.928 109.304 596.639 111.593 593.813 111.593H536.362C533.536 111.593 531.247 113.882 531.247 116.708V143.039C531.247 145.865 533.536 148.154 536.362 148.154H593.813C596.639 148.154 598.928 150.443 598.928 153.268V166.641C598.928 169.467 596.639 171.756 593.813 171.756H536.362C533.536 171.756 531.247 174.045 531.247 176.87V205.499C531.247 208.325 533.536 210.614 536.362 210.614H593.813C596.639 210.614 598.928 212.903 598.928 215.729V229.11C598.928 231.936 596.639 234.225 593.813 234.225H511.51C508.684 234.225 506.395 231.936 506.395 229.11V93.1412C506.395 90.3153 508.684 88.0264 511.51 88.0264V87.9912Z" fill="black"/>
<path d="M621.271 87.9912H650.569C652.831 87.9912 654.812 89.479 655.464 91.6358L683.529 185.621C684.981 190.489 691.874 190.489 693.327 185.621L721.375 91.6358C722.017 89.4702 724.016 87.9912 726.269 87.9912H755.356C758.182 87.9912 760.471 90.2801 760.471 93.106V229.075C760.471 231.901 758.182 234.189 755.356 234.189H740.725C737.899 234.189 735.61 231.901 735.61 229.075V161.192C735.61 155.311 727.299 154.087 725.609 159.73L704.331 230.554C703.689 232.71 701.69 234.189 699.437 234.189H677.974C675.738 234.189 673.748 232.728 673.097 230.589L650.991 158.867C649.257 153.26 641 154.51 641 160.364V229.075C641 231.901 638.711 234.189 635.885 234.189H621.253C618.428 234.189 616.139 231.901 616.139 229.075V93.106C616.139 90.2801 618.428 87.9912 621.253 87.9912H621.28H621.271Z" fill="black"/>
<path d="M785.595 87.9912H800.227C803.053 87.9912 805.342 90.2801 805.342 93.106V229.075C805.342 231.901 803.053 234.189 800.227 234.189H785.595C782.77 234.189 780.481 231.901 780.481 229.075V93.106C780.481 90.2801 782.77 87.9912 785.595 87.9912Z" fill="black"/>
<path d="M278.098 116.985H248.83C240.59 116.985 233.963 110.179 234.219 101.895C234.457 93.9099 241.436 87.7473 249.447 87.7473C257.202 87.7473 263.486 81.4702 263.486 73.7229V43.878C263.486 35.7962 256.929 29.2462 248.839 29.2462H219.589C211.499 29.2462 204.942 35.7962 204.942 43.878C204.942 52.1096 198.121 58.7388 189.828 58.4747C181.818 58.2194 175.649 51.238 175.649 43.2354V14.6319C175.649 6.55002 169.092 0 161.002 0H131.752C123.662 0 117.105 6.55002 117.105 14.6319V29.2374C117.105 45.3835 104 58.4747 87.8375 58.4747H64.6333C60.7468 58.4747 57.0278 60.0154 54.2782 62.7534L4.28304 112.688C1.54225 115.426 0 119.15 0 123.033V160.819C0 168.901 6.55675 175.451 14.6469 175.451H29.2674C45.4566 175.451 58.5613 188.542 58.5613 204.688V219.32C58.5613 227.402 65.118 233.952 73.2082 233.952H102.458C110.548 233.952 117.105 227.402 117.105 219.32V204.688C117.105 188.066 130.985 174.693 147.791 175.486C163.531 176.225 175.649 189.774 175.649 205.516V219.329C175.649 227.411 182.205 233.961 190.295 233.961H219.563C227.653 233.961 234.21 227.411 234.21 219.329V204.697C234.21 188.551 247.314 175.459 263.477 175.459H278.098C286.188 175.459 292.745 168.909 292.745 160.827V131.608C292.745 123.526 286.188 116.976 278.098 116.976H278.089L278.098 116.985ZM58.5613 131.405C50.5856 131.405 44.117 124.943 44.117 116.976C44.117 109.008 50.5856 102.546 58.5613 102.546C66.5369 102.546 73.0055 109.008 73.0055 116.976C73.0055 124.943 66.5369 131.405 58.5613 131.405Z" fill="black"/>
</svg>
