<?xml version="1.0" encoding="UTF-8"?>
<svg xmlns="http://www.w3.org/2000/svg" viewBox="0 0 514 514">
  <circle fill='#fff' cx='257' cy='257' r='257'/>
  <path fill='#2c80ff' d="M377 335.8a50.8 50.8 0 0 1-30.5-12.7 77.7 77.7 0 0 1-22.5-41.7c-2-8.4-2.7-14-3.8-28-.8-10.8-1.3-14.8-2.2-19.7-1.3-6.3-2.6-9.9-4.1-11-1-.7-2.9-.6-4.4.3-2.7 1.7-6.9 8.4-15.3 24.5-4.5 8.4-6 11.2-8.6 15.5-5 8.3-8.8 13.6-13.3 18.2a43.3 43.3 0 0 1-27.4 15.1 81 81 0 0 1-13.4 0c-4-.6-7.9-1.7-11.7-3.4a50.4 50.4 0 0 1-24.4-25.7c-3.3-6.8-5.5-13-8.5-23.8a94 94 0 0 0-5.1-16.4c-.8-1.5-2-3.1-2.9-3.7-.6-.4-.9-.5-1.7-.5-3 0-5.3 2.6-9.7 11.1l-3 5.8a79.2 79.2 0 0 0-4.4 9.7l-2.2 5.6c-4.1 10.3-10 21-16 29a63.6 63.6 0 0 1-23 20c-4 1.7-5 3-5 6 0 1.7.4 3.3 1.9 7a137.4 137.4 0 0 0 46 59.8 154 154 0 0 0 84.7 30.5 157.5 157.5 0 0 0 118.4-43c4-4 12.4-13.6 17.3-20 2.4-3.2 3.2-5.5 2.3-6.5-.9-1-2.3-1.4-7.4-2Z"/>
  <path fill='#2c80ff' d="M399 201.2a151.2 151.2 0 0 0-147.8-94.8 156.7 156.7 0 0 0-63.4 16 148.2 148.2 0 0 0-59.5 52.3 152.5 152.5 0 0 0-24.1 64.8c-.7 5.7-.8 7.7-.8 16 0 7 0 8.3.3 9.7.6 3.2 1.4 4.3 2.8 3.7a39 39 0 0 0 10.1-14.2c2-4 3-6.3 7.9-18.3 4-10.2 5.5-13.6 8.6-19.6 7.5-15.2 14.5-24.2 23.6-30.1a38.6 38.6 0 0 1 26.9-6 35.6 35.6 0 0 1 24.8 14.2 80.3 80.3 0 0 1 12.7 30.1l2 8.5c2 7.9 4.2 13.7 7 18a21 21 0 0 0 5.5 5.3c.9.5 1.1.5 2.6.5s1.7 0 3-.6a21 21 0 0 0 7.6-7c4-5.5 4.9-6.9 13.6-23a224 224 0 0 1 12-20.9 64 64 0 0 1 19.7-20.6 34.4 34.4 0 0 1 20-4.8c5.8.4 11.1 1.8 16.2 4.3a39 39 0 0 1 20.4 24.4c2.9 8.3 4.3 16.4 5.7 33.6l.6 6.6c.2 1.3.5 4.1.6 6.2 1.2 12.5 3 21.1 6.3 28.4 6.1 13.8 15.2 18.8 25 13.9 9.4-4.8 16.7-17 19.4-32.6a99 99 0 0 0 .2-29c-2-13-5-23.7-9.4-35Z"/>
  <path fill='#2c80ff' d="M423 0H91A91 91 0 0 0 0 91v332a91 91 0 0 0 91 91h332a91 91 0 0 0 91-91V91a91 91 0 0 0-91-91Zm21.8 269.2a183.8 183.8 0 0 1-24.7 79.1 188 188 0 0 1-71.6 70.7c-24.7 13.8-53 22-80.2 23.5q-13.2.7-25-.1a187.7 187.7 0 0 1-110.8-46c-3.4-3-9.4-8.4-11-10-6-6.4-12-13.4-16-18.9a184.3 184.3 0 0 1-34.1-138.9A186 186 0 0 1 202.7 78.7a208.1 208.1 0 0 1 60.4-7.7 188 188 0 0 1 171.3 124.2 184.8 184.8 0 0 1 10.3 74Z"/>
</svg>