<svg version="1.1" id="Layer_1" xmlns="http://www.w3.org/2000/svg" xmlns:xlink="http://www.w3.org/1999/xlink" x="0px" y="0px"
	 width="100%" viewBox="0 0 1200 900" enable-background="new 0 0 1200 900" xml:space="preserve">
<path fill="#0219D4" opacity="1.000000" stroke="none" 
	d="
M755.000000,901.000000 
	C503.363190,901.000000 252.226364,901.000000 1.044777,901.000000 
	C1.044777,601.065491 1.044777,301.131012 1.044777,1.000000 
	C200.910690,1.000000 400.821442,1.000000 600.732178,1.000000 
	C800.708435,1.000000 1000.684631,1.000000 1200.830444,1.000000 
	C1200.830444,300.999908 1200.830444,600.999939 1200.830444,901.000000 
	C1052.464111,901.000000 903.982056,901.000000 755.000000,901.000000 
M296.205444,378.120758 
	C290.299286,362.394073 284.475494,346.635101 278.345154,330.996246 
	C277.799530,329.604340 275.277100,328.183472 273.644714,328.150146 
	C261.816803,327.908752 249.978943,328.161438 238.150436,327.934845 
	C234.617676,327.867126 232.990875,328.899933 231.721100,332.311096 
	C218.198578,368.638092 204.479370,404.891907 190.809387,441.163971 
	C186.483215,452.643097 182.142639,464.116821 177.628128,476.071075 
	C188.072754,476.071075 197.893860,475.941895 207.707916,476.148529 
	C210.713486,476.211823 212.064438,475.210754 212.996765,472.422729 
	C216.372849,462.326996 220.100174,452.348083 223.427490,442.237091 
	C224.391022,439.309082 225.861740,438.486816 228.811417,438.508057 
	C246.309799,438.633881 263.810608,438.669037 281.307892,438.482300 
	C284.636902,438.446777 285.934357,439.738007 286.899384,442.632294 
	C290.213898,452.573029 293.672302,462.467957 297.263153,472.311981 
	C297.788483,473.752075 299.304413,475.871368 300.406708,475.899109 
	C311.154999,476.169647 321.912781,476.061951 333.251862,476.061951 
	C320.826080,443.232605 308.643311,411.045288 296.205444,378.120758 
M510.369598,476.069916 
	C512.520691,476.069916 514.671753,476.069916 517.389160,476.069916 
	C517.389160,457.223419 517.389160,438.673309 517.389160,419.619354 
	C527.903564,419.619354 537.859131,419.706177 547.812561,419.597931 
	C561.049011,419.454010 573.966309,418.041107 586.016663,411.674286 
	C610.910767,398.521484 616.736206,363.821899 597.207153,343.497162 
	C588.737854,334.682770 577.904358,329.688965 566.127625,329.224823 
	C539.198364,328.163483 512.217590,328.408600 485.257507,328.144562 
	C484.981720,328.141846 484.703064,328.430267 484.273621,328.666412 
	C484.273621,377.631073 484.273621,426.665283 484.273621,476.069916 
	C492.819824,476.069916 501.111542,476.069916 510.369598,476.069916 
M416.437714,460.907501 
	C417.992401,457.634949 419.547058,454.362366 421.680084,449.872375 
	C422.319641,459.526245 422.862427,467.719482 423.397308,475.793335 
	C433.759186,475.793335 443.518890,475.793335 453.397949,475.793335 
	C453.397949,426.485718 453.397949,377.460175 453.397949,328.228333 
	C442.796326,328.228333 432.521027,328.228333 421.530640,328.228333 
	C421.530640,350.271057 421.530640,372.186401 421.530640,395.515137 
	C418.924011,390.660095 417.438110,386.949219 415.160492,383.813354 
	C405.213287,370.117859 391.153137,366.533051 375.350586,369.164764 
	C361.488953,371.473206 352.253113,380.337677 346.562592,392.842072 
	C340.377258,406.433838 339.620789,420.888214 341.417480,435.417633 
	C342.757324,446.252777 346.311340,456.410187 353.610168,464.963074 
	C369.726929,483.848938 402.909393,482.231934 416.437714,460.907501 
M927.821533,397.457825 
	C935.498779,387.424530 952.974426,388.757355 959.317261,393.745422 
	C962.483887,396.235657 965.502075,399.449554 963.803955,403.387146 
	C962.721436,405.897369 959.303894,408.457001 956.549866,408.981598 
	C949.730103,410.280548 942.628052,410.032471 935.753479,411.124054 
	C926.127625,412.652466 916.113953,413.553162 907.140137,416.998505 
	C888.055481,424.325653 882.364685,450.219513 895.509644,465.974243 
	C910.640625,484.109314 944.046692,481.707123 957.133240,461.328949 
	C960.090027,456.724579 961.945007,451.412598 964.670410,445.659760 
	C964.807373,448.516418 964.749329,450.754303 965.050720,452.942688 
	C965.933533,459.353729 966.770508,465.783783 968.068115,472.115662 
	C968.375244,473.614380 970.380188,475.845825 971.667847,475.890137 
	C981.061890,476.213348 990.472107,476.064178 999.525024,476.064178 
	C998.235474,469.406281 996.282715,463.277710 995.996948,457.072418 
	C995.277405,441.449188 995.263855,425.791962 995.053772,410.147186 
	C994.839172,394.160309 988.608521,381.361725 973.827087,374.570099 
	C954.013977,365.466553 933.763306,365.887604 914.036011,375.312531 
	C902.205505,380.964661 894.993042,390.444397 892.637634,404.140045 
	C900.970947,404.140045 908.950317,403.742615 916.866455,404.278534 
	C922.224243,404.641205 925.736389,403.301666 927.821533,397.457825 
M868.745789,413.350464 
	C873.777039,399.153564 878.808350,384.956635 884.036377,370.204681 
	C873.093140,370.204681 862.946838,370.097534 852.809326,370.346802 
	C851.608154,370.376312 849.765991,372.153717 849.382507,373.461487 
	C843.159485,394.682068 837.118958,415.956238 831.049683,437.221863 
	C829.228210,443.604340 827.445190,449.997803 825.239136,457.824585 
	C824.424500,455.414185 824.085693,454.532776 823.826843,453.628479 
	C816.229309,427.087799 808.667542,400.536804 800.973450,374.024200 
	C800.557678,372.591675 799.071716,370.408081 798.036743,370.381042 
	C787.632812,370.109222 777.218933,370.215637 766.019470,370.215637 
	C778.862915,406.043060 791.409119,441.041443 803.966919,476.072083 
	C816.698059,476.072083 829.025818,475.898071 841.343445,476.174622 
	C845.201965,476.261261 846.772522,474.906128 847.995422,471.399231 
	C854.675720,452.242584 861.612244,433.175262 868.745789,413.350464 
M658.976379,465.472565 
	C659.027344,451.974518 658.770142,438.466400 659.209656,424.981018 
	C659.722473,409.248535 670.060059,398.950714 685.845459,398.286804 
	C691.752563,398.038391 697.707581,398.930359 704.089172,399.330505 
	C704.089172,390.535309 704.172913,381.398499 703.971313,372.268005 
	C703.948975,371.255859 702.439758,369.610168 701.382690,369.387878 
	C687.034668,366.370941 672.963989,369.805878 664.969482,384.962036 
	C662.589478,389.474091 661.094788,394.453094 658.763916,400.297729 
	C658.294617,389.606293 657.873901,380.021698 657.459778,370.588165 
	C646.949097,370.588165 637.048523,370.588165 627.229492,370.588165 
	C627.229492,405.900238 627.229492,440.827118 627.229492,475.727966 
	C637.905212,475.727966 648.299805,475.727966 658.976379,475.727966 
	C658.976379,472.414642 658.976379,469.437408 658.976379,465.472565 
M719.951294,425.500000 
	C719.951294,442.243256 719.951294,458.986481 719.951294,475.765808 
	C730.966064,475.765808 741.360596,475.765808 751.669800,475.765808 
	C751.669800,440.470276 751.669800,405.480103 751.669800,370.466064 
	C740.998108,370.466064 730.743347,370.466064 719.951294,370.466064 
	C719.951294,388.649414 719.951294,406.574707 719.951294,425.500000 
M752.085571,337.542145 
	C752.085571,334.462067 752.085571,331.381958 752.085571,328.420776 
	C740.937073,328.420776 730.566589,328.420776 720.245728,328.420776 
	C720.245728,338.726959 720.245728,348.629272 720.245728,358.661896 
	C730.922668,358.661896 741.300964,358.661896 752.085571,358.661896 
	C752.085571,351.759796 752.085571,345.144409 752.085571,337.542145 
z"/>
<path fill="#FCFCFF" opacity="1.000000" stroke="none" 
	d="
M296.333008,378.489349 
	C308.643311,411.045288 320.826080,443.232605 333.251862,476.061951 
	C321.912781,476.061951 311.154999,476.169647 300.406708,475.899109 
	C299.304413,475.871368 297.788483,473.752075 297.263153,472.311981 
	C293.672302,462.467957 290.213898,452.573029 286.899384,442.632294 
	C285.934357,439.738007 284.636902,438.446777 281.307892,438.482300 
	C263.810608,438.669037 246.309799,438.633881 228.811417,438.508057 
	C225.861740,438.486816 224.391022,439.309082 223.427490,442.237091 
	C220.100174,452.348083 216.372849,462.326996 212.996765,472.422729 
	C212.064438,475.210754 210.713486,476.211823 207.707916,476.148529 
	C197.893860,475.941895 188.072754,476.071075 177.628128,476.071075 
	C182.142639,464.116821 186.483215,452.643097 190.809387,441.163971 
	C204.479370,404.891907 218.198578,368.638092 231.721100,332.311096 
	C232.990875,328.899933 234.617676,327.867126 238.150436,327.934845 
	C249.978943,328.161438 261.816803,327.908752 273.644714,328.150146 
	C275.277100,328.183472 277.799530,329.604340 278.345154,330.996246 
	C284.475494,346.635101 290.299286,362.394073 296.333008,378.489349 
M269.321594,390.099609 
	C264.736877,376.506073 260.152191,362.912537 255.122101,347.998383 
	C247.440018,370.465271 240.229446,391.553162 232.966553,412.794067 
	C247.958740,412.794067 262.376617,412.794067 277.365234,412.794067 
	C274.688293,405.201355 272.155029,398.016174 269.321594,390.099609 
z"/>
<path fill="#FDFDFF" opacity="1.000000" stroke="none" 
	d="
M509.886414,476.069916 
	C501.111542,476.069916 492.819824,476.069916 484.273621,476.069916 
	C484.273621,426.665283 484.273621,377.631073 484.273621,328.666412 
	C484.703064,328.430267 484.981720,328.141846 485.257507,328.144562 
	C512.217590,328.408600 539.198364,328.163483 566.127625,329.224823 
	C577.904358,329.688965 588.737854,334.682770 597.207153,343.497162 
	C616.736206,363.821899 610.910767,398.521484 586.016663,411.674286 
	C573.966309,418.041107 561.049011,419.454010 547.812561,419.597931 
	C537.859131,419.706177 527.903564,419.619354 517.389160,419.619354 
	C517.389160,438.673309 517.389160,457.223419 517.389160,476.069916 
	C514.671753,476.069916 512.520691,476.069916 509.886414,476.069916 
M526.541687,352.597839 
	C523.608398,352.597839 520.675049,352.597839 517.724121,352.597839 
	C517.724121,367.133209 517.724121,380.988159 517.724121,394.887634 
	C529.287964,394.887634 540.447449,395.250977 551.568237,394.751892 
	C558.282898,394.450562 564.734924,392.201080 569.148865,386.568298 
	C578.514771,374.616180 572.569580,357.177032 557.333313,354.234344 
	C547.654175,352.364929 537.480652,353.055328 526.541687,352.597839 
z"/>
<path fill="#FCFCFE" opacity="1.000000" stroke="none" 
	d="
M416.235504,461.212128 
	C402.909393,482.231934 369.726929,483.848938 353.610168,464.963074 
	C346.311340,456.410187 342.757324,446.252777 341.417480,435.417633 
	C339.620789,420.888214 340.377258,406.433838 346.562592,392.842072 
	C352.253113,380.337677 361.488953,371.473206 375.350586,369.164764 
	C391.153137,366.533051 405.213287,370.117859 415.160492,383.813354 
	C417.438110,386.949219 418.924011,390.660095 421.530640,395.515137 
	C421.530640,372.186401 421.530640,350.271057 421.530640,328.228333 
	C432.521027,328.228333 442.796326,328.228333 453.397949,328.228333 
	C453.397949,377.460175 453.397949,426.485718 453.397949,475.793335 
	C443.518890,475.793335 433.759186,475.793335 423.397308,475.793335 
	C422.862427,467.719482 422.319641,459.526245 421.680084,449.872375 
	C419.547058,454.362366 417.992401,457.634949 416.235504,461.212128 
M384.847351,449.746643 
	C396.861298,457.795715 412.873260,455.392059 418.227356,443.894653 
	C424.718292,429.955963 424.330322,415.581573 415.905701,402.501801 
	C406.461761,387.839417 384.179352,388.767670 376.585327,403.619751 
	C370.118774,416.266693 372.459320,440.433868 384.847351,449.746643 
z"/>
<path fill="#FCFCFF" opacity="1.000000" stroke="none" 
	d="
M927.583496,397.749023 
	C925.736389,403.301666 922.224243,404.641205 916.866455,404.278534 
	C908.950317,403.742615 900.970947,404.140045 892.637634,404.140045 
	C894.993042,390.444397 902.205505,380.964661 914.036011,375.312531 
	C933.763306,365.887604 954.013977,365.466553 973.827087,374.570099 
	C988.608521,381.361725 994.839172,394.160309 995.053772,410.147186 
	C995.263855,425.791962 995.277405,441.449188 995.996948,457.072418 
	C996.282715,463.277710 998.235474,469.406281 999.525024,476.064178 
	C990.472107,476.064178 981.061890,476.213348 971.667847,475.890137 
	C970.380188,475.845825 968.375244,473.614380 968.068115,472.115662 
	C966.770508,465.783783 965.933533,459.353729 965.050720,452.942688 
	C964.749329,450.754303 964.807373,448.516418 964.670410,445.659760 
	C961.945007,451.412598 960.090027,456.724579 957.133240,461.328949 
	C944.046692,481.707123 910.640625,484.109314 895.509644,465.974243 
	C882.364685,450.219513 888.055481,424.325653 907.140137,416.998505 
	C916.113953,413.553162 926.127625,412.652466 935.753479,411.124054 
	C942.628052,410.032471 949.730103,410.280548 956.549866,408.981598 
	C959.303894,408.457001 962.721436,405.897369 963.803955,403.387146 
	C965.502075,399.449554 962.483887,396.235657 959.317261,393.745422 
	C952.974426,388.757355 935.498779,387.424530 927.583496,397.749023 
M960.658936,423.540955 
	C956.556030,424.732666 952.512268,426.225616 948.336426,427.045715 
	C942.000000,428.290161 935.451538,428.593170 929.216370,430.175720 
	C922.952637,431.765533 920.148376,435.988373 920.424683,441.277710 
	C920.714355,446.822723 924.723206,451.294586 930.633789,452.665955 
	C949.166931,456.966003 967.293396,439.397339 963.565491,420.488922 
	C962.710449,421.403503 961.939270,422.228363 960.658936,423.540955 
z"/>
<path fill="#FCFCFE" opacity="1.000000" stroke="none" 
	d="
M868.603271,413.713867 
	C861.612244,433.175262 854.675720,452.242584 847.995422,471.399231 
	C846.772522,474.906128 845.201965,476.261261 841.343445,476.174622 
	C829.025818,475.898071 816.698059,476.072083 803.966919,476.072083 
	C791.409119,441.041443 778.862915,406.043060 766.019470,370.215637 
	C777.218933,370.215637 787.632812,370.109222 798.036743,370.381042 
	C799.071716,370.408081 800.557678,372.591675 800.973450,374.024200 
	C808.667542,400.536804 816.229309,427.087799 823.826843,453.628479 
	C824.085693,454.532776 824.424500,455.414185 825.239136,457.824585 
	C827.445190,449.997803 829.228210,443.604340 831.049683,437.221863 
	C837.118958,415.956238 843.159485,394.682068 849.382507,373.461487 
	C849.765991,372.153717 851.608154,370.376312 852.809326,370.346802 
	C862.946838,370.097534 873.093140,370.204681 884.036377,370.204681 
	C878.808350,384.956635 873.777039,399.153564 868.603271,413.713867 
z"/>
<path fill="#FCFDFF" opacity="1.000000" stroke="none" 
	d="
M658.976379,465.966370 
	C658.976379,469.437408 658.976379,472.414642 658.976379,475.727966 
	C648.299805,475.727966 637.905212,475.727966 627.229492,475.727966 
	C627.229492,440.827118 627.229492,405.900238 627.229492,370.588165 
	C637.048523,370.588165 646.949097,370.588165 657.459778,370.588165 
	C657.873901,380.021698 658.294617,389.606293 658.763916,400.297729 
	C661.094788,394.453094 662.589478,389.474091 664.969482,384.962036 
	C672.963989,369.805878 687.034668,366.370941 701.382690,369.387878 
	C702.439758,369.610168 703.948975,371.255859 703.971313,372.268005 
	C704.172913,381.398499 704.089172,390.535309 704.089172,399.330505 
	C697.707581,398.930359 691.752563,398.038391 685.845459,398.286804 
	C670.060059,398.950714 659.722473,409.248535 659.209656,424.981018 
	C658.770142,438.466400 659.027344,451.974518 658.976379,465.966370 
z"/>
<path fill="#FCFCFF" opacity="1.000000" stroke="none" 
	d="
M719.951294,425.000000 
	C719.951294,406.574707 719.951294,388.649414 719.951294,370.466064 
	C730.743347,370.466064 740.998108,370.466064 751.669800,370.466064 
	C751.669800,405.480103 751.669800,440.470276 751.669800,475.765808 
	C741.360596,475.765808 730.966064,475.765808 719.951294,475.765808 
	C719.951294,458.986481 719.951294,442.243256 719.951294,425.000000 
z"/>
<path fill="#FCFCFE" opacity="1.000000" stroke="none" 
	d="
M752.085571,338.035583 
	C752.085571,345.144409 752.085571,351.759796 752.085571,358.661896 
	C741.300964,358.661896 730.922668,358.661896 720.245728,358.661896 
	C720.245728,348.629272 720.245728,338.726959 720.245728,328.420776 
	C730.566589,328.420776 740.937073,328.420776 752.085571,328.420776 
	C752.085571,331.381958 752.085571,334.462067 752.085571,338.035583 
z"/>
<path fill="#061CD5" opacity="1.000000" stroke="none" 
	d="
M269.471680,390.465271 
	C272.155029,398.016174 274.688293,405.201355 277.365234,412.794067 
	C262.376617,412.794067 247.958740,412.794067 232.966553,412.794067 
	C240.229446,391.553162 247.440018,370.465271 255.122101,347.998383 
	C260.152191,362.912537 264.736877,376.506073 269.471680,390.465271 
z"/>
<path fill="#051CD5" opacity="1.000000" stroke="none" 
	d="
M527.035278,352.597839 
	C537.480652,353.055328 547.654175,352.364929 557.333313,354.234344 
	C572.569580,357.177032 578.514771,374.616180 569.148865,386.568298 
	C564.734924,392.201080 558.282898,394.450562 551.568237,394.751892 
	C540.447449,395.250977 529.287964,394.887634 517.724121,394.887634 
	C517.724121,380.988159 517.724121,367.133209 517.724121,352.597839 
	C520.675049,352.597839 523.608398,352.597839 527.035278,352.597839 
z"/>
<path fill="#051CD5" opacity="1.000000" stroke="none" 
	d="
M384.564667,449.517883 
	C372.459320,440.433868 370.118774,416.266693 376.585327,403.619751 
	C384.179352,388.767670 406.461761,387.839417 415.905701,402.501801 
	C424.330322,415.581573 424.718292,429.955963 418.227356,443.894653 
	C412.873260,455.392059 396.861298,457.795715 384.564667,449.517883 
z"/>
<path fill="#071ED5" opacity="1.000000" stroke="none" 
	d="
M960.913574,423.297058 
	C961.939270,422.228363 962.710449,421.403503 963.565491,420.488922 
	C967.293396,439.397339 949.166931,456.966003 930.633789,452.665955 
	C924.723206,451.294586 920.714355,446.822723 920.424683,441.277710 
	C920.148376,435.988373 922.952637,431.765533 929.216370,430.175720 
	C935.451538,428.593170 942.000000,428.290161 948.336426,427.045715 
	C952.512268,426.225616 956.556030,424.732666 960.913574,423.297058 
z"/>
</svg>