<svg width="216" height="50" viewBox="0 0 216 50" fill="none" xmlns="http://www.w3.org/2000/svg">
<path fill-rule="evenodd" clip-rule="evenodd" d="M25.1128 49.7693C38.8046 49.7693 49.904 38.6699 49.904 24.9782C49.904 11.2864 38.8046 0.187012 25.1128 0.187012C11.421 0.187012 0.321655 11.2864 0.321655 24.9782C0.321655 38.6699 11.421 49.7693 25.1128 49.7693ZM6.16588 13.9829C6.11844 13.9924 6.01407 14.0209 5.90971 14.0588C9.70478 7.35103 16.9059 2.8254 25.1697 2.8254C37.3898 2.8254 47.295 12.7495 47.295 24.9697C47.295 37.1898 37.3898 47.1044 25.1602 47.1044C20.5492 47.1044 16.8111 43.3663 16.8111 38.7553C16.8111 36.9621 17.3803 35.3017 18.3481 33.9355C18.3528 33.9308 18.3552 33.926 18.3576 33.9213C18.3599 33.9165 18.3623 33.9118 18.367 33.907C18.4999 33.6793 18.6801 33.4611 18.8889 33.2619C20.4164 31.5162 22.665 30.4156 25.1697 30.4156C26.7067 30.4156 28.1488 30.833 29.3917 31.5636L32.7409 34.8843C33.1299 35.463 36.4316 35.2733 37.0103 34.8843C37.4752 34.5807 37.4468 33.0626 37.4183 32.4365C37.4088 32.2657 37.4752 32.0949 37.6081 31.981C38.054 31.5921 39.0407 30.7192 39.3443 30.4156C39.6289 30.1215 39.7048 29.0683 39.7238 28.556C39.7333 28.3852 39.8187 28.2239 39.9515 28.1196C40.5018 27.6642 40.7485 26.9621 40.8434 26.5826C40.8908 26.4308 40.8623 26.2695 40.7769 26.1366L37.7219 21.2789C37.646 21.1651 37.6175 21.0323 37.6365 20.8994C37.684 20.501 37.665 19.5522 36.6308 18.3662C35.2646 16.8102 28.6612 13.1195 27.6934 12.9298C26.9629 12.7875 25.9097 12.8539 25.4259 12.9013C25.2551 12.9203 25.0938 12.8634 24.9705 12.74C24.3158 12.0854 22.1621 9.96014 21.6688 9.62807C21.119 9.25857 20.8689 9.47975 20.7232 9.60855C20.7155 9.61535 20.7081 9.62189 20.701 9.62807C20.4923 9.81782 20.1412 11.1556 20.0084 12C19.961 12.2941 19.6858 12.5028 19.3822 12.4744C15.6441 12.0949 9.43913 13.2713 6.16588 13.9829Z" fill="white"/>
<path d="M78.0622 13.8195C81.2743 13.8195 83.6249 14.4473 85.1142 15.703C86.6326 16.9294 87.3918 18.8421 87.3918 21.4409C87.3918 24.0106 86.6326 25.9086 85.1142 27.1351C83.5957 28.3323 81.2597 28.9309 78.106 28.9309H74.3391V35.2383H70.7036V13.8195H78.0622ZM78.5002 25.6896C80.4274 25.6896 81.7707 25.3246 82.5299 24.5946C83.3183 23.8646 83.7125 22.7112 83.7125 21.1343C83.7125 19.6743 83.2599 18.6376 82.3547 18.0244C81.4495 17.4112 79.9894 17.1046 77.9746 17.1046H74.3391V25.6896H78.5002ZM93.8707 30.3764L91.7245 35.2383H87.87L97.331 13.8195H101.186L110.603 35.2383H106.748L104.602 30.3764H93.8707ZM103.157 27.0037L99.2583 18.1996L95.36 27.0037H103.157ZM128.811 13.8195H132.403V35.2383H128.504L116.371 19.6013V35.2383H112.736V13.8195H116.371L128.811 29.8069V13.8195ZM145.631 17.1046V35.2383H141.996V17.1046H135.513V13.8195H152.114V17.1046H145.631ZM155.225 35.2383V13.8195H158.86V23.1054H169.46V13.8195H173.096V35.2383H169.46V26.4781H158.86V35.2383H155.225ZM193.259 13.8195V17.1922H181.826V22.8864H192.076V26.0838H181.826V31.8218H193.609V35.2383H178.191V13.8195H193.259ZM209.865 27.4417L215.471 35.2383H210.872L205.748 28.0111H201.017V35.2383H197.382V13.8195H205.353C208.595 13.8195 210.916 14.3743 212.318 15.484C213.749 16.5644 214.464 18.331 214.464 20.7839C214.464 24.3172 212.931 26.5365 209.865 27.4417ZM205.485 24.7698C207.5 24.7698 208.887 24.4632 209.646 23.85C210.405 23.2368 210.785 22.2001 210.785 20.7401C210.785 19.3385 210.405 18.3894 209.646 17.893C208.887 17.3674 207.529 17.1046 205.572 17.1046H201.017V24.7698H205.485Z" fill="#070D1A"/>
<path d="M78.0622 13.8195C81.2743 13.8195 83.6249 14.4473 85.1142 15.703C86.6326 16.9294 87.3918 18.8421 87.3918 21.4409C87.3918 24.0106 86.6326 25.9086 85.1142 27.1351C83.5957 28.3323 81.2597 28.9309 78.106 28.9309H74.3391V35.2383H70.7036V13.8195H78.0622ZM78.5002 25.6896C80.4274 25.6896 81.7707 25.3246 82.5299 24.5946C83.3183 23.8646 83.7125 22.7112 83.7125 21.1343C83.7125 19.6743 83.2599 18.6376 82.3547 18.0244C81.4495 17.4112 79.9894 17.1046 77.9746 17.1046H74.3391V25.6896H78.5002ZM93.8707 30.3764L91.7245 35.2383H87.87L97.331 13.8195H101.186L110.603 35.2383H106.748L104.602 30.3764H93.8707ZM103.157 27.0037L99.2583 18.1996L95.36 27.0037H103.157ZM128.811 13.8195H132.403V35.2383H128.504L116.371 19.6013V35.2383H112.736V13.8195H116.371L128.811 29.8069V13.8195ZM145.631 17.1046V35.2383H141.996V17.1046H135.513V13.8195H152.114V17.1046H145.631ZM155.225 35.2383V13.8195H158.86V23.1054H169.46V13.8195H173.096V35.2383H169.46V26.4781H158.86V35.2383H155.225ZM193.259 13.8195V17.1922H181.826V22.8864H192.076V26.0838H181.826V31.8218H193.609V35.2383H178.191V13.8195H193.259ZM209.865 27.4417L215.471 35.2383H210.872L205.748 28.0111H201.017V35.2383H197.382V13.8195H205.353C208.595 13.8195 210.916 14.3743 212.318 15.484C213.749 16.5644 214.464 18.331 214.464 20.7839C214.464 24.3172 212.931 26.5365 209.865 27.4417ZM205.485 24.7698C207.5 24.7698 208.887 24.4632 209.646 23.85C210.405 23.2368 210.785 22.2001 210.785 20.7401C210.785 19.3385 210.405 18.3894 209.646 17.893C208.887 17.3674 207.529 17.1046 205.572 17.1046H201.017V24.7698H205.485Z" fill="white"/>
<path d="M85.1142 15.703L84.953 15.8941L84.9571 15.8975L85.1142 15.703ZM85.1142 27.1351L85.269 27.3314L85.2712 27.3296L85.1142 27.1351ZM74.3391 28.9309V28.6809H74.0891V28.9309H74.3391ZM74.3391 35.2383V35.4883H74.5891V35.2383H74.3391ZM70.7036 35.2383H70.4536V35.4883H70.7036V35.2383ZM70.7036 13.8195V13.5695H70.4536V13.8195H70.7036ZM82.5299 24.5946L82.36 24.4111L82.3566 24.4144L82.5299 24.5946ZM82.3547 18.0244L82.4949 17.8174L82.3547 18.0244ZM74.3391 17.1046V16.8546H74.0891V17.1046H74.3391ZM74.3391 25.6896H74.0891V25.9396H74.3391V25.6896ZM78.0622 14.0695C81.2508 14.0695 83.5301 14.6944 84.953 15.8941L85.2753 15.5118C83.7197 14.2003 81.2977 13.5695 78.0622 13.5695V14.0695ZM84.9571 15.8975C86.3987 17.0618 87.1418 18.8908 87.1418 21.4409H87.6418C87.6418 18.7933 86.8665 16.797 85.2712 15.5085L84.9571 15.8975ZM87.1418 21.4409C87.1418 23.9608 86.3993 25.7757 84.9571 26.9406L85.2712 27.3296C86.8659 26.0416 87.6418 24.0604 87.6418 21.4409H87.1418ZM84.9594 26.9388C83.5052 28.0853 81.2362 28.6809 78.106 28.6809V29.1809C81.2831 29.1809 83.6862 28.5793 85.2689 27.3314L84.9594 26.9388ZM78.106 28.6809H74.3391V29.1809H78.106V28.6809ZM74.0891 28.9309V35.2383H74.5891V28.9309H74.0891ZM74.3391 34.9883H70.7036V35.4883H74.3391V34.9883ZM70.9536 35.2383V13.8195H70.4536V35.2383H70.9536ZM70.7036 14.0695H78.0622V13.5695H70.7036V14.0695ZM78.5002 25.9396C80.4437 25.9396 81.8714 25.5746 82.7032 24.7748L82.3566 24.4144C81.6699 25.0747 80.4111 25.4396 78.5002 25.4396V25.9396ZM82.6997 24.778C83.5592 23.9822 83.9625 22.7479 83.9625 21.1343H83.4625C83.4625 22.6744 83.0774 23.7469 82.36 24.4112L82.6997 24.778ZM83.9625 21.1343C83.9625 19.6221 83.4908 18.4921 82.4949 17.8174L82.2145 18.2314C83.029 18.7832 83.4625 19.7265 83.4625 21.1343H83.9625ZM82.4949 17.8174C81.526 17.1611 80.0031 16.8546 77.9746 16.8546V17.3546C79.9757 17.3546 81.3729 17.6613 82.2145 18.2314L82.4949 17.8174ZM77.9746 16.8546H74.3391V17.3546H77.9746V16.8546ZM74.0891 17.1046V25.6896H74.5891V17.1046H74.0891ZM74.3391 25.9396H78.5002V25.4396H74.3391V25.9396ZM93.8707 30.3764V30.1264H93.7078L93.642 30.2754L93.8707 30.3764ZM91.7245 35.2383V35.4883H91.8874L91.9532 35.3392L91.7245 35.2383ZM87.87 35.2383L87.6413 35.1373L87.4862 35.4883H87.87V35.2383ZM97.331 13.8195V13.5695H97.1681L97.1023 13.7185L97.331 13.8195ZM101.186 13.8195L101.414 13.7189L101.349 13.5695H101.186V13.8195ZM110.603 35.2383V35.4883H110.986L110.832 35.1377L110.603 35.2383ZM106.748 35.2383L106.52 35.3392L106.585 35.4883H106.748V35.2383ZM104.602 30.3764L104.831 30.2754L104.765 30.1264H104.602V30.3764ZM103.157 27.0037V27.2537H103.541L103.385 26.9024L103.157 27.0037ZM99.2583 18.1996L99.4869 18.0984L99.2583 17.5822L99.0297 18.0984L99.2583 18.1996ZM95.36 27.0037L95.1314 26.9024L94.9759 27.2537H95.36V27.0037ZM93.642 30.2754L91.4958 35.1373L91.9532 35.3392L94.0994 30.4773L93.642 30.2754ZM91.7245 34.9883H87.87V35.4883H91.7245V34.9883ZM88.0986 35.3393L97.5597 13.9205L97.1023 13.7185L87.6413 35.1373L88.0986 35.3393ZM97.331 14.0695H101.186V13.5695H97.331V14.0695ZM100.957 13.9201L110.374 35.3389L110.832 35.1377L101.414 13.7189L100.957 13.9201ZM110.603 34.9883H106.748V35.4883H110.603V34.9883ZM106.977 35.1373L104.831 30.2754L104.373 30.4773L106.52 35.3392L106.977 35.1373ZM104.602 30.1264H93.8707V30.6264H104.602V30.1264ZM103.385 26.9024L99.4869 18.0984L99.0297 18.3009L102.928 27.1049L103.385 26.9024ZM99.0297 18.0984L95.1314 26.9024L95.5886 27.1049L99.4869 18.3009L99.0297 18.0984ZM95.36 27.2537H103.157V26.7537H95.36V27.2537ZM128.811 13.8195V13.5695H128.561V13.8195H128.811ZM132.403 13.8195H132.653V13.5695H132.403V13.8195ZM132.403 35.2383V35.4883H132.653V35.2383H132.403ZM128.504 35.2383L128.307 35.3915L128.382 35.4883H128.504V35.2383ZM116.371 19.6013L116.569 19.448L116.121 18.8713V19.6013H116.371ZM116.371 35.2383V35.4883H116.621V35.2383H116.371ZM112.736 35.2383H112.486V35.4883H112.736V35.2383ZM112.736 13.8195V13.5695H112.486V13.8195H112.736ZM116.371 13.8195L116.569 13.666L116.494 13.5695H116.371V13.8195ZM128.811 29.8069L128.614 29.9605L129.061 30.5353V29.8069H128.811ZM128.811 14.0695H132.403V13.5695H128.811V14.0695ZM132.153 13.8195V35.2383H132.653V13.8195H132.153ZM132.403 34.9883H128.504V35.4883H132.403V34.9883ZM128.702 35.085L116.569 19.448L116.174 19.7545L128.307 35.3915L128.702 35.085ZM116.121 19.6013V35.2383H116.621V19.6013H116.121ZM116.371 34.9883H112.736V35.4883H116.371V34.9883ZM112.986 35.2383V13.8195H112.486V35.2383H112.986ZM112.736 14.0695H116.371V13.5695H112.736V14.0695ZM116.174 13.973L128.614 29.9605L129.008 29.6534L116.569 13.666L116.174 13.973ZM129.061 29.8069V13.8195H128.561V29.8069H129.061ZM145.631 17.1046V16.8546H145.381V17.1046H145.631ZM145.631 35.2383V35.4883H145.881V35.2383H145.631ZM141.996 35.2383H141.746V35.4883H141.996V35.2383ZM141.996 17.1046H142.246V16.8546H141.996V17.1046ZM135.513 17.1046H135.263V17.3546H135.513V17.1046ZM135.513 13.8195V13.5695H135.263V13.8195H135.513ZM152.114 13.8195H152.364V13.5695H152.114V13.8195ZM152.114 17.1046V17.3546H152.364V17.1046H152.114ZM145.381 17.1046V35.2383H145.881V17.1046H145.381ZM145.631 34.9883H141.996V35.4883H145.631V34.9883ZM142.246 35.2383V17.1046H141.746V35.2383H142.246ZM141.996 16.8546H135.513V17.3546H141.996V16.8546ZM135.763 17.1046V13.8195H135.263V17.1046H135.763ZM135.513 14.0695H152.114V13.5695H135.513V14.0695ZM151.864 13.8195V17.1046H152.364V13.8195H151.864ZM152.114 16.8546H145.631V17.3546H152.114V16.8546ZM155.225 35.2383H154.975V35.4883H155.225V35.2383ZM155.225 13.8195V13.5695H154.975V13.8195H155.225ZM158.86 13.8195H159.11V13.5695H158.86V13.8195ZM158.86 23.1054H158.61V23.3554H158.86V23.1054ZM169.46 23.1054V23.3554H169.71V23.1054H169.46ZM169.46 13.8195V13.5695H169.21V13.8195H169.46ZM173.096 13.8195H173.346V13.5695H173.096V13.8195ZM173.096 35.2383V35.4883H173.346V35.2383H173.096ZM169.46 35.2383H169.21V35.4883H169.46V35.2383ZM169.46 26.4781H169.71V26.2281H169.46V26.4781ZM158.86 26.4781V26.2281H158.61V26.4781H158.86ZM158.86 35.2383V35.4883H159.11V35.2383H158.86ZM155.475 35.2383V13.8195H154.975V35.2383H155.475ZM155.225 14.0695H158.86V13.5695H155.225V14.0695ZM158.61 13.8195V23.1054H159.11V13.8195H158.61ZM158.86 23.3554H169.46V22.8554H158.86V23.3554ZM169.71 23.1054V13.8195H169.21V23.1054H169.71ZM169.46 14.0695H173.096V13.5695H169.46V14.0695ZM172.846 13.8195V35.2383H173.346V13.8195H172.846ZM173.096 34.9883H169.46V35.4883H173.096V34.9883ZM169.71 35.2383V26.4781H169.21V35.2383H169.71ZM169.46 26.2281H158.86V26.7281H169.46V26.2281ZM158.61 26.4781V35.2383H159.11V26.4781H158.61ZM158.86 34.9883H155.225V35.4883H158.86V34.9883ZM193.259 13.8195H193.509V13.5695H193.259V13.8195ZM193.259 17.1922V17.4422H193.509V17.1922H193.259ZM181.826 17.1922V16.9422H181.576V17.1922H181.826ZM181.826 22.8864H181.576V23.1364H181.826V22.8864ZM192.076 22.8864H192.326V22.6364H192.076V22.8864ZM192.076 26.0838V26.3338H192.326V26.0838H192.076ZM181.826 26.0838V25.8338H181.576V26.0838H181.826ZM181.826 31.8218H181.576V32.0718H181.826V31.8218ZM193.609 31.8218H193.859V31.5718H193.609V31.8218ZM193.609 35.2383V35.4883H193.859V35.2383H193.609ZM178.191 35.2383H177.941V35.4883H178.191V35.2383ZM178.191 13.8195V13.5695H177.941V13.8195H178.191ZM193.009 13.8195V17.1922H193.509V13.8195H193.009ZM193.259 16.9422H181.826V17.4422H193.259V16.9422ZM181.576 17.1922V22.8864H182.076V17.1922H181.576ZM181.826 23.1364H192.076V22.6364H181.826V23.1364ZM191.826 22.8864V26.0838H192.326V22.8864H191.826ZM192.076 25.8338H181.826V26.3338H192.076V25.8338ZM181.576 26.0838V31.8218H182.076V26.0838H181.576ZM181.826 32.0718H193.609V31.5718H181.826V32.0718ZM193.359 31.8218V35.2383H193.859V31.8218H193.359ZM193.609 34.9883H178.191V35.4883H193.609V34.9883ZM178.441 35.2383V13.8195H177.941V35.2383H178.441ZM178.191 14.0695H193.259V13.5695H178.191V14.0695ZM209.865 27.4417L209.794 27.2019L209.456 27.3016L209.662 27.5876L209.865 27.4417ZM215.471 35.2383V35.4883H215.959L215.674 35.0923L215.471 35.2383ZM210.872 35.2383L210.668 35.3829L210.743 35.4883H210.872V35.2383ZM205.748 28.0111L205.952 27.8665L205.877 27.7611H205.748V28.0111ZM201.017 28.0111V27.7611H200.767V28.0111H201.017ZM201.017 35.2383V35.4883H201.267V35.2383H201.017ZM197.382 35.2383H197.132V35.4883H197.382V35.2383ZM197.382 13.8195V13.5695H197.132V13.8195H197.382ZM212.318 15.484L212.163 15.68L212.167 15.6835L212.318 15.484ZM209.646 23.85L209.489 23.6555L209.646 23.85ZM209.646 17.893L209.504 18.0986L209.509 18.1023L209.646 17.893ZM201.017 17.1046V16.8546H200.767V17.1046H201.017ZM201.017 24.7698H200.767V25.0198H201.017V24.7698ZM209.662 27.5876L215.268 35.3842L215.674 35.0923L210.068 27.2957L209.662 27.5876ZM215.471 34.9883H210.872V35.4883H215.471V34.9883ZM211.076 35.0937L205.952 27.8665L205.544 28.1557L210.668 35.3829L211.076 35.0937ZM205.748 27.7611H201.017V28.2611H205.748V27.7611ZM200.767 28.0111V35.2383H201.267V28.0111H200.767ZM201.017 34.9883H197.382V35.4883H201.017V34.9883ZM197.632 35.2383V13.8195H197.132V35.2383H197.632ZM197.382 14.0695H205.353V13.5695H197.382V14.0695ZM205.353 14.0695C208.579 14.0695 210.829 14.6241 212.163 15.68L212.473 15.288C211.003 14.1246 208.611 13.5695 205.353 13.5695V14.0695ZM212.167 15.6835C213.514 16.7007 214.214 18.3785 214.214 20.7839H214.714C214.714 18.2836 213.983 16.4281 212.468 15.2845L212.167 15.6835ZM214.214 20.7839C214.214 22.5154 213.838 23.8996 213.109 24.9562C212.38 26.0105 211.283 26.7624 209.794 27.2019L209.936 27.6814C211.513 27.2158 212.715 26.4054 213.52 25.2404C214.323 24.0778 214.714 22.5857 214.714 20.7839H214.214ZM205.485 25.0198C207.506 25.0198 208.972 24.716 209.803 24.0445L209.489 23.6555C208.802 24.2104 207.493 24.5198 205.485 24.5198V25.0198ZM209.803 24.0445C210.645 23.364 211.035 22.2373 211.035 20.7401H210.535C210.535 22.163 210.165 23.1095 209.489 23.6555L209.803 24.0445ZM211.035 20.7401C211.035 19.3024 210.645 18.2477 209.783 17.6838L209.509 18.1023C210.165 18.5312 210.535 19.3746 210.535 20.7401H211.035ZM209.788 17.6875C208.961 17.1147 207.534 16.8546 205.572 16.8546V17.3546C207.524 17.3546 208.812 17.6201 209.504 18.0986L209.788 17.6875ZM205.572 16.8546H201.017V17.3546H205.572V16.8546ZM200.767 17.1046V24.7698H201.267V17.1046H200.767ZM201.017 25.0198H205.485V24.5198H201.017V25.0198Z" fill="white"/>
</svg>
