<?xml version="1.0" encoding="UTF-8"?><svg id="Layer_1" xmlns="http://www.w3.org/2000/svg" viewBox="0 0 817.24 170.08"><defs><style>.cls-1{fill:#b3b3b3;}.cls-2{fill:#666;}</style></defs><g id="b"><g><path d="M175.06,102.55l-64.73,37.4-12.22-7.05-.05-.05-52.45-30.3c-3.59-2.34-6.51-5.53-8.57-9.12-2.4-4.14-3.7-8.9-3.7-13.83,0-4.44,2.23-8.11,5.47-10.29,.44-.27,.87-.52,1.33-.76,3.48-1.77,7.84-1.91,11.73,.35l14.13,7.84,9.5,5.59,2.46,1.54,32.36,18.67,32.28-18.65,32.45,18.65h0Z"/><path class="cls-1" d="M117.1,31.81c-8.25-4.76-18.56,1.2-18.56,10.72s4.6,17.77,12.14,22.86l31.93,18.51,.08-.03,32.36-18.7L117.1,31.81Z"/><path class="cls-2" d="M110.68,65.39c-7.54-5.09-12.14-13.66-12.14-22.86,0-4.53,2.37-8.31,5.74-10.45-.16,.09,.16-.09,0,0l-50.51,28.38-8.11,4.9-5.53,3.18c3.48-1.77,7.84-1.91,11.73,.35l13.91,7.92,12.19,7.05,32.36,18.67,32.28-18.65-31.93-18.51v.02Z"/></g></g><g><path d="M262.98,86.62c-1.94-1.58-4.12-2.9-6.55-3.94-2.43-1.04-4.96-1.87-7.59-2.48l-6.52-1.63c-1.43-.34-2.84-.76-4.24-1.26s-2.68-1.11-3.84-1.85c-1.15-.74-2.07-1.64-2.73-2.7-.67-1.06-1-2.32-1-3.77,.02-1.74,.53-3.29,1.53-4.65,1-1.36,2.43-2.43,4.31-3.23,1.88-.79,4.13-1.19,6.76-1.19,3.74,0,6.77,.83,9.12,2.48s3.67,3.96,3.99,6.93h12.12c-.07-3.92-1.17-7.39-3.29-10.41-2.13-3.02-5.05-5.39-8.78-7.1-3.72-1.71-8.05-2.56-12.99-2.56s-9.23,.85-13.07,2.56c-3.85,1.71-6.89,4.1-9.12,7.18-2.23,3.08-3.34,6.67-3.34,10.76,0,4.98,1.66,8.97,4.97,11.97,3.32,3,7.84,5.23,13.57,6.71l7.91,2.04c2.49,.63,4.67,1.35,6.54,2.16,1.87,.8,3.32,1.8,4.36,2.99,1.04,1.19,1.57,2.69,1.6,4.5-.02,1.99-.62,3.73-1.8,5.21-1.18,1.48-2.8,2.64-4.87,3.46-2.07,.83-4.48,1.24-7.21,1.24s-5-.39-7.11-1.19c-2.12-.79-3.83-1.99-5.14-3.6-1.31-1.61-2.06-3.62-2.24-6.04h-12.39c.18,4.62,1.39,8.53,3.62,11.75,2.23,3.21,5.33,5.66,9.3,7.33,3.97,1.67,8.66,2.51,14.07,2.51s10.32-.87,14.24-2.6c3.93-1.73,6.93-4.14,9.02-7.23,2.08-3.09,3.12-6.67,3.12-10.75,0-3.01-.57-5.64-1.7-7.88-1.13-2.24-2.66-4.15-4.6-5.74Z"/><path d="M303.38,109.95c-.64,.11-1.35,.17-2.12,.17-1.02,0-1.95-.16-2.78-.48-.84-.32-1.51-.91-2.02-1.78s-.76-2.13-.76-3.79v-26.96h10.29v-9.51h-10.29v-12.5h-12.29v12.5h-7.4v9.51h7.4v29c-.02,3.26,.68,5.98,2.12,8.15,1.44,2.17,3.39,3.78,5.86,4.81,2.47,1.03,5.24,1.5,8.32,1.41,1.74-.05,3.22-.2,4.43-.48s2.15-.52,2.8-.75l-2.07-9.61c-.34,.09-.83,.19-1.48,.31Z"/><path d="M351.96,70.71c-2.06-1.35-4.33-2.31-6.82-2.9-2.49-.59-4.99-.88-7.5-.88-3.65,0-6.97,.54-9.98,1.61-3.01,1.08-5.56,2.68-7.64,4.82-2.08,2.14-3.58,4.79-4.48,7.96l11.48,1.63c.61-1.79,1.79-3.34,3.55-4.65,1.75-1.31,4.14-1.97,7.15-1.97,2.85,0,5.04,.7,6.55,2.11,1.52,1.4,2.28,3.38,2.28,5.94v.2c0,1.18-.44,2.04-1.31,2.6-.87,.56-2.26,.96-4.16,1.22-1.9,.26-4.38,.55-7.44,.87-2.53,.27-4.99,.71-7.35,1.31-2.36,.6-4.49,1.48-6.37,2.63-1.88,1.15-3.36,2.69-4.45,4.62-1.09,1.92-1.63,4.36-1.63,7.3,0,3.42,.76,6.29,2.29,8.62,1.53,2.33,3.61,4.09,6.25,5.28,2.64,1.19,5.61,1.78,8.91,1.78,2.72,0,5.09-.38,7.11-1.14,2.03-.76,3.71-1.77,5.06-3.02s2.39-2.61,3.14-4.06h.41v7.16h11.82v-34.91c0-3.46-.63-6.35-1.88-8.66-1.26-2.31-2.91-4.14-4.98-5.48Zm-5.4,30.34c0,1.92-.49,3.7-1.48,5.33-.99,1.63-2.38,2.94-4.19,3.92-1.81,.99-3.95,1.48-6.42,1.48s-4.66-.58-6.32-1.73c-1.65-1.15-2.48-2.86-2.48-5.13,0-1.58,.42-2.88,1.26-3.89,.84-1.01,1.98-1.79,3.43-2.36,1.45-.57,3.09-.97,4.92-1.22,.81-.11,1.78-.25,2.89-.41,1.11-.16,2.23-.34,3.36-.54,1.13-.2,2.16-.44,3.07-.71,.92-.27,1.57-.56,1.95-.88v6.15Z"/><path d="M387.44,78.86c1.9-1.35,4.11-2.02,6.62-2.02,2.97,0,5.34,.84,7.11,2.53,1.78,1.69,2.9,3.79,3.38,6.3h11.75c-.27-3.76-1.38-7.04-3.33-9.86-1.95-2.82-4.56-5-7.83-6.55-3.27-1.55-7.02-2.33-11.26-2.33-5.09,0-9.5,1.14-13.23,3.41-3.72,2.27-6.6,5.44-8.64,9.51-2.04,4.06-3.06,8.74-3.06,14.04s1,9.93,3.01,13.97c2,4.04,4.87,7.2,8.59,9.49,3.72,2.29,8.19,3.43,13.4,3.43,4.37,0,8.17-.8,11.41-2.39,3.24-1.6,5.79-3.81,7.67-6.66,1.88-2.84,2.97-6.11,3.26-9.8h-11.75c-.36,1.88-1.03,3.47-2,4.79-.97,1.31-2.18,2.32-3.62,3.01-1.44,.69-3.06,1.04-4.87,1.04-2.56,0-4.78-.68-6.67-2.05-1.89-1.37-3.36-3.33-4.4-5.87-1.04-2.55-1.56-5.6-1.56-9.15s.53-6.52,1.58-9.03c1.05-2.51,2.53-4.44,4.43-5.79Z"/><polygon points="472.67 67.6 458.3 67.6 439.56 88.55 438.71 88.55 438.71 50.22 426.42 50.22 426.42 119.76 438.71 119.76 438.71 102.23 443.18 97.43 459.15 119.76 473.86 119.76 452.45 90.12 472.67 67.6"/><polygon points="566.55 101.36 565.94 101.36 552.53 50.22 540.2 50.22 526.83 101.32 526.18 101.32 513.65 50.22 500.1 50.22 519.73 119.76 532.16 119.76 546.11 70.97 546.66 70.97 560.58 119.76 573 119.76 592.63 50.22 579.08 50.22 566.55 101.36"/><path d="M631.14,70.71c-2.06-1.35-4.33-2.31-6.82-2.9-2.49-.59-4.99-.88-7.5-.88-3.65,0-6.97,.54-9.98,1.61-3.01,1.08-5.56,2.68-7.64,4.82-2.08,2.14-3.58,4.79-4.48,7.96l11.48,1.63c.61-1.79,1.79-3.34,3.55-4.65,1.75-1.31,4.14-1.97,7.15-1.97,2.85,0,5.04,.7,6.55,2.11,1.52,1.4,2.28,3.38,2.28,5.94v.2c0,1.18-.44,2.04-1.31,2.6-.87,.56-2.26,.96-4.16,1.22-1.9,.26-4.38,.55-7.44,.87-2.53,.27-4.99,.71-7.35,1.31-2.36,.6-4.49,1.48-6.37,2.63-1.88,1.15-3.36,2.69-4.45,4.62-1.09,1.92-1.63,4.36-1.63,7.3,0,3.42,.76,6.29,2.29,8.62,1.53,2.33,3.61,4.09,6.25,5.28,2.64,1.19,5.61,1.78,8.91,1.78,2.72,0,5.09-.38,7.11-1.14,2.03-.76,3.71-1.77,5.06-3.02s2.39-2.61,3.14-4.06h.41v7.16h11.82v-34.91c0-3.46-.63-6.35-1.88-8.66-1.26-2.31-2.91-4.14-4.98-5.48Zm-5.4,30.34c0,1.92-.49,3.7-1.48,5.33-.99,1.63-2.38,2.94-4.19,3.92-1.81,.99-3.95,1.48-6.42,1.48s-4.66-.58-6.32-1.73c-1.65-1.15-2.48-2.86-2.48-5.13,0-1.58,.42-2.88,1.26-3.89,.84-1.01,1.98-1.79,3.43-2.36,1.45-.57,3.09-.97,4.92-1.22,.81-.11,1.78-.25,2.89-.41,1.11-.16,2.23-.34,3.36-.54,1.13-.2,2.16-.44,3.07-.71,.92-.27,1.57-.56,1.95-.88v6.15Z"/><rect x="650.39" y="50.22" width="12.29" height="69.54"/><rect x="675.31" y="50.22" width="12.29" height="69.54"/><path d="M739.4,73.24c-2.21-2.15-4.74-3.74-7.61-4.77-2.86-1.03-5.9-1.55-9.12-1.55-4.98,0-9.32,1.14-13.01,3.41s-6.56,5.44-8.61,9.51c-2.05,4.06-3.07,8.78-3.07,14.14s1.02,10.19,3.06,14.21c2.04,4.02,4.95,7.12,8.74,9.3,3.79,2.18,8.3,3.28,13.53,3.28,4.05,0,7.65-.62,10.8-1.85,3.15-1.23,5.73-2.98,7.76-5.23,2.03-2.25,3.4-4.89,4.13-7.93l-11.48-1.29c-.54,1.47-1.35,2.71-2.41,3.7-1.06,1-2.32,1.75-3.77,2.26-1.45,.51-3.07,.76-4.86,.76-2.67,0-5-.57-6.99-1.72-1.99-1.14-3.54-2.79-4.65-4.96-1.07-2.09-1.61-4.59-1.65-7.49h36.32v-3.77c0-4.57-.63-8.52-1.9-11.83-1.27-3.32-3.01-6.05-5.21-8.2Zm-29.17,15.52c.12-2.04,.63-3.94,1.56-5.69,1.05-1.96,2.53-3.54,4.43-4.75,1.9-1.21,4.11-1.82,6.62-1.82,2.35,0,4.42,.53,6.2,1.6,1.78,1.06,3.16,2.52,4.16,4.36,1,1.84,1.5,3.94,1.53,6.3h-24.5Z"/><path d="M781.83,109.64c-.34,.09-.83,.19-1.48,.31-.64,.11-1.35,.17-2.12,.17-1.02,0-1.95-.16-2.78-.48-.84-.32-1.51-.91-2.02-1.78s-.76-2.13-.76-3.79v-26.96h10.29v-9.51h-10.29v-12.5h-12.29v12.5h-7.4v9.51h7.4v29c-.02,3.26,.68,5.98,2.12,8.15,1.44,2.17,3.39,3.78,5.86,4.81,2.47,1.03,5.24,1.5,8.32,1.41,1.74-.05,3.22-.2,4.43-.48s2.15-.52,2.8-.75l-2.07-9.61Z"/></g></svg>