<svg width="230" height="300" viewBox="0 0 230 300" fill="none" xmlns="http://www.w3.org/2000/svg">
<path d="M96.77 207.7L84.99 187.7C79.5 178.4 68.28 172.52 55.99 172.52H20.88L39.74 188.52C45.6699 193.382 53.1221 196.002 60.79 195.92C70.36 195.92 79.35 199.82 84.95 206.4C87.6602 209.449 89.5013 213.17 90.2806 217.174C91.06 221.178 90.7489 225.317 89.38 229.16L76 266L96.73 230.85C98.8432 227.36 99.9637 223.36 99.9708 219.281C99.9778 215.201 98.8711 211.197 96.77 207.7V207.7Z" fill="#fff"/>
<path d="M145.47 187.72L133.68 207.72C131.57 211.22 130.456 215.229 130.456 219.315C130.456 223.401 131.57 227.41 133.68 230.91L154.42 266L141.08 229.12C139.707 225.278 139.393 221.137 140.173 217.132C140.952 213.127 142.796 209.406 145.51 206.36C151.1 199.78 160.09 195.88 169.66 195.88C177.328 195.964 184.781 193.344 190.71 188.48L209.57 172.48H174.44C162.17 172.54 151 178.42 145.47 187.72Z" fill="#fff"/>
<path d="M125.43 274.8C124.672 274.04 123.643 273.612 122.57 273.61H107.88C107.345 273.608 106.815 273.713 106.321 273.917C105.827 274.121 105.378 274.421 105 274.8L98.71 281.08C97.9522 281.841 97.5267 282.871 97.5267 283.945C97.5267 285.019 97.9522 286.049 98.71 286.81L110.71 298.81C111.089 299.19 111.539 299.491 112.036 299.695C112.532 299.899 113.063 300.003 113.6 300H116.85C117.382 300.002 117.909 299.897 118.4 299.693C118.891 299.489 119.336 299.189 119.71 298.81L131.71 286.81C132.468 286.049 132.893 285.019 132.893 283.945C132.893 282.871 132.468 281.841 131.71 281.08L125.43 274.8Z" fill="#fff"/>
<path d="M229.28 83.26L224.07 0L164.42 44.91C156.859 49.5058 150.604 55.9641 146.251 63.6676C141.899 71.371 139.595 80.0621 139.56 88.91V123.08C139.56 137.22 155.4 145.84 167.56 138.34L220.69 99.64C223.141 98.1445 225.199 96.0843 226.691 93.6314C228.184 91.1785 229.068 88.4042 229.27 85.54C229.317 84.7808 229.32 84.0196 229.28 83.26V83.26Z" fill="#fff"/>
<path d="M90.44 123.12V89C90.4051 80.1521 88.1013 71.461 83.7488 63.7576C79.3964 56.0541 73.1408 49.5958 65.58 45L5.93 0L0.720009 83.26C0.675118 84.0327 0.675118 84.8073 0.720009 85.58C0.921889 88.4442 1.80603 91.2185 3.29862 93.6714C4.79121 96.1242 6.84893 98.1845 9.3 99.68L62.43 138.38C74.6 145.88 90.44 137.26 90.44 123.12Z" fill="#fff"/>
</svg>
