<svg width="304" height="92" viewBox="0 0 304 92" fill="none" xmlns="http://www.w3.org/2000/svg">
<g clip-path="url(#clip0_263_1598)">
<path d="M123.866 63.7118C118.962 63.7118 115.214 62.3779 112.623 59.7062C109.148 56.4318 107.409 51.7151 107.409 45.552C107.409 39.389 109.148 34.5477 112.623 31.3979C115.214 28.7302 118.962 27.3923 123.866 27.3923C128.771 27.3923 132.519 28.7261 135.11 31.3979C138.569 34.5477 140.3 39.2684 140.3 45.552C140.3 51.8356 138.569 56.4318 135.11 59.7062C132.519 62.3739 128.771 63.7118 123.866 63.7118ZM130.639 54.4913C132.298 52.3981 133.13 49.417 133.13 45.552C133.13 41.6871 132.294 38.7261 130.627 36.6248C128.96 34.5236 126.707 33.471 123.866 33.471C121.026 33.471 118.761 34.5196 117.07 36.6128C115.378 38.706 114.531 41.6871 114.531 45.552C114.531 49.417 115.374 52.3981 117.07 54.4913C118.761 56.5845 121.026 57.6331 123.866 57.6331C126.707 57.6331 128.964 56.5845 130.639 54.4913Z" fill="#E4DED7"/>
<path d="M162.41 40.1041C164.459 42.2937 165.483 45.5038 165.483 49.7424C165.483 54.2141 164.479 57.617 162.471 59.9633C160.462 62.3056 157.875 63.4788 154.71 63.4788C152.693 63.4788 151.018 62.9725 149.68 61.9641C148.949 61.4057 148.238 60.5901 147.539 59.5214V72.7434H140.975V37.3802H147.33V41.1286C148.045 40.0278 148.804 39.1559 149.612 38.5212C151.086 37.3882 152.838 36.8217 154.87 36.8217C157.835 36.8217 160.349 37.9145 162.41 40.1041ZM158.642 50.0679C158.642 48.1113 158.196 46.3837 157.305 44.8771C156.413 43.3705 154.967 42.6192 152.962 42.6192C150.556 42.6192 148.905 43.7602 148.005 46.0422C147.539 47.2515 147.306 48.7903 147.306 50.6504C147.306 53.5994 148.089 55.6725 149.656 56.8657C150.588 57.5648 151.689 57.9143 152.962 57.9143C154.81 57.9143 156.216 57.1992 157.188 55.7729C158.156 54.3467 158.642 52.4423 158.642 50.0679Z" fill="#E4DED7"/>
<path d="M179.073 58.0308V62.9886L175.932 63.1051C172.798 63.2136 170.657 62.6712 169.508 61.4739C168.765 60.7146 168.392 59.5415 168.392 57.9585V42.3379H164.853V37.6132H168.392V30.5341H174.956V37.6132H179.077V42.3379H174.956V55.7488C174.956 56.7894 175.088 57.4362 175.353 57.6934C175.618 57.9505 176.426 58.079 177.776 58.079C177.976 58.079 178.189 58.079 178.414 58.067C178.639 58.059 178.86 58.0469 179.077 58.0308H179.073Z" fill="#E4DED7"/>
<path d="M182.564 40.1282C184.315 37.8944 187.328 36.7775 191.594 36.7775C194.37 36.7775 196.841 37.3279 198.998 38.4287C201.155 39.5296 202.232 41.6107 202.232 44.6681V56.3073C202.232 57.1148 202.248 58.0911 202.28 59.2401C202.328 60.1079 202.456 60.6985 202.673 61.0079C202.89 61.3173 203.216 61.5744 203.65 61.7753V62.7516H196.435C196.234 62.2373 196.093 61.7592 196.017 61.3092C195.941 60.8592 195.877 60.349 195.832 59.7745C194.916 60.7668 193.86 61.6146 192.667 62.3136C191.241 63.1373 189.626 63.547 187.826 63.547C185.529 63.547 183.632 62.8922 182.134 61.5784C180.636 60.2687 179.889 58.4085 179.889 56.0019C179.889 52.8842 181.09 50.6223 183.496 49.2282C184.813 48.4688 186.754 47.9265 189.317 47.597L191.574 47.3158C192.799 47.1591 193.675 46.9662 194.205 46.7332C195.153 46.3314 195.623 45.7007 195.623 44.8489C195.623 43.8084 195.262 43.0932 194.543 42.6955C193.82 42.2977 192.763 42.1009 191.365 42.1009C189.799 42.1009 188.69 42.4906 188.035 43.266C187.569 43.8405 187.26 44.6159 187.103 45.5922H180.704C180.845 43.3745 181.463 41.5505 182.568 40.1202L182.564 40.1282ZM187.497 57.9585C188.116 58.4687 188.879 58.7259 189.779 58.7259C191.205 58.7259 192.522 58.308 193.723 57.4684C194.924 56.6287 195.551 55.102 195.595 52.8842V50.4174C195.178 50.6826 194.752 50.8955 194.326 51.0562C193.9 51.2209 193.314 51.3696 192.57 51.5102L191.08 51.7914C189.682 52.0405 188.682 52.3418 188.075 52.6994C187.051 53.3061 186.541 54.2422 186.541 55.5158C186.541 56.6488 186.858 57.4643 187.497 57.9585Z" fill="#E4DED7"/>
<path d="M204.497 28.4409H211.129V62.7556H204.497V28.4409Z" fill="#E4DED7"/>
<path d="M224.779 56.0983L230.018 37.3801H237.072L228.367 62.3377C226.691 67.1469 225.366 70.132 224.386 71.289C223.41 72.4461 221.453 73.0247 218.521 73.0247C217.93 73.0247 217.456 73.0206 217.103 73.0126C216.745 73.0046 216.211 72.9765 215.496 72.9323V67.625L216.335 67.6732C216.986 67.7053 217.609 67.6812 218.199 67.6049C218.79 67.5285 219.284 67.3477 219.69 67.0705C220.079 66.8054 220.437 66.2549 220.77 65.4193C221.104 64.5796 221.24 64.0693 221.176 63.8845L211.864 37.3922H219.244L224.783 56.1104L224.779 56.0983Z" fill="#E4DED7"/>
<path d="M254.542 38.5453C256.526 39.8189 257.667 42.0044 257.964 45.1101H251.332C251.24 44.2583 250.999 43.5834 250.609 43.0852C249.878 42.1852 248.637 41.7353 246.885 41.7353C245.443 41.7353 244.415 41.9603 243.8 42.4102C243.186 42.8602 242.88 43.3865 242.88 43.9932C242.88 44.7525 243.206 45.3029 243.856 45.6444C244.507 46.002 246.813 46.6127 250.77 47.4845C253.409 48.1073 255.385 49.0434 256.707 50.3009C258.009 51.5745 258.663 53.1655 258.663 55.0738C258.663 57.5889 257.727 59.6419 255.859 61.2329C253.987 62.8239 251.099 63.6194 247.191 63.6194C243.282 63.6194 240.257 62.7757 238.357 61.0923C236.457 59.4089 235.505 57.2635 235.505 54.656H242.233C242.374 55.8372 242.675 56.6729 243.141 57.1711C243.965 58.0549 245.483 58.4969 247.705 58.4969C249.01 58.4969 250.043 58.304 250.814 57.9143C251.581 57.5286 251.967 56.9461 251.967 56.1666C251.967 55.3872 251.658 54.8569 251.035 54.4672C250.412 54.0815 248.11 53.4105 244.122 52.4664C241.249 51.7512 239.225 50.8593 238.048 49.7906C236.867 48.734 236.28 47.2153 236.28 45.2266C236.28 42.8843 237.2 40.8715 239.04 39.1841C240.88 37.5007 243.467 36.657 246.801 36.657C250.135 36.657 252.549 37.2837 254.554 38.5412L254.542 38.5453Z" fill="#E4DED7"/>
<path d="M270.277 56.0983L275.515 37.3801H282.569L273.864 62.3377C272.189 67.1469 270.863 70.132 269.883 71.289C268.907 72.4461 266.951 73.0247 264.018 73.0247C263.428 73.0247 262.954 73.0206 262.6 73.0126C262.243 73.0046 261.708 72.9765 260.993 72.9323V67.625L261.833 67.6732C262.484 67.7053 263.106 67.6812 263.697 67.6049C264.287 67.5285 264.781 67.3477 265.187 67.0705C265.577 66.8054 265.934 66.2549 266.268 65.4193C266.601 64.5796 266.738 64.0693 266.673 63.8845L257.362 37.3922H264.741L270.281 56.1104L270.277 56.0983Z" fill="#E4DED7"/>
<path d="M299.882 38.5453C301.867 39.8189 303.008 42.0044 303.305 45.1101H296.673C296.58 44.2583 296.339 43.5834 295.95 43.0852C295.219 42.1852 293.977 41.7353 292.226 41.7353C290.784 41.7353 289.755 41.9603 289.141 42.4102C288.526 42.8602 288.221 43.3865 288.221 43.9932C288.221 44.7525 288.546 45.3029 289.197 45.6444C289.848 46.002 292.154 46.6127 296.11 47.4845C298.75 48.1073 300.726 49.0434 302.048 50.3009C303.349 51.5745 304.004 53.1655 304.004 55.0738C304.004 57.5889 303.068 59.6419 301.2 61.2329C299.328 62.8239 296.44 63.6194 292.531 63.6194C288.623 63.6194 285.598 62.7757 283.698 61.0923C281.798 59.4089 280.846 57.2635 280.846 54.656H287.574C287.715 55.8372 288.016 56.6729 288.482 57.1711C289.306 58.0549 290.824 58.4969 293.045 58.4969C294.351 58.4969 295.383 58.304 296.155 57.9143C296.922 57.5286 297.308 56.9461 297.308 56.1666C297.308 55.3872 296.998 54.8569 296.376 54.4672C295.753 54.0815 293.451 53.4105 289.462 52.4664C286.59 51.7512 284.565 50.8593 283.388 49.7906C282.207 48.734 281.621 47.2153 281.621 45.2266C281.621 42.8843 282.541 40.8715 284.381 39.1841C286.22 37.5007 288.807 36.657 292.142 36.657C295.476 36.657 297.89 37.2837 299.895 38.5412L299.882 38.5453Z" fill="#E4DED7"/>
<path d="M3.59528 45.5279C1.47427 45.5279 0.0964097 45.3672 0 45.3552L0.257093 43.2097C0.39769 43.2258 14.5097 44.8168 21.9332 37.1873C23.2026 35.8856 24.243 34.7606 25.1629 33.7723C27.4487 31.3095 28.9631 29.6823 30.9074 28.6337C32.7873 27.6213 35.0048 27.1512 39.0901 26.9102C43.529 26.645 49.169 26.7334 53.2905 26.7977C54.7688 26.8218 56.0623 26.8419 57.0505 26.8419C65.3698 26.8419 69.656 31.5224 73.3397 36.3155C78.6744 43.262 95.8795 43.037 96.0522 43.037L96.0924 45.1945C95.3412 45.2105 77.6259 45.4395 71.6284 37.6292C68.1376 33.0813 64.3937 29.0034 57.0545 29.0034C56.0623 29.0034 54.7567 28.9833 53.2624 28.9592C49.177 28.8949 43.5852 28.8105 39.2267 29.0676C32.0964 29.4935 31.1765 30.4819 26.7577 35.2428C25.8298 36.2432 24.7773 37.3761 23.4918 38.6979C20.0894 42.1933 14.9395 44.4552 8.59654 45.2306C6.71655 45.4596 4.99724 45.5319 3.60331 45.5319L3.59528 45.5279Z" fill="#E4DED7"/>
<path d="M95.2086 42.0687C91.2116 42.0687 75.5169 41.1206 69.7484 26.653C66.8561 19.3932 62.819 16.0103 57.0505 16.0103C55.3994 16.0103 53.1218 16.0224 50.5749 16.0384C47.3492 16.0585 43.6937 16.0786 40.3475 16.0786C32.5544 16.0786 30.0075 20.4819 24.934 29.2565L24.2912 30.3653C16.5624 43.7079 0.1647 41.8437 0 41.8237L0.265127 39.6822C0.417776 39.6983 15.4175 41.3737 22.4273 29.2846L23.066 28.1797C28.2079 19.2887 31.3091 13.9211 40.3475 13.9211C43.6897 13.9211 47.3412 13.901 50.5629 13.881C53.1137 13.8649 55.3954 13.8528 57.0505 13.8528C66.9686 13.8528 70.5719 22.8845 71.7529 25.8535C77.7745 40.9639 95.8152 39.9072 95.996 39.8912L96.1446 42.0446C96.1205 42.0446 95.7871 42.0647 95.2086 42.0647V42.0687Z" fill="#E4DED7"/>
<path d="M95.8835 39.0234C94.819 39.0234 90.1632 38.8707 84.933 36.3717C79.5501 33.8004 72.5363 28.1597 69.7002 15.8898C68.6036 11.1409 64.5463 2.15747 57.0505 2.15747C55.3995 2.15747 53.1218 2.16953 50.5749 2.1856C47.3492 2.20569 43.6937 2.22577 40.3475 2.22577C33.0043 2.22577 29.0314 7.03489 25.1549 20.5944C19.5672 40.1604 0.237009 38.8144 0.0441895 38.7984L0.216924 36.6449C0.939997 36.7052 17.9844 37.8382 23.0781 20.0038C25.1027 12.9127 27.067 8.39285 29.4371 5.35552C32.2169 1.79589 35.7841 0.0682999 40.3475 0.0682999C43.6897 0.0682999 47.3412 0.0482117 50.5629 0.0281235C53.1137 0.0120529 55.3954 0 57.0505 0C65.9041 0 70.5719 10.0762 71.8012 15.4036C76.8305 37.1712 95.2528 36.886 96.0362 36.8578L96.1044 39.0153C96.0803 39.0153 96.008 39.0153 95.8835 39.0153V39.0234Z" fill="#E4DED7"/>
<path d="M46.6021 65.2746C44.0271 65.2746 41.3999 65.2345 39.0901 65.0938C31.0962 64.6198 29.7223 63.1373 25.167 58.2317C24.2471 57.2394 23.2026 56.1184 21.9372 54.8127C14.5137 47.1832 0.401707 48.7742 0.26111 48.7903L0 46.6448C0.156666 46.6247 3.85237 46.1908 8.5885 46.7734C14.9274 47.5488 20.0813 49.8107 23.4838 53.3061C24.7693 54.6279 25.8217 55.7609 26.7497 56.7613C31.1685 61.5222 32.0884 62.5145 39.2187 62.9364C43.5772 63.1935 49.169 63.1091 53.2543 63.0448C54.7487 63.0207 56.0542 63.0007 57.0464 63.0007C64.3897 63.0007 68.1295 58.9187 71.6204 54.3748C77.6179 46.5645 95.3332 46.8015 96.0844 46.8096L96.0442 48.967C95.8755 48.967 78.6663 48.742 73.3317 55.6885C69.652 60.4816 65.3618 65.1581 57.0424 65.1581C56.0582 65.1581 54.7648 65.1782 53.2825 65.2023C51.306 65.2345 48.9721 65.2706 46.594 65.2706L46.6021 65.2746Z" fill="#E4DED7"/>
<path d="M57.0505 78.1472C55.3994 78.1472 53.1137 78.1351 50.5629 78.119C47.3412 78.0989 43.6897 78.0789 40.3475 78.0789C31.3091 78.0789 28.2079 72.7113 23.066 63.8202L22.4273 62.7154C15.4015 50.5982 0.413758 52.2976 0.265127 52.3177L0 50.1763C0.1647 50.1562 16.5624 48.2961 24.2953 61.6347L24.938 62.7435C30.0115 71.518 32.5584 75.9214 40.3515 75.9214C43.6977 75.9214 47.3532 75.9415 50.579 75.9616C53.1258 75.9776 55.4035 75.9897 57.0545 75.9897C62.823 75.9897 66.8561 72.6068 69.7524 65.3469C76.3525 48.7902 95.9518 49.9393 96.1486 49.9513L96 52.1048C95.9558 52.1008 91.3442 51.8155 86.0537 53.4346C79.0801 55.568 74.2676 59.8468 71.757 66.1465C70.5719 69.1155 66.9726 78.1472 57.0545 78.1472H57.0505Z" fill="#E4DED7"/>
<path d="M57.0505 92C55.3995 92 53.1137 91.9879 50.5629 91.9719C47.3412 91.9518 43.6897 91.9317 40.3475 91.9317C30.7105 91.9317 26.597 84.3022 23.0781 71.9962C17.9844 54.1618 0.944014 55.2948 0.216924 55.3511L0.0441895 53.1976C0.237009 53.1815 19.5672 51.8396 25.1549 71.4015C29.0314 84.9651 33.0043 89.7742 40.3475 89.7742C43.6937 89.7742 47.3492 89.7943 50.5749 89.8144C53.1218 89.8305 55.3995 89.8425 57.0505 89.8425C64.5463 89.8425 68.5995 80.8591 69.7002 76.1102C72.5363 63.8403 79.5501 58.1996 84.933 55.6283C90.7698 52.84 95.8875 52.9726 96.1044 52.9807L96.0362 55.1381C95.2568 55.1221 76.8345 54.8247 71.8052 76.5923C70.576 81.9197 65.9081 91.996 57.0545 91.996L57.0505 92Z" fill="#E4DED7"/>
</g>
<defs>
<clipPath id="clip0_263_1598">
<rect width="304" height="92" fill="white"/>
</clipPath>
</defs>
</svg>
