<svg width="245" height="46" viewBox="0 0 245 46" fill="none" xmlns="http://www.w3.org/2000/svg">
<path d="M67.7827 32.92C67.7827 33.9314 67.8219 34.7354 67.9001 35.3319C68.0045 35.9025 68.2002 36.3434 68.4873 36.6546C68.7744 36.9658 69.1919 37.1733 69.7399 37.277C70.2879 37.3548 71.0186 37.3937 71.932 37.3937V38.9498H58.8579V37.3937C59.6408 37.3419 60.2671 37.264 60.7368 37.1603C61.2065 37.0566 61.5588 36.8491 61.7937 36.5379C62.0286 36.2267 62.1721 35.7858 62.2243 35.2152C62.3026 34.6187 62.3417 33.8277 62.3417 32.8422V28.0961C62.3417 26.4882 62.3026 25.2044 62.2243 24.2449C62.146 23.2853 61.9764 22.5461 61.7154 22.0274C61.4545 21.5088 61.0761 21.1716 60.5802 21.016C60.1105 20.8345 59.4842 20.7437 58.7013 20.7437V19.3821L66.5301 17.9427L67.1564 22.4165H67.313C68.0176 21.0419 68.944 19.9527 70.0922 19.1487C71.2404 18.3447 72.4539 17.9427 73.7326 17.9427C74.7242 17.9427 75.5332 18.1891 76.1595 18.6819C76.7858 19.1746 77.0989 19.7971 77.0989 20.5492C77.0989 21.3791 76.851 22.0793 76.3552 22.6499C75.8855 23.2204 75.2331 23.5057 74.398 23.5057C74.0066 23.5057 73.6543 23.4279 73.3411 23.2723C73.028 23.1167 72.7409 22.9481 72.48 22.7666C72.2451 22.5591 71.9972 22.3776 71.7362 22.222C71.5014 22.0404 71.2535 21.9496 70.9925 21.9496C70.4967 21.9496 70.027 22.2738 69.5833 22.9222C69.1397 23.5706 68.7744 24.4394 68.4873 25.5286C68.2785 26.3067 68.1089 27.1884 67.9784 28.174C67.848 29.1335 67.7827 30.0931 67.7827 31.0527V32.92Z" fill="white"/>
<path d="M54.7741 32.5699C54.7741 33.6073 54.8133 34.4372 54.8916 35.0596C54.9698 35.682 55.1264 36.1618 55.3613 36.499C55.5961 36.8361 55.9354 37.0695 56.379 37.1992C56.8227 37.3029 57.4229 37.3678 58.1796 37.3937V38.9498H45.8493V37.3937C46.58 37.3678 47.1672 37.29 47.6108 37.1603C48.0805 37.0047 48.4328 36.7713 48.6677 36.4601C48.9286 36.1229 49.0983 35.6691 49.1766 35.0985C49.2809 34.502 49.3331 33.7499 49.3331 32.8422V28.0572C49.3331 26.553 49.307 25.3211 49.2548 24.3616C49.2027 23.376 49.1374 22.7017 49.0591 22.3387C48.9286 21.6903 48.6285 21.2624 48.1588 21.0549C47.7152 20.8474 46.8932 20.7437 45.6928 20.7437V19.421L54.7741 17.9427V32.5699ZM49.02 9.69553C49.02 8.83968 49.307 8.12648 49.8811 7.55592C50.4813 6.95942 51.199 6.66117 52.0341 6.66117C52.8952 6.66117 53.6129 6.95942 54.187 7.55592C54.7872 8.12648 55.0873 8.83968 55.0873 9.69553C55.0873 10.5254 54.7872 11.2386 54.187 11.8351C53.6129 12.4057 52.8952 12.691 52.0341 12.691C51.199 12.691 50.4813 12.4057 49.8811 11.8351C49.307 11.2386 49.02 10.5254 49.02 9.69553Z" fill="white"/>
<path d="M36.8768 27.8627C34.6848 28.8483 33.0277 29.7689 31.9056 30.6248C30.8095 31.4547 30.2615 32.3235 30.2615 33.2312C30.2615 33.9833 30.4703 34.5798 30.8878 35.0207C31.3054 35.4616 31.8273 35.682 32.4536 35.682C33.0799 35.682 33.667 35.5783 34.2151 35.3708C34.7631 35.1374 35.2328 34.8392 35.6242 34.4761C36.0157 34.113 36.3158 33.6851 36.5245 33.1923C36.7594 32.6736 36.8768 32.129 36.8768 31.5584V27.8627ZM36.8768 25.8009V24.1671C36.8768 22.6628 36.6028 21.5736 36.0548 20.8993C35.5329 20.1991 34.7109 19.8489 33.5888 19.8489C32.832 19.8489 32.2579 20.0564 31.8664 20.4714C31.475 20.8604 31.1096 21.5217 30.7704 22.4554C30.5355 23.1037 30.1963 23.6095 29.7527 23.9725C29.3351 24.3356 28.748 24.5172 27.9912 24.5172C27.2605 24.5172 26.6994 24.2967 26.308 23.8558C25.9166 23.4149 25.7208 22.7925 25.7208 21.9885C25.7208 20.7437 26.3993 19.7582 27.7563 19.032C29.1394 18.3058 31.214 17.9427 33.9802 17.9427C36.9029 17.9427 38.9906 18.4744 40.2432 19.5377C41.4958 20.5751 42.1221 22.3257 42.1221 24.7895V33.309C42.1221 35.5135 42.5657 36.6157 43.453 36.6157C43.9488 36.6157 44.4055 36.4471 44.823 36.11L45.4102 37.2381C45.0448 37.8865 44.4707 38.4052 43.6879 38.7942C42.9311 39.1573 42.0699 39.3388 41.1044 39.3388C39.904 39.3388 38.9906 38.9757 38.3643 38.2496C37.738 37.5234 37.4248 36.499 37.4248 35.1763H37.2291C36.4724 36.5249 35.4938 37.5493 34.2933 38.2496C33.0929 38.9498 31.7229 39.2999 30.1832 39.2999C28.5392 39.2999 27.2214 38.8461 26.2297 37.9383C25.2381 37.0047 24.7423 35.7987 24.7423 34.3205C24.7423 33.1793 25.2511 32.116 26.2689 31.1305C27.2866 30.1191 28.9828 29.1335 31.3576 28.174L36.8768 25.8009Z" fill="white"/>
<path d="M9.86424 32.6866C9.86424 33.6721 9.92948 34.4761 10.06 35.0985C10.1904 35.695 10.4514 36.1618 10.8428 36.499C11.2604 36.8102 11.8345 37.0306 12.5652 37.1603C13.3219 37.29 14.3266 37.3678 15.5792 37.3937V38.9498H0V37.3937C0.861164 37.3678 1.56575 37.29 2.11377 37.1603C2.66178 37.0306 3.07931 36.8102 3.36637 36.499C3.65342 36.1878 3.84914 35.7469 3.95353 35.1763C4.05791 34.6057 4.1101 33.8666 4.1101 32.9589V14.9862C4.1101 14.0785 4.05791 13.3523 3.95353 12.8077C3.87524 12.2371 3.70561 11.7962 3.44466 11.485C3.1837 11.1479 2.80531 10.9274 2.30948 10.8237C1.83976 10.694 1.21346 10.6032 0.430582 10.5514V8.99529H24.3866L24.8563 17.2036H23.2123C23.0557 16.0884 22.8208 15.1548 22.5077 14.4027C22.2206 13.6246 21.8031 13.0022 21.2551 12.5354C20.7071 12.0426 20.0025 11.6925 19.1413 11.485C18.2802 11.2775 17.2233 11.1738 15.9707 11.1738H10.5688C10.0991 11.1738 9.86424 11.3942 9.86424 11.8351V23.0778C11.4561 23.0778 12.7478 23.013 13.7395 22.8833C14.7572 22.7536 15.5662 22.5072 16.1664 22.1442C16.7666 21.7551 17.1972 21.2364 17.4581 20.5881C17.7191 19.9397 17.9018 19.0839 18.0062 18.0205H19.4545V30.1969H18.0062C17.8496 29.1076 17.6278 28.2388 17.3407 27.5904C17.0537 26.9161 16.61 26.4104 16.0098 26.0732C15.4357 25.7102 14.6528 25.4638 13.6612 25.3341C12.6695 25.2044 11.4039 25.1396 9.86424 25.1396V32.6866Z" fill="white"/>
<path d="M128.917 23.8953L130.515 26.1577L129.853 26.1344L128.255 23.872L128.917 23.8953ZM127.199 24.5283C127.27 24.2215 127.416 23.9722 127.638 23.7806C127.859 23.5889 128.146 23.4668 128.498 23.4143C128.854 23.3629 129.266 23.3907 129.734 23.4978C130.201 23.605 130.586 23.7597 130.888 23.962C131.19 24.1642 131.403 24.4007 131.527 24.6714C131.651 24.9422 131.677 25.2309 131.606 25.5378C131.535 25.8447 131.384 26.0929 131.153 26.2825C130.923 26.472 130.627 26.592 130.266 26.6425C129.905 26.6929 129.491 26.6645 129.023 26.5574C128.556 26.4503 128.173 26.2961 127.875 26.0948C127.582 25.8946 127.378 25.6602 127.264 25.3916C127.149 25.123 127.128 24.8352 127.199 24.5283ZM127.9 24.6891C127.864 24.847 127.891 24.9864 127.983 25.1071C128.078 25.2334 128.229 25.3441 128.436 25.4392C128.647 25.5398 128.91 25.626 129.223 25.6977C129.541 25.7706 129.814 25.8071 130.044 25.8074C130.272 25.8122 130.455 25.778 130.591 25.7047C130.731 25.637 130.82 25.5241 130.856 25.3662C130.892 25.2128 130.862 25.0729 130.767 24.9466C130.677 24.8213 130.528 24.7088 130.322 24.6093C130.115 24.5142 129.852 24.4303 129.534 24.3575C129.221 24.2857 128.947 24.2469 128.714 24.2411C128.485 24.2408 128.3 24.2768 128.159 24.349C128.022 24.4223 127.936 24.5356 127.9 24.6891Z" fill="white"/>
<path d="M126.938 27.9866L130.003 29.2742L130.016 28.4952L130.728 28.5684L130.854 29.8957L130.562 30.5803L126.551 28.895L126.938 27.9866Z" fill="white"/>
<path d="M125.42 31.3636L128.227 33.138L128.37 32.372L129.061 32.5615L128.963 33.8912L128.561 34.5182L124.887 32.1957L125.42 31.3636Z" fill="white"/>
<path d="M124.924 35.1665L125.042 37.9279L124.498 37.5536L124.379 34.7922L124.924 35.1665ZM123.134 34.7787C123.36 34.5585 123.619 34.4271 123.909 34.3844C124.2 34.3417 124.507 34.3925 124.832 34.5368C125.16 34.6844 125.492 34.9287 125.828 35.2696C126.164 35.6104 126.404 35.947 126.548 36.2793C126.693 36.6115 126.744 36.9248 126.701 37.219C126.659 37.5132 126.524 37.7704 126.297 37.9906C126.071 38.2108 125.809 38.3389 125.512 38.375C125.215 38.411 124.901 38.3536 124.57 38.2027C124.238 38.0518 123.905 37.8059 123.569 37.465C123.233 37.1241 122.995 36.7892 122.853 36.4602C122.715 36.1346 122.671 35.828 122.72 35.5404C122.769 35.2528 122.907 34.9989 123.134 34.7787ZM123.637 35.29C123.521 35.4034 123.468 35.5354 123.48 35.6861C123.491 35.8434 123.559 36.0177 123.682 36.2089C123.805 36.4067 123.979 36.6198 124.204 36.8481C124.432 37.0798 124.643 37.2572 124.836 37.3805C125.025 37.507 125.198 37.5759 125.352 37.5874C125.507 37.6055 125.643 37.5578 125.759 37.4445C125.873 37.3344 125.924 37.2007 125.912 37.0434C125.904 36.8895 125.84 36.7152 125.72 36.5208C125.597 36.3295 125.421 36.1181 125.193 35.8864C124.968 35.6581 124.759 35.479 124.566 35.3492C124.373 35.226 124.198 35.1569 124.039 35.1421C123.885 35.1306 123.751 35.1799 123.637 35.29Z" fill="white"/>
<path d="M121.688 38.5833L121.159 41.297L120.717 40.8076L121.245 38.094L121.688 38.5833ZM120.036 37.7943C120.308 37.6322 120.59 37.5638 120.882 37.5891C121.175 37.6144 121.462 37.7346 121.745 37.9496C122.029 38.1687 122.295 38.4826 122.543 38.8915C122.79 39.3003 122.945 39.683 123.008 40.0396C123.072 40.3961 123.048 40.7125 122.938 40.9889C122.828 41.2653 122.637 41.4846 122.366 41.6467C122.094 41.8088 121.809 41.8732 121.512 41.84C121.215 41.8068 120.922 41.6787 120.635 41.4557C120.348 41.2326 120.081 40.9167 119.834 40.5078C119.587 40.099 119.433 39.7183 119.372 39.3657C119.313 39.0171 119.341 38.7086 119.456 38.4402C119.571 38.1717 119.764 37.9564 120.036 37.7943ZM120.407 38.4076C120.267 38.491 120.185 38.6074 120.161 38.7567C120.136 38.9124 120.161 39.0974 120.236 39.3118C120.31 39.5325 120.429 39.7798 120.595 40.0537C120.763 40.3315 120.927 40.5526 121.086 40.7169C121.241 40.8836 121.392 40.9904 121.54 41.0372C121.687 41.0903 121.83 41.0752 121.97 40.9917C122.105 40.9107 122.186 40.7923 122.212 40.6367C122.239 40.485 122.218 40.3008 122.146 40.084C122.071 39.8696 121.95 39.6235 121.782 39.3456C121.616 39.0717 121.454 38.8495 121.297 38.6788C121.138 38.5145 120.983 38.407 120.832 38.3562C120.685 38.3094 120.543 38.3265 120.407 38.4076Z" fill="white"/>
<path d="M117.232 39.6425L118.448 42.7204L119.018 42.185L119.463 42.7426L118.596 43.7598L117.9 44.0312L116.308 40.0027L117.232 39.6425Z" fill="white"/>
<path d="M114.574 42.4339L113.019 44.7257L112.804 44.1031L114.359 41.8113L114.574 42.4339ZM113.365 41.0654C113.679 41.0219 113.966 41.0686 114.225 41.2057C114.484 41.3428 114.701 41.5652 114.876 41.8729C115.052 42.1853 115.173 42.5776 115.239 43.0501C115.306 43.5225 115.298 43.9351 115.216 44.2878C115.133 44.6406 114.987 44.9227 114.777 45.1342C114.567 45.3457 114.305 45.4732 113.991 45.5168C113.677 45.5603 113.39 45.5089 113.129 45.3627C112.869 45.2164 112.65 44.9848 112.474 44.6679C112.298 44.351 112.176 43.9563 112.11 43.4839C112.044 43.0115 112.052 42.6012 112.135 42.253C112.218 41.9095 112.366 41.6365 112.577 41.4342C112.789 41.2318 113.052 41.1089 113.365 41.0654ZM113.465 41.774C113.303 41.7964 113.182 41.8717 113.101 41.9998C113.017 42.1331 112.967 42.313 112.951 42.5396C112.932 42.7714 112.945 43.0455 112.989 43.362C113.034 43.6831 113.098 43.9502 113.18 44.1633C113.257 44.3771 113.354 44.5342 113.472 44.6348C113.585 44.7406 113.723 44.7823 113.884 44.76C114.041 44.7382 114.162 44.6607 114.247 44.5273C114.332 44.3986 114.385 44.2206 114.405 43.9934C114.42 43.7668 114.405 43.493 114.36 43.172C114.316 42.8555 114.254 42.5881 114.177 42.3697C114.095 42.1566 113.995 41.9974 113.877 41.8923C113.759 41.7917 113.622 41.7523 113.465 41.774Z" fill="white"/>
<path d="M109.98 41.6817L109.877 44.9868L110.613 44.7175L110.801 45.4044L109.601 46L108.854 45.9771L108.988 41.6513L109.98 41.6817Z" fill="white"/>
<path d="M106.443 43.2045L104.113 44.7148L104.159 44.0584L106.489 42.5481L106.443 43.2045ZM105.865 41.4768C106.171 41.558 106.417 41.7118 106.602 41.9382C106.787 42.1647 106.9 42.4535 106.941 42.8046C106.981 43.1602 106.938 43.5684 106.815 44.0292C106.691 44.4901 106.522 44.8671 106.308 45.1603C106.094 45.4535 105.849 45.6569 105.572 45.7706C105.296 45.8842 105.005 45.9004 104.698 45.8192C104.392 45.738 104.148 45.5797 103.965 45.3444C103.782 45.109 103.672 44.8112 103.634 44.4512C103.595 44.0911 103.638 43.6807 103.762 43.2198C103.886 42.7589 104.054 42.3842 104.267 42.0954C104.478 41.8112 104.721 41.6167 104.995 41.512C105.269 41.4074 105.559 41.3956 105.865 41.4768ZM105.68 42.1681C105.522 42.1263 105.381 42.1488 105.256 42.2356C105.126 42.3257 105.009 42.4721 104.907 42.675C104.798 42.8811 104.703 43.1385 104.62 43.4472C104.535 43.7604 104.489 44.031 104.481 44.2589C104.468 44.4856 104.497 44.668 104.566 44.8062C104.629 44.9476 104.739 45.0392 104.897 45.0809C105.05 45.1215 105.192 45.0968 105.322 45.0067C105.451 44.9211 105.569 44.7775 105.676 44.5759C105.779 44.373 105.873 44.115 105.957 43.8018C106.04 43.4931 106.088 43.2231 106.102 42.9919C106.11 42.764 106.08 42.5788 106.013 42.4362C105.944 42.2981 105.833 42.2087 105.68 42.1681Z" fill="white"/>
<path d="M102.582 40.7582L101.194 43.7636L101.978 43.7995L101.883 44.5051L100.544 44.5905L99.8637 44.2807L101.68 40.3471L102.582 40.7582Z" fill="white"/>
<path d="M98.7308 40.7932L95.992 41.28L96.2922 40.6936L99.0311 40.2068L98.7308 40.7932ZM98.8775 38.9787C99.1276 39.1721 99.2934 39.409 99.3749 39.6893C99.4564 39.9695 99.447 40.2792 99.3466 40.6182C99.2433 40.9609 99.0442 41.3203 98.7492 41.6966C98.4541 42.0729 98.1506 42.3545 97.8386 42.5415C97.5265 42.7285 97.2209 42.8207 96.9216 42.8181C96.6224 42.8155 96.3478 42.7174 96.0977 42.524C95.8477 42.3305 95.6847 42.09 95.6089 41.8024C95.5331 41.5149 95.5483 41.1979 95.6544 40.8516C95.7605 40.5053 95.9611 40.144 96.2561 39.7677C96.5512 39.3914 96.8533 39.1116 97.1625 38.9283C97.4688 38.7486 97.7687 38.6637 98.0622 38.6736C98.3557 38.6835 98.6275 38.7852 98.8775 38.9787ZM98.435 39.5431C98.3063 39.4435 98.1675 39.4095 98.0187 39.4411C97.8633 39.4735 97.6985 39.5631 97.5243 39.71C97.3435 39.8577 97.1543 40.0576 96.9566 40.3097C96.7561 40.5654 96.6073 40.7966 96.5103 41.0032C96.4096 41.207 96.3639 41.3859 96.3732 41.5398C96.3759 41.6945 96.4416 41.8216 96.5703 41.9212C96.6953 42.0179 96.8355 42.0501 96.9909 42.0177C97.1434 41.989 97.3086 41.9026 97.4866 41.7585C97.6608 41.6116 97.8482 41.4103 98.0487 41.1546C98.2463 40.9026 98.3969 40.6728 98.5005 40.4654C98.5976 40.2587 98.6429 40.0766 98.6364 39.919C98.6272 39.7651 98.56 39.6398 98.435 39.5431Z" fill="white"/>
<path d="M94.894 38.0717L92.1159 37.9175L92.5442 37.4158L95.3223 37.5699L94.894 38.0717ZM95.4578 36.3397C95.6562 36.5853 95.7626 36.8538 95.7769 37.1451C95.7912 37.4365 95.7102 37.7357 95.5338 38.0425C95.3537 38.3523 95.0765 38.6564 94.7021 38.9549C94.3277 39.2534 93.967 39.4579 93.62 39.5683C93.2729 39.6787 92.9541 39.6984 92.6636 39.6272C92.373 39.5561 92.1285 39.3977 91.9301 39.1522C91.7317 38.9066 91.629 38.6352 91.622 38.338C91.615 38.0408 91.7033 37.7359 91.8869 37.4233C92.0706 37.1106 92.3496 36.805 92.724 36.5065C93.0984 36.2081 93.4573 36.005 93.8007 35.8975C94.1405 35.7929 94.452 35.779 94.7353 35.856C95.0186 35.9329 95.2594 36.0942 95.4578 36.3397ZM94.8962 36.7875C94.7941 36.6611 94.667 36.5962 94.5149 36.5928C94.3562 36.5887 94.175 36.6381 93.9713 36.7411C93.7611 36.8434 93.5306 36.9945 93.2798 37.1945C93.0254 37.3973 92.827 37.5882 92.6846 37.767C92.5393 37.9422 92.4533 38.1058 92.4266 38.2576C92.3933 38.4088 92.4278 38.5476 92.5299 38.674C92.6291 38.7968 92.758 38.8602 92.9167 38.8643C93.0718 38.8713 93.2526 38.8251 93.4592 38.7257C93.6628 38.6228 93.8919 38.4698 94.1463 38.267C94.3971 38.067 94.597 37.878 94.746 37.6999C94.8883 37.5211 94.9747 37.3543 95.005 37.1995C95.0317 37.0476 94.9954 36.9102 94.8962 36.7875Z" fill="white"/>
<path d="M93.2299 33.8306L90.3222 35.4379L90.9323 35.9273L90.4357 36.4403L89.3052 35.7218L88.9414 35.0723L92.7471 32.9687L93.2299 33.8306Z" fill="white"/>
<path d="M91.6388 31.1404L88.5021 32.2433L89.0215 32.827L88.4457 33.2505L87.4518 32.3547L87.2021 31.654L91.3075 30.2105L91.6388 31.1404Z" fill="white"/>
<path d="M88.9238 28.4265L86.6664 26.8108L87.2991 26.617L89.5565 28.2326L88.9238 28.4265ZM90.3372 27.2682C90.3713 27.5813 90.3155 27.8644 90.1697 28.1177C90.0239 28.371 89.7936 28.5798 89.4787 28.7441C89.1592 28.9089 88.7608 29.017 88.2837 29.0684C87.8065 29.1197 87.3917 29.0992 87.0395 29.0067C86.6872 28.9141 86.4079 28.7602 86.2016 28.5448C85.9953 28.3295 85.8751 28.0652 85.841 27.7522C85.8068 27.4391 85.8673 27.1554 86.0223 26.9011C86.1774 26.6469 86.417 26.4371 86.7411 26.2718C87.0653 26.1064 87.466 25.9981 87.9431 25.9467C88.4203 25.8954 88.8327 25.9162 89.1804 26.0092C89.5234 26.1027 89.7934 26.2576 89.9904 26.474C90.1874 26.6904 90.303 26.9551 90.3372 27.2682ZM89.6214 27.3452C89.6038 27.1841 89.5319 27.0614 89.4055 26.9772C89.274 26.8888 89.0945 26.8336 88.8671 26.8115C88.6346 26.7853 88.3585 26.7894 88.0388 26.8238C87.7145 26.8587 87.4439 26.9135 87.2271 26.9881C87.0097 27.058 86.8487 27.1499 86.7439 27.2637C86.634 27.3733 86.5878 27.5087 86.6054 27.6699C86.6225 27.8264 86.6968 27.9489 86.8283 28.0372C86.9551 28.126 87.1325 28.1838 87.3604 28.2105C87.5878 28.2326 87.8637 28.2262 88.188 28.1913C88.5077 28.1569 88.7785 28.1044 89.0005 28.0339C89.2173 27.9594 89.3804 27.8649 89.4899 27.7507C89.5946 27.6369 89.6385 27.5018 89.6214 27.3452Z" fill="white"/>
<path d="M89.8184 23.9122L86.4975 23.7083L86.7456 24.4474L86.049 24.6134L85.487 23.4026L85.5332 22.6607L89.8796 22.9276L89.8184 23.9122Z" fill="white"/>
<path d="M88.3882 20.3247L86.9491 17.9593L87.6077 18.0273L89.0468 20.3928L88.3882 20.3247ZM90.1456 19.8096C90.0535 20.1109 89.8904 20.3497 89.6563 20.5259C89.4222 20.7021 89.1279 20.8044 88.7733 20.833C88.4143 20.8602 88.0052 20.8044 87.5459 20.6659C87.0867 20.5273 86.7133 20.3468 86.4257 20.1245C86.1381 19.9022 85.942 19.6518 85.8372 19.3734C85.7324 19.0949 85.7261 18.805 85.8182 18.5037C85.9104 18.2024 86.0779 17.965 86.321 17.7915C86.564 17.618 86.8672 17.5183 87.2306 17.4925C87.5941 17.4666 88.0054 17.523 88.4647 17.6616C88.924 17.8002 89.2952 17.98 89.5783 18.2009C89.8569 18.4205 90.0442 18.6682 90.14 18.944C90.2359 19.2198 90.2378 19.5083 90.1456 19.8096ZM89.4567 19.6017C89.5041 19.4466 89.4864 19.3057 89.4033 19.1791C89.3172 19.0466 89.1739 18.9259 88.9734 18.817C88.7699 18.7023 88.5142 18.5986 88.2066 18.5057C87.8944 18.4115 87.6239 18.3565 87.395 18.3407C87.1674 18.3204 86.983 18.3422 86.8417 18.406C86.6973 18.4641 86.6014 18.5706 86.5539 18.7257C86.5079 18.8764 86.5279 19.018 86.614 19.1504C86.6957 19.2815 86.8361 19.4038 87.0352 19.5171C87.2357 19.626 87.492 19.7275 87.8041 19.8217C88.1118 19.9146 88.3816 19.9718 88.6137 19.9934C88.8426 20.0093 89.0299 19.986 89.1757 19.9235C89.317 19.8596 89.4106 19.7524 89.4567 19.6017Z" fill="white"/>
<path d="M90.9556 16.6057L87.979 15.1282L87.9166 15.9047L87.21 15.787L87.1692 14.4544L87.5036 13.7895L91.3995 15.7233L90.9556 16.6057Z" fill="white"/>
<path d="M91.033 12.7731L90.6332 10.0379L91.2133 10.3552L91.6131 13.0904L91.033 12.7731ZM92.8538 12.978C92.6509 13.22 92.4072 13.3768 92.1225 13.4486C91.8378 13.5204 91.5266 13.501 91.1888 13.3902C90.8475 13.2765 90.4923 13.067 90.1235 12.7618C89.7546 12.4566 89.4812 12.146 89.3033 11.8301C89.1254 11.5141 89.0427 11.2077 89.0552 10.9107C89.0676 10.6136 89.1753 10.3442 89.3782 10.1023C89.581 9.86032 89.8284 9.70642 90.1202 9.64053C90.412 9.57465 90.7304 9.60006 91.0754 9.71676C91.4203 9.83345 91.7772 10.0444 92.1461 10.3496C92.515 10.6548 92.7866 10.9639 92.9609 11.2769C93.1316 11.5869 93.2072 11.8874 93.1875 12.1785C93.1679 12.4696 93.0566 12.7361 92.8538 12.978ZM92.3005 12.5202C92.4049 12.3957 92.4436 12.259 92.4168 12.1102C92.3893 11.9549 92.3045 11.7884 92.1625 11.6106C92.0198 11.4262 91.8249 11.2318 91.5778 11.0274C91.3271 10.8199 91.0994 10.6647 90.8947 10.5616C90.6929 10.4549 90.5145 10.4037 90.3593 10.4079C90.2036 10.4056 90.0735 10.4667 89.9691 10.5912C89.8677 10.7121 89.8307 10.8503 89.8582 11.0056C89.8821 11.1579 89.9635 11.3248 90.1026 11.5062C90.2447 11.684 90.4411 11.8766 90.6918 12.084C90.9389 12.2885 91.1651 12.4455 91.3704 12.5551C91.5751 12.6582 91.7568 12.7092 91.9156 12.708C92.0707 12.7038 92.199 12.6412 92.3005 12.5202Z" fill="white"/>
<path d="M94.8652 10.3236L92.6982 7.81445L92.3376 8.50613L91.7322 8.1252L92.2147 6.88129L92.7825 6.39743L95.6187 9.68149L94.8652 10.3236Z" fill="white"/>
<path d="M96.4274 6.81605L97.1258 4.14059L97.5368 4.65659L96.8384 7.33204L96.4274 6.81605ZM98.0259 7.7064C97.7445 7.85128 97.4586 7.90198 97.1682 7.85852C96.8778 7.81506 96.5986 7.67721 96.3304 7.44497C96.0601 7.20861 95.8144 6.8787 95.5935 6.45525C95.3725 6.03179 95.2416 5.64017 95.2009 5.2804C95.1601 4.92062 95.2034 4.60624 95.3308 4.33725C95.4581 4.06825 95.6625 3.86132 95.9439 3.71645C96.2252 3.57157 96.5132 3.52498 96.8079 3.57666C97.1026 3.62835 97.3862 3.77442 97.6586 4.01489C97.9311 4.25535 98.1778 4.58732 98.3988 5.01077C98.6197 5.43423 98.7495 5.82379 98.7881 6.17945C98.8246 6.53101 98.777 6.83717 98.6454 7.09794C98.5137 7.35871 98.3072 7.56153 98.0259 7.7064ZM97.6944 7.07122C97.8392 6.99665 97.9283 6.88561 97.9615 6.73809C97.9968 6.58432 97.9836 6.39812 97.922 6.17947C97.8624 5.95459 97.7586 5.70031 97.6106 5.41663C97.4604 5.12885 97.3111 4.898 97.1626 4.7241C97.0182 4.54806 96.8737 4.43209 96.729 4.37618C96.5864 4.31403 96.4426 4.32023 96.2978 4.3948C96.1572 4.46724 96.0692 4.58034 96.0339 4.7341C95.9965 4.88375 96.0066 5.06897 96.064 5.28974C96.1256 5.50839 96.2315 5.7616 96.3817 6.04939C96.5297 6.33306 96.677 6.56497 96.8235 6.74512C96.972 6.91902 97.1196 7.03599 97.2664 7.09601C97.4111 7.15192 97.5537 7.14365 97.6944 7.07122Z" fill="white"/>
<path d="M101.006 5.99435L100.003 2.84169L99.3982 3.3376L98.9916 2.75133L99.9261 1.7948L100.639 1.57078L101.953 5.69706L101.006 5.99435Z" fill="white"/>
<path d="M103.922 4.98882L103.462 1.71393L102.783 2.10271L102.48 1.45726L103.562 0.668967L104.303 0.566264L104.905 4.85252L103.922 4.98882Z" fill="white"/>
<path d="M107.322 2.87052L109.372 1.0016L109.434 1.65668L107.384 3.52559L107.322 2.87052ZM108.176 4.48103C107.861 4.45073 107.593 4.33894 107.373 4.14566C107.153 3.95238 106.994 3.68586 106.896 3.3461C106.798 3.00173 106.773 2.59215 106.819 2.11735C106.865 1.64255 106.97 1.24314 107.132 0.919111C107.295 0.595081 107.503 0.354539 107.757 0.197485C108.011 0.0404307 108.296 -0.0229479 108.612 0.00734911C108.927 0.0376461 109.194 0.154045 109.413 0.356544C109.632 0.559044 109.79 0.834784 109.887 1.18376C109.985 1.53275 110.01 1.94463 109.964 2.41943C109.918 2.89422 109.813 3.29133 109.651 3.61075C109.49 3.92556 109.282 4.15689 109.029 4.30472C108.776 4.45256 108.491 4.51133 108.176 4.48103ZM108.245 3.76884C108.408 3.78443 108.543 3.73928 108.652 3.6334C108.766 3.52335 108.856 3.35992 108.924 3.14311C108.997 2.92214 109.049 2.65262 109.08 2.33455C109.112 2.01188 109.113 1.73746 109.083 1.51129C109.058 1.28557 109 1.11019 108.91 0.985147C108.824 0.855939 108.7 0.783538 108.537 0.767944C108.38 0.752795 108.244 0.800246 108.13 0.910295C108.017 1.01573 107.924 1.17664 107.852 1.393C107.784 1.60981 107.734 1.87955 107.703 2.20223C107.672 2.52029 107.668 2.79449 107.693 3.02482C107.722 3.25099 107.782 3.42889 107.873 3.55855C107.963 3.68359 108.088 3.75369 108.245 3.76884Z" fill="white"/>
<path d="M111.502 4.63533L112.373 1.44388L111.594 1.53659L111.571 0.825045L112.878 0.521855L113.6 0.71619L112.46 4.89324L111.502 4.63533Z" fill="white"/>
<path d="M115.293 3.94537L117.914 3.01804L117.715 3.64553L115.094 4.57285L115.293 3.94537ZM115.448 5.75925C115.169 5.60923 114.967 5.40265 114.84 5.13951C114.713 4.87637 114.671 4.56938 114.714 4.21856C114.76 3.86367 114.897 3.47657 115.125 3.05724C115.354 2.63792 115.607 2.31055 115.884 2.07513C116.161 1.83971 116.447 1.69887 116.743 1.65261C117.038 1.60635 117.325 1.65823 117.604 1.80824C117.883 1.95826 118.083 2.16891 118.205 2.4402C118.328 2.71148 118.365 3.02661 118.318 3.38557C118.27 3.74453 118.132 4.13368 117.903 4.553C117.675 4.97232 117.423 5.29766 117.148 5.52901C116.876 5.75628 116.594 5.88898 116.303 5.9271C116.012 5.96522 115.727 5.90927 115.448 5.75925ZM115.791 5.13027C115.935 5.20748 116.077 5.21836 116.219 5.16292C116.367 5.1056 116.514 4.99027 116.662 4.81692C116.816 4.6417 116.97 4.41364 117.123 4.13273C117.278 3.84775 117.387 3.59543 117.448 3.37575C117.514 3.15827 117.53 2.97438 117.495 2.82406C117.467 2.67189 117.381 2.55719 117.237 2.47998C117.098 2.40497 116.955 2.39612 116.807 2.45343C116.661 2.50668 116.512 2.61887 116.361 2.79002C116.213 2.96337 116.061 3.19253 115.906 3.47751C115.753 3.75842 115.642 4.00964 115.574 4.23119C115.513 4.45087 115.498 4.6379 115.53 4.79228C115.565 4.9426 115.652 5.05526 115.791 5.13027Z" fill="white"/>
<path d="M119.525 5.98612L122.291 5.67857L121.952 6.24419L119.187 6.55173L119.525 5.98612ZM119.26 7.78721C119.023 7.5779 118.873 7.33076 118.81 7.0458C118.747 6.76084 118.777 6.45248 118.899 6.12072C119.025 5.7855 119.248 5.43976 119.567 5.0835C119.886 4.72725 120.207 4.46596 120.531 4.29966C120.855 4.13335 121.166 4.06124 121.464 4.08333C121.763 4.10542 122.03 4.22113 122.267 4.43044C122.504 4.63975 122.65 4.89034 122.707 5.18222C122.764 5.4741 122.728 5.78937 122.599 6.12806C122.47 6.46673 122.246 6.8142 121.927 7.17046C121.608 7.52672 121.288 7.78627 120.968 7.94912C120.65 8.10851 120.345 8.1737 120.053 8.14469C119.761 8.11568 119.496 7.99652 119.26 7.78721ZM119.738 7.25282C119.86 7.36056 119.996 7.40351 120.147 7.38168C120.304 7.35947 120.475 7.28074 120.658 7.1455C120.848 7.00988 121.05 6.82274 121.264 6.58408C121.481 6.34196 121.645 6.12097 121.755 5.92108C121.869 5.72428 121.926 5.54878 121.927 5.39459C121.935 5.24003 121.878 5.10887 121.756 5.00114C121.637 4.89648 121.5 4.85526 121.342 4.87747C121.188 4.89622 121.018 4.97168 120.831 5.10385C120.647 5.23909 120.447 5.42777 120.23 5.66988C120.016 5.90854 119.851 6.128 119.734 6.32826C119.623 6.52814 119.566 6.70691 119.562 6.86456C119.561 7.01875 119.62 7.14817 119.738 7.25282Z" fill="white"/>
<path d="M121.876 9.88179L124.471 7.81268L123.787 7.43191L124.19 6.84341L125.426 7.36327L125.894 7.94286L122.497 10.651L121.876 9.88179Z" fill="white"/>
<path d="M125.367 11.6947L128.035 12.478L127.503 12.8688L124.834 12.0854L125.367 11.6947ZM124.418 13.252C124.282 12.9678 124.24 12.6822 124.294 12.3953C124.347 12.1084 124.495 11.8357 124.738 11.5772C124.984 11.3167 125.324 11.0839 125.758 10.8787C126.191 10.6735 126.589 10.5567 126.953 10.5284C127.316 10.5 127.631 10.5535 127.897 10.689C128.163 10.8245 128.365 11.0344 128.501 11.3186C128.638 11.6029 128.675 11.8905 128.613 12.1813C128.551 12.4722 128.395 12.7489 128.144 13.0114C127.893 13.2738 127.551 13.5076 127.118 13.7128C126.684 13.918 126.288 14.0338 125.929 14.0602C125.574 14.0846 125.268 14.0271 125.01 13.8876C124.752 13.7481 124.555 13.5362 124.418 13.252ZM125.068 12.9442C125.139 13.0905 125.247 13.1827 125.395 13.2206C125.548 13.2608 125.736 13.254 125.958 13.2002C126.186 13.1485 126.445 13.054 126.736 12.9165C127.03 12.7771 127.267 12.6366 127.447 12.4949C127.629 12.3575 127.75 12.2179 127.811 12.0762C127.879 11.9366 127.877 11.7936 127.807 11.6473C127.739 11.5052 127.628 11.4141 127.474 11.3739C127.325 11.3317 127.139 11.3355 126.915 11.3851C126.693 11.4389 126.434 11.5356 126.14 11.675C125.85 11.8125 125.611 11.9509 125.425 12.0903C125.245 12.2319 125.123 12.3746 125.058 12.5184C124.997 12.6601 125 12.8021 125.068 12.9442Z" fill="white"/>
<path d="M126.276 16.7434L129.481 15.8547L129.003 15.2373L129.606 14.8536L130.537 15.8144L130.738 16.5303L126.543 17.6935L126.276 16.7434Z" fill="white"/>
<path d="M128.557 19.7325L130.703 21.4915L130.059 21.6438L127.913 19.8848L128.557 19.7325ZM127.07 20.7965C127.057 20.4818 127.131 20.2029 127.293 19.9597C127.456 19.7164 127.699 19.523 128.024 19.3795C128.354 19.2358 128.758 19.1539 129.238 19.1336C129.718 19.1134 130.13 19.1609 130.475 19.2761C130.821 19.3913 131.089 19.5631 131.281 19.7914C131.473 20.0197 131.575 20.2912 131.589 20.6058C131.602 20.9205 131.523 21.1996 131.352 21.4432C131.18 21.6869 130.927 21.8806 130.593 22.0245C130.259 22.1684 129.852 22.2505 129.372 22.2707C128.893 22.291 128.482 22.2434 128.142 22.128C127.806 22.0124 127.546 21.8402 127.364 21.6115C127.182 21.3828 127.084 21.1111 127.07 20.7965ZM127.79 20.7661C127.797 20.9281 127.86 21.0552 127.981 21.1474C128.106 21.2441 128.282 21.3109 128.507 21.3477C128.737 21.389 129.013 21.4028 129.335 21.3893C129.66 21.3755 129.934 21.3385 130.155 21.2782C130.377 21.2225 130.544 21.1413 130.656 21.0346C130.773 20.9323 130.827 20.8002 130.821 20.6382C130.814 20.4809 130.748 20.3539 130.622 20.2572C130.502 20.1603 130.328 20.0912 130.103 20.0497C129.877 20.0129 129.602 20.0013 129.276 20.0151C128.954 20.0286 128.681 20.0633 128.455 20.1192C128.233 20.1796 128.064 20.2632 127.948 20.3701C127.836 20.4768 127.783 20.6088 127.79 20.7661Z" fill="white"/>
<path d="M227.111 32.5699C227.111 33.6332 227.137 34.4761 227.19 35.0985C227.268 35.695 227.411 36.1618 227.62 36.499C227.855 36.8361 228.194 37.0566 228.638 37.1603C229.108 37.264 229.734 37.3418 230.517 37.3937V38.9498H218.186V37.3937C218.969 37.3418 219.596 37.264 220.065 37.1603C220.535 37.0566 220.887 36.8491 221.122 36.5379C221.357 36.2267 221.501 35.7858 221.553 35.2152C221.631 34.6187 221.67 33.8277 221.67 32.8422V16.8535C221.67 15.2974 221.644 14.0785 221.592 13.1967C221.566 12.289 221.501 11.6017 221.396 11.1349C221.318 10.7977 221.227 10.5384 221.122 10.3569C221.018 10.1494 220.848 9.99377 220.613 9.89003C220.405 9.76036 220.105 9.68256 219.713 9.65662C219.348 9.60475 218.878 9.57882 218.304 9.57882V8.13945L227.033 6.66117V21.016H227.19C227.999 19.9527 228.899 19.1746 229.891 18.6819C230.908 18.1891 232.122 17.9427 233.531 17.9427C236.088 17.9427 238.072 18.7208 239.481 20.2769C240.159 21.0549 240.694 22.0015 241.086 23.1167C241.477 24.206 241.673 25.3471 241.673 26.5401V32.5699C241.673 33.6591 241.699 34.515 241.751 35.1374C241.803 35.7339 241.934 36.2007 242.143 36.5379C242.377 36.8491 242.717 37.0566 243.16 37.1603C243.604 37.264 244.217 37.3418 245 37.3937V38.9498H232.748V37.3937C233.531 37.3678 234.144 37.3029 234.588 37.1992C235.057 37.0695 235.41 36.8491 235.645 36.5379C235.906 36.2267 236.062 35.7858 236.114 35.2152C236.193 34.6187 236.232 33.8277 236.232 32.8422V28.0572C236.232 25.3082 235.932 23.3631 235.331 22.222C234.731 21.0808 233.7 20.5103 232.239 20.5103C230.673 20.5103 229.434 21.0808 228.52 22.222C228.077 22.8185 227.725 23.5576 227.464 24.4394C227.229 25.3211 227.111 26.3067 227.111 27.3959V32.5699Z" fill="white"/>
<path d="M204.767 20.4714V18.7208C206.332 18.2799 207.637 17.6186 208.681 16.7368C209.751 15.8291 210.547 14.7917 211.069 13.6246H213.065V18.3318H217.567V20.4714H213.065V32.4143C213.065 34.0222 213.235 35.1633 213.574 35.8376C213.939 36.5119 214.54 36.8491 215.375 36.8491C216.392 36.8491 217.162 36.3823 217.684 35.4486L218.506 36.5768C217.775 38.4181 216.053 39.3388 213.339 39.3388C211.538 39.3388 210.129 38.9239 209.112 38.094C208.12 37.264 207.624 36.097 207.624 34.5928V20.4714H204.767Z" fill="white"/>
<path d="M195.951 27.8627C193.759 28.8483 192.102 29.7689 190.979 30.6248C189.883 31.4547 189.335 32.3235 189.335 33.2312C189.335 33.9833 189.544 34.5798 189.962 35.0207C190.379 35.4616 190.901 35.682 191.527 35.682C192.154 35.682 192.741 35.5783 193.289 35.3708C193.837 35.1374 194.307 34.8392 194.698 34.4761C195.09 34.113 195.39 33.6851 195.598 33.1923C195.833 32.6736 195.951 32.129 195.951 31.5584V27.8627ZM195.951 25.8009V24.1671C195.951 22.6628 195.677 21.5736 195.129 20.8993C194.607 20.1991 193.785 19.8489 192.663 19.8489C191.906 19.8489 191.332 20.0564 190.94 20.4714C190.549 20.8604 190.183 21.5217 189.844 22.4554C189.609 23.1037 189.27 23.6095 188.826 23.9725C188.409 24.3356 187.822 24.5172 187.065 24.5172C186.334 24.5172 185.773 24.2967 185.382 23.8558C184.99 23.4149 184.795 22.7925 184.795 21.9885C184.795 20.7437 185.473 19.7582 186.83 19.032C188.213 18.3058 190.288 17.9427 193.054 17.9427C195.977 17.9427 198.064 18.4744 199.317 19.5377C200.57 20.5751 201.196 22.3257 201.196 24.7895V33.309C201.196 35.5135 201.64 36.6157 202.527 36.6157C203.023 36.6157 203.479 36.4471 203.897 36.11L204.484 37.2381C204.119 37.8865 203.545 38.4052 202.762 38.7942C202.005 39.1573 201.144 39.3388 200.178 39.3388C198.978 39.3388 198.064 38.9757 197.438 38.2496C196.812 37.5234 196.499 36.499 196.499 35.1763H196.303C195.546 36.5249 194.568 37.5493 193.367 38.2496C192.167 38.9498 190.797 39.2999 189.257 39.2999C187.613 39.2999 186.295 38.8461 185.304 37.9383C184.312 37.0047 183.816 35.7987 183.816 34.3205C183.816 33.1793 184.325 32.116 185.343 31.1305C186.36 30.1191 188.057 29.1335 190.431 28.174L195.951 25.8009Z" fill="white"/>
<path d="M161.601 31.6751L170.643 8.99529H182.073V10.5514C181.212 10.5514 180.507 10.6421 179.959 10.8237C179.437 10.9793 179.033 11.2775 178.746 11.7184C178.459 12.1593 178.263 12.7688 178.159 13.5468C178.08 14.2989 178.041 15.2585 178.041 16.4256V31.5195C178.041 32.8163 178.093 33.8407 178.198 34.5928C178.302 35.3449 178.511 35.9284 178.824 36.3434C179.137 36.7583 179.581 37.0306 180.155 37.1603C180.755 37.29 181.538 37.3678 182.504 37.3937V38.9498H167.785V37.3937C168.751 37.3678 169.521 37.29 170.095 37.1603C170.695 37.0047 171.152 36.7324 171.465 36.3434C171.804 35.9543 172.026 35.4097 172.13 34.7095C172.235 33.9833 172.287 33.0108 172.287 31.7918V13.5857H172.091L161.562 39.3388H158.665L147.783 13.5857H147.626V31.5195C147.626 32.8163 147.679 33.8407 147.783 34.5928C147.887 35.3449 148.096 35.9284 148.409 36.3434C148.722 36.7583 149.166 37.0306 149.74 37.1603C150.34 37.29 151.123 37.3678 152.089 37.3937V38.9498H140.033V37.3937C140.998 37.3678 141.781 37.29 142.381 37.1603C142.981 37.0047 143.438 36.7324 143.751 36.3434C144.09 35.9543 144.312 35.4097 144.417 34.7095C144.521 33.9833 144.573 33.0108 144.573 31.7918V16.1532C144.573 15.064 144.521 14.1563 144.417 13.4301C144.312 12.7039 144.117 12.1334 143.829 11.7184C143.542 11.2775 143.125 10.9793 142.577 10.8237C142.055 10.6421 141.35 10.5514 140.463 10.5514V8.99529H152.324L161.444 31.6751H161.601Z" fill="white"/>
</svg>
