<svg width="679" height="200" viewBox="0 0 679 200" fill="none" xmlns="http://www.w3.org/2000/svg">
<path d="M0.000610352 46.1538C0.000610352 20.6638 20.6644 0 46.1545 0H153.847C179.337 0 200.001 20.6638 200.001 46.1538V153.846C200.001 179.336 179.337 200 153.847 200H46.1545C20.6644 200 0.000610352 179.336 0.000610352 153.846V46.1538Z" fill="#28282E"/>
<path d="M61.5364 67.0557L89.5084 83.2173V110.568L61.5364 94.4061V67.0557Z" fill="#EAEAEA"/>
<path d="M110.643 38.4619L137.993 54.0019L89.5084 83.2172L61.5364 67.0555L110.643 38.4619Z" fill="white"/>
<path d="M137.999 132.945L110.027 116.783L110.027 89.4329L137.999 105.595L137.999 132.945Z" fill="#EAEAEA"/>
<path d="M88.8922 161.539L61.5418 145.999L110.027 116.784L137.999 132.945L88.8922 161.539Z" fill="white"/>
<path d="M250.03 115.848C249.383 134.606 259.474 149.354 284.571 149.354C309.927 149.354 317.948 133.959 317.948 118.694C317.948 107.568 313.42 99.2889 295.567 91.2682C278.361 83.5061 275.774 82.3418 275.774 77.9433C275.774 73.4155 279.914 70.44 284.183 70.44C291.686 70.44 292.462 76.5203 292.98 79.7545H317.171C316.783 56.7271 298.154 50 284.959 50C268.917 50 251.453 60.22 251.453 79.4957C251.453 97.4778 268.141 104.205 274.868 106.922C289.616 113.131 293.627 114.684 293.627 119.729C293.627 124.127 290.134 128.914 284.312 128.914C281.207 128.914 274.351 126.974 274.351 115.848H250.03Z" fill="#28282E"/>
<path d="M328.269 68.1094H349.744V51.8091H328.269V68.1094ZM328.269 147.541H349.744V75.742H328.269V147.541Z" fill="#28282E"/>
<path d="M434.865 119.081C436.547 105.886 433.83 94.3722 424.775 84.6697C418.047 77.5545 408.604 73.2853 397.607 73.2853C375.744 73.2853 359.962 91.7849 359.962 111.837C359.962 133.182 377.426 149.871 397.996 149.871C405.369 149.871 412.485 147.672 418.436 143.402C424.516 139.263 429.561 133.053 433.054 125.032H411.062C408.474 128.784 404.852 131.759 397.996 131.759C389.587 131.759 382.342 126.714 381.437 119.081H434.865ZM381.695 102.781C382.213 99.4175 386.611 91.3968 397.737 91.3968C408.862 91.3968 413.261 99.4175 413.778 102.781H381.695Z" fill="#28282E"/>
<path d="M445.346 147.542H466.821V108.473C466.821 101.099 468.502 93.4666 479.111 93.4666C488.684 93.4666 490.365 100.452 490.365 108.344V147.542H511.84V102.652C511.84 92.9492 509.382 73.2853 485.191 73.2853C472.383 73.2853 467.856 79.8831 465.398 83.376V75.7433H445.346V147.542Z" fill="#28282E"/>
<path d="M522.322 147.542H543.797V108.473C543.797 101.099 545.478 93.4666 556.086 93.4666C565.66 93.4666 567.341 100.452 567.341 108.344V147.542H588.816V102.652C588.816 92.9492 586.358 73.2853 562.167 73.2853C549.359 73.2853 544.831 79.8831 542.373 83.376V75.7433H522.322V147.542Z" fill="#28282E"/>
<path d="M678.082 75.7433H656.607V83.376C653.761 78.9775 647.163 73.2853 635.391 73.2853C616.245 73.2853 599.297 88.0332 599.297 111.578C599.297 132.147 612.622 150 635.391 150C643.8 150 652.726 146.766 656.607 139.78V147.542H678.082V75.7433ZM620.772 111.837C620.772 103.687 626.206 93.3373 638.496 93.3373C647.552 93.3373 652.467 98.3826 654.796 103.299C656.219 106.274 656.866 109.508 656.607 112.742C656.348 115.977 655.443 119.081 653.632 121.927C650.915 126.326 646.258 129.948 638.625 129.948C625.688 129.948 620.772 118.564 620.772 111.966V111.837Z" fill="#28282E"/>
</svg>
