<?xml version="1.0" encoding="utf-8"?>
<!-- Generator: Adobe Illustrator 22.0.0, SVG Export Plug-In . SVG Version: 6.00 Build 0)  -->
<svg version="1.1" id="Layer_1" xmlns="http://www.w3.org/2000/svg" xmlns:xlink="http://www.w3.org/1999/xlink" x="0px" y="0px"
	 viewBox="0 0 1500 1500" style="enable-background:new 0 0 1500 1500;" xml:space="preserve">
<style type="text/css">
	.st0{fill:#020202;}
	.st1{fill:#FCFCFC;}
	.st2{fill:#EB5766;}
</style>
<rect x="-1" y="-1" class="st0" width="1501" height="1501"/>
<g>
	<g>
		<path class="st1" d="M558.6,664.3c30.1,0,60.2,0,90.4,0c16.2,0,32.5,0,48.7,0c6.5,0,12.9,0,19.4,0c6.3,0,16.1-3.7,17.8,4.8
			c1.5,7.5,0,17.2,0,24.9c0,9.7,0.3,19.5,0,29.3c-0.3,11-10.7,8.6-18.9,8.6c-9.4,0-18.9,0-28.3,0c-18.9,0-37.8,0-56.7,0
			c-42.5,0-84.9,0-127.4,0c-16.8,0-33.6,0-50.4,0c-5.8,0-11.6,0-17.4,0c-2.1,0-6.8,0.7-8.3-0.9c-3.9-4.2,5.8-12.4,8.3-15.5
			c4.5-5.7,9-11.5,13.6-17.2c9-11.5,18.1-22.9,27.1-34.4c27.4-34.7,54.8-69.5,82.2-104.2c11.4-14.4,22.8-28.9,34.2-43.3
			c4.1-5.1,8.1-10.3,12.2-15.4c1.5-1.9,5.4-5.3,6.1-7.5c1.9-5.9-7.3-3.8-11.7-4.1c-4.6-0.3-9.2-1-13.8-1c-21.1,0-42.1,0-63.2,0
			c-12.3,0-24.2-0.4-36.5,0.8c-7.4,0.7-13.1,1.6-18.5-4.9c-8.3-9.9-6.6-28.4-5.4-40.1c1.9-18.6,5.6-22.1,22.5-22.8
			c28.9-1.1,58.1,0,87,0c29.2,0,58.5,0,87.7,0c14.6,0,29.2,0,43.8,0c7.1,0,14.2,0,21.3,0c5.7,0,13.4-1.7,18.3,2
			c5.7,4.3-3.2,11.9-6.4,15.9c-4.6,5.8-9.1,11.6-13.7,17.3c-12.1,15.3-24.1,30.5-36.2,45.8c-27.3,34.6-54.6,69.1-81.9,103.7
			c-15.2,19.2-30.4,38.5-45.6,57.7C558.8,664,558.7,664.2,558.6,664.3z"/>
		<path class="st1" d="M863.6,198.2c4.9,4.8,4.1,12.2,4.1,23.5c0,36.9,0,73.7,0,110.6c0,52.8,0,105.6,0,158.4
			c0,17.1,9.5,21.3,21.1,9.2l19.1-19.8c10.5-11,21.1-21.9,31.6-32.9c10.1-10.5,18.7-23.8,33.7-25.7c10.5-1.4,22.1,0,32.7,0
			c11.4,0,22.9,0,34.3,0c10.4,0,12.9,1.6,6.2,10c-4.8,6-11,11.2-16.4,16.6c-14.4,14.6-28.9,29.2-43.3,43.8
			c-19.7,20-39.4,39.9-59.2,59.9c41.4,53.9,83.1,107.5,124.1,161.7c18.8,24.8-18.9,18.4-33.5,18.4c-23.2,0-40.8,0.6-55.8-19.4
			c-11.2-14.9-22.3-29.8-33.5-44.8c-10-13.4-20.1-26.8-30.1-40.2c-5.1-6.8-18.3-33.8-28.7-23.8c-5.1,4.8-2.2,24-2.2,31.1
			c0,13.4,0,26.7,0,40.1c0,13.9,8.7,50-7.3,57c-7.9,3.4-21.3,0.6-29.5,0.4c-8.2-0.2-18.6,1.5-25.9-3.4c-10.1-6.9-5.9-24-5.9-34.9
			c0-32.4,0-64.8,0-97.1c0-84.9,0-169.8,0-254.7c0-27,0-54,0-81.1c0-10.3,0-20.6,0-30.9c0-8.8-2.6-24.2,1.6-31.5
			c7.3-12.5,39.4-8,50.3-5.8C857.2,194.1,861.1,195.8,863.6,198.2z"/>
	</g>
	<path class="st1" d="M201.8,860.9c11-10.2,25.9-4.8,33.8,10.5c16,31.1,17,82.4,24.2,117.3c3.4,17,6.6,33.9,9.4,51
		c2.8,17,5.4,34.9,7.7,53.6c0.3-2.4,0.5-4.3,0.6-5.7s0.3-2.3,0.4-2.9l6-38.1l5.4-36.2c0,0,4.7-23.9,4.7-23.9
		c4.8-25.8,10.6-135.6,43.6-131.1c37.3,5.2,32.6,158.9,35.2,189.4c2.3,25.9,4,51.8,6.1,77.7c0.9,11,8.6,39.4,4.2,49.4
		c-5.9,13.4-31.3,16.1-39.8,3.4c-4.4-6.5-1.7-31.5-2.3-39.8c-1.3-20.9-2.7-41.8-4-62.7c-0.3-5.7-0.5-10.7-0.7-14.9
		c-0.2-4.2-0.3-7.6-0.3-10.3l-1.9-44.6l-1-40.9c0-0.3,0-0.9-0.1-1.8c-0.1-0.9-0.2-2.2-0.3-3.8l-1,6.7c-1.1,7.9-2.1,14.8-3,20.7
		c-0.9,5.9-1.7,10.8-2.4,14.9l-5.4,30.4l-2.1,11.4c-4.6,25-9.2,50-13.8,75c-2.7,14.6-18.3,103.3-44.9,54.5
		c-5.9-10.9-6.2-31.2-8.7-43.5c-4.4-22.1-8.8-44.2-13.3-66.2c-3.4-16.5-6.5-33.3-9.2-50.3c-2.7-17-5.1-34.9-7.3-53.6
		c-1.8,33.7-3.6,67.5-5.5,101.2c-1.5,27.6,8.8,124.7-28.4,129c-29.7,3.5-15.9-39.3-14.5-57c2.6-32.5,5.1-65.1,7.7-97.6
		c2.9-36.9,5.8-73.8,8.7-110.7c1.3-16-1.7-39.1,6.5-53.4C198,865.1,199.8,862.7,201.8,860.9z"/>
	<path class="st2" d="M683.4,937.2c-3.9-23-10.2-40.9-18.6-53.1c-13-18.7-32.7-28-59.4-28c-29.5,0-50.6,11.8-63.2,35.9
		c-12.3,24-18.6,65-18.6,122.7c0,65,6.3,109.8,19,135.3c12.6,25.8,34.1,38.8,65,38.8c29.5,0,50.2-11.8,62.9-36.2
		c12.6-24,18.6-64.6,18.6-122C689.1,989.6,687.3,958.4,683.4,937.2z"/>
	<path class="st1" d="M845.5,862.5c3-2.2,7.7-3.9,15.1-5.6c5-1.1,10.3-2.3,15.2-0.9c15.4,4.4,25.7,64.2,30.5,79
		c5.8,18.1,11.5,36.2,17.4,54.2c10.4,31.5,19.7,64.8,28.1,99.8c0.3,1.3,2.2,1,2-0.4c-2.1-17.7-2.6-33.7-3.8-48.8
		c-1.6-20.8-3.7-40.9-3.7-59.2c0-27.6-15.1-121.2,19.5-124.9c33.9-3.6,23.6,51.3,23.6,73.4c0,37,2.1,72,2.1,109
		c0,30.5,16.6,141.5-24.8,147.3c-35.2,4.9-55.9-116.4-65.3-146c-4.4-13.9-8.5-28.2-12.5-42.9c-3.9-14.6-7.5-30-10.8-46.1
		c0,0,0,0,0-0.1c-0.3-2-0.8-4.4-1.3-7.3c-0.5-2.9-1.4-3-1.1-0.3s0.5,4.9,0.6,6.8l2.3,33.8l2.3,41.2c0.1,2.3,0.2,5.1,0.3,8.4
		c0.1,3.3,0.1,7,0.1,11.2c0.4,28.6,17.5,137.3-17.1,143c-39.9,6.5-22.8-116.2-22.8-142.4c0-36.9,0-73.9,0-110.8
		c0-14.5,0.3-29.1,0-43.6C840.7,874.9,838.9,867.4,845.5,862.5z"/>
	<path class="st1" d="M1177.8,861.9c3.3-3.6,7.6-6.2,13.3-7.5c33.8-7.6,21.8,65.4,21.8,85.7c0,25.2,0,50.5,0,75.7
		c12.7-34.3,20.7-70.3,34.2-104.3c5.9-14.9,12.5-36,24.5-47c20.8-19.2,38.6-5.1,33.2,18.7c-4.3,18.8-14.8,38.1-21.8,56
		c-4.5,11.5-34.3,65.1-29.8,76.7c14.4,36.5,28.7,73,43.1,109.6c5,12.8,28.3,51.8,12.1,61.1c-13.1,7.5-39.3-18.5-45.6-28.6
		c-12.5-20.1-16.5-46-24.3-68.3c-8.5-24.6-17.1-49.1-25.6-73.7c0,31.4,0,62.8,0,94.3c0,17.7,4.3,42.1,0,59.3
		c-4.5,17.9-25,26.8-38.9,8c-7.1-9.6-6.5-27.8-7-39.2c-1.4-30.2,3-60.1,3-90.2c0-35.9,0-71.9,0-107.8
		C1170.1,917.6,1162.3,878.8,1177.8,861.9z"/>
</g>
</svg>
