<svg width="164" height="36" viewBox="0 0 164 36" fill="none" xmlns="http://www.w3.org/2000/svg">
<g clip-path="url(#clip0_394_3053)">
<path d="M51.8628 23.1987C50.8967 23.8449 49.8178 24.1661 48.6216 24.1661C47.0367 24.1661 45.7193 23.6126 44.6655 22.5058C43.6115 21.3991 43.0845 19.9122 43.0845 18.1717C43.0845 16.4313 43.6115 14.9951 44.6528 13.8714C45.6942 12.7478 47.0199 12.1817 48.6216 12.1817C49.8178 12.1817 50.8758 12.5197 51.7875 13.1955C52.6992 13.8714 53.3056 14.6825 53.6109 15.6245L55.6477 14.5473C55.0621 13.0307 54.1253 11.886 52.8498 11.1045C51.5742 10.323 50.1607 9.93433 48.6216 9.93433C46.3299 9.93433 44.4228 10.7201 42.9006 12.2872C41.3783 13.8544 40.6172 15.7934 40.6172 18.1717C40.6172 20.55 41.3741 22.5144 42.8838 24.0732C44.3936 25.6318 46.3048 26.4092 48.6175 26.4092H48.6259C50.2904 26.4092 51.7666 25.9994 53.0672 25.1798C54.3678 24.3603 55.3214 23.093 55.9278 21.3695L53.9789 20.3853C53.5314 21.6146 52.8247 22.5523 51.8628 23.1987Z" fill="#1E232B"/>
<path d="M64.894 9.93433C62.5396 9.93433 60.6074 10.7032 59.0977 12.2408C57.5879 13.7784 56.8311 15.7554 56.8311 18.1717C56.8311 20.5881 57.5879 22.565 59.0977 24.1027C60.6074 25.6404 62.5396 26.4092 64.894 26.4092C67.2485 26.4092 69.1808 25.6404 70.6905 24.1027C72.2003 22.565 72.9571 20.5881 72.9571 18.1717C72.9571 15.7554 72.2003 13.7784 70.6905 12.2408C69.1766 10.7032 67.2486 9.93433 64.894 9.93433ZM68.9298 22.5523C67.8843 23.6676 66.5419 24.2252 64.8983 24.2252C63.2546 24.2252 61.9122 23.6676 60.8667 22.5523C59.8212 21.4329 59.2985 19.9756 59.2985 18.1717H59.3068C59.3068 16.4102 59.8338 14.9612 60.8876 13.8249C61.9416 12.6886 63.2799 12.1183 64.9025 12.1183C66.5251 12.1183 67.8634 12.6886 68.9172 13.8249C69.9712 14.9612 70.4981 16.3679 70.4981 18.1717C70.4981 19.9756 69.9753 21.4371 68.9298 22.5523Z" fill="#1E232B"/>
<path d="M92.3601 9.93872C90.1101 9.93872 88.5878 10.9526 87.7974 12.9802H87.1282C86.7393 12.1015 86.1245 11.375 85.2714 10.8005C84.4224 10.226 83.3895 9.93872 82.231 9.93872C81.0726 9.93872 80.1066 10.2302 79.3245 10.8131C78.5424 11.3961 78.0197 12.1185 77.7562 12.9802H77.1455V10.3358H74.7451V26.008H77.1498V16.7905C77.1498 15.4388 77.5304 14.332 78.2915 13.4703C79.0526 12.6127 80.0145 12.1818 81.1687 12.1818C82.3231 12.1818 83.2891 12.5535 84.0586 13.3012C84.8281 14.0489 85.2128 15.0459 85.2128 16.2963V26.008H87.6175V16.7905C87.6175 15.3374 88.0066 14.2053 88.776 13.3942C89.5455 12.5874 90.4697 12.1818 91.6659 12.1818C92.862 12.1818 93.8197 12.5535 94.5389 13.2886C95.2582 14.0236 95.6179 15.0417 95.6179 16.3301V26.0122H98.0185V15.84C98.0185 14.1799 97.5083 12.7816 96.4837 11.6453C95.459 10.509 94.0831 9.93872 92.3601 9.93872Z" fill="#1E232B"/>
<path d="M118.065 9.93872C115.815 9.93872 114.293 10.9526 113.503 12.9802H112.834C112.445 12.1015 111.83 11.375 110.976 10.8005C110.128 10.226 109.095 9.93872 107.936 9.93872C106.778 9.93872 105.812 10.2302 105.03 10.8131C104.247 11.3961 103.725 12.1185 103.461 12.9802H102.851V10.3358H100.45V26.008H102.855V16.7905C102.855 15.4388 103.236 14.3277 103.997 13.4703C104.758 12.6127 105.72 12.1818 106.874 12.1818C108.028 12.1818 108.994 12.5535 109.764 13.3012C110.533 14.0489 110.918 15.0459 110.918 16.2963V26.008H113.323V16.7905C113.323 15.3374 113.712 14.2053 114.482 13.3942C115.25 12.5874 116.175 12.1818 117.371 12.1818C118.567 12.1818 119.524 12.5535 120.244 13.2886C120.963 14.0236 121.323 15.0417 121.323 16.3301V26.0122H123.724V15.84C123.724 14.1799 123.214 12.7816 122.188 11.6453C121.164 10.509 119.788 9.93872 118.065 9.93872Z" fill="#1E232B"/>
<path d="M133.77 9.93433C131.415 9.93433 129.483 10.7032 127.974 12.2408C126.464 13.7784 125.707 15.7554 125.707 18.1717C125.707 20.5881 126.464 22.565 127.974 24.1027C129.483 25.6404 131.415 26.4092 133.77 26.4092C136.124 26.4092 138.056 25.6404 139.566 24.1027C141.077 22.565 141.834 20.5881 141.834 18.1717C141.834 15.7554 141.077 13.7784 139.566 12.2408C138.053 10.7032 136.124 9.93433 133.77 9.93433ZM137.805 22.5523C136.76 23.6676 135.418 24.2252 133.774 24.2252C132.131 24.2252 130.788 23.6718 129.742 22.5523C128.697 21.4329 128.175 19.9756 128.175 18.1717H128.183C128.183 16.4102 128.71 14.9612 129.764 13.8249C130.818 12.6886 132.155 12.1183 133.779 12.1183C135.401 12.1183 136.74 12.6886 137.794 13.8249C138.848 14.9612 139.374 16.3679 139.374 18.1717C139.374 19.9756 138.851 21.4371 137.805 22.5523Z" fill="#1E232B"/>
<path d="M155.735 11.6623C154.701 10.5132 153.292 9.93872 151.506 9.93872C150.327 9.93872 149.345 10.2302 148.553 10.8131C147.763 11.3961 147.237 12.1185 146.973 12.9802H146.362V10.3358H143.962V26.008H146.362V16.7905C146.362 15.4598 146.776 14.3574 147.609 13.4871C148.44 12.6169 149.507 12.1818 150.804 12.1818C151.937 12.1818 152.903 12.5705 153.693 13.3477C154.488 14.1293 154.882 15.122 154.882 16.3301V26.0122H157.285V15.84C157.285 14.2011 156.767 12.8113 155.735 11.6623Z" fill="#1E232B"/>
<path d="M158.981 10.1244H159.549V11.7H159.75V10.1244H160.324V9.93433H158.981V10.1244Z" fill="#1E232B"/>
<path d="M162.011 9.93872L161.493 11.5355H161.443L160.937 9.93872H160.544V11.7003H160.74V10.1035H160.786L161.297 11.7003H161.648L162.159 10.1035H162.209V11.7003H162.405V9.93872H162.011Z" fill="#1E232B"/>
<path d="M34.0683 15.2282C32.4303 9.76393 26.7226 6.67353 21.3139 8.31864L12.201 11.1073L9.34119 7.875C3.93799 9.5385 0.886506 15.3093 2.52446 20.7736C4.16242 26.2378 9.87013 29.3282 15.2789 27.6831L24.3974 24.8927L27.2571 28.125C32.6568 26.4592 35.7057 20.6905 34.0683 15.2282ZM26.1213 24.3562L24.3911 24.8856L21.5314 21.6533L14.1486 23.9125C10.8009 24.927 7.26992 23.0135 6.25618 19.6316C5.24243 16.2498 7.12923 12.6784 10.4715 11.6456L12.2072 11.1144L15.067 14.3467L22.4441 12.0892C25.7919 11.0748 29.3228 12.9883 30.3366 16.3701C31.3503 19.752 29.4635 23.3234 26.1213 24.3562Z" fill="#1E232B"/>
</g>
<defs>
<clipPath id="clip0_394_3053">
<rect width="160.322" height="20.25" fill="white" transform="translate(2.08203 7.875)"/>
</clipPath>
</defs>
</svg>
