<?xml version="1.0" encoding="UTF-8" standalone="no"?>
<!--

Designed by Jaime López, 2024

https://jaim3.com

-->

<svg
   viewBox="0 0 1024 1024"
   version="1.1"
   id="svg3"
   sodipodi:docname="mono-white2.svg"
   inkscape:version="1.4 (e7c3feb100, 2024-10-09)"
   xmlns:inkscape="http://www.inkscape.org/namespaces/inkscape"
   xmlns:sodipodi="http://sodipodi.sourceforge.net/DTD/sodipodi-0.dtd"
   xmlns="http://www.w3.org/2000/svg"
   xmlns:svg="http://www.w3.org/2000/svg">
  <sodipodi:namedview
     id="namedview3"
     pagecolor="#000000"
     bordercolor="#000000"
     borderopacity="0.25"
     inkscape:showpageshadow="2"
     inkscape:pageopacity="0.0"
     inkscape:pagecheckerboard="0"
     inkscape:deskcolor="#d1d1d1"
     inkscape:zoom="0.52099609"
     inkscape:cx="461.61574"
     inkscape:cy="510.56045"
     inkscape:window-width="1239"
     inkscape:window-height="761"
     inkscape:window-x="0"
     inkscape:window-y="0"
     inkscape:window-maximized="0"
     inkscape:current-layer="svg3" />
  <defs
     id="defs1">
    <style
       id="style1">.a{fill:#fff;}</style>
  </defs>
  <path
     class="a"
     d="m 515.75502,208.96844 a 290.17338,290.17338 0 0 1 280.59866,215.48777 99.642199,99.642199 0 0 0 96.49784,73.99159 c 65.47916,0 113.22528,-61.89572 96.49784,-125.0237 C 933.96898,164.14008 742.89957,9.8256784 515.75502,9.8256784 288.61046,9.8256784 97.555224,164.21089 42.189004,373.43827 25.489905,436.60873 73.207684,498.46196 138.68684,498.46196 a 99.642199,99.642199 0 0 0 96.512,-73.99159 290.13089,290.13089 0 0 1 280.55618,-215.50193 z"
     id="path1"
     style="stroke-width:1.41638" />
  <path
     class="a"
     d="m 515.75502,276.06227 a 221.88979,221.88979 0 0 0 -221.74816,200.03508 23.809316,23.809316 0 0 0 2.23788,12.39331 24.078428,24.078428 0 0 0 8.25748,9.54639 l 0.99147,0.69402 a 23.894299,23.894299 0 0 0 27.40691,0 147.85571,147.85571 0 0 1 182.82609,10.79281 147.86987,147.86987 0 0 1 182.88274,-10.8353 23.950954,23.950954 0 0 0 27.42108,-0.0708 l 0.99146,-0.67986 a 23.894299,23.894299 0 0 0 10.4812,-21.93969 221.86147,221.86147 0 0 0 -221.77648,-199.99259 z"
     id="path2"
     style="stroke-width:1.41638" />
  <path
     class="a"
     d="m 906.44875,609.47768 c -0.12747,-1.41638 -0.28327,-2.83276 -0.45324,-4.24914 a 4.2491343,4.2491343 0 0 0 -0.085,-0.59488 c -0.24079,-1.72798 -0.52406,-3.44179 -0.86399,-5.18394 -0.33993,-1.74214 -0.70819,-3.42763 -1.14727,-5.09896 -0.43908,-1.67133 -0.87815,-3.35682 -1.41638,-5.01398 -0.25495,-0.83566 -0.52406,-1.65716 -0.80733,-2.47866 A 96.894426,96.894426 0 0 0 865.048,538.04973 l -2.19539,-1.41638 q -3.58343,-2.33702 -7.46431,-4.36244 a 94.344945,94.344945 0 0 0 -25.04156,-8.90902 c -2.45034,-0.5099 -4.95733,-0.87816 -7.46432,-1.14727 a 96.512004,96.512004 0 0 0 -12.13836,-0.79317 h -0.19829 a 97.985037,97.985037 0 0 0 -40.31012,8.65407 c -2.29453,1.03396 -4.58907,2.1529 -6.77029,3.35682 a 98.8207,98.8207 0 0 0 -25.4948,19.98509 l -0.31161,0.3541 c -0.92064,1.01979 -1.82713,2.05375 -2.71944,3.11603 a 97.517632,97.517632 0 0 0 -22.53458,58.0715 c 0,1.4872 -0.12747,2.9744 -0.12747,4.47576 0,-1.41638 0,-2.74778 -0.0992,-4.1075 a 98.013365,98.013365 0 0 0 -98.07002,-93.99085 c -1.82713,0 -3.64009,0 -5.43889,0.1558 a 98.211657,98.211657 0 0 0 -91.69632,82.95727 c -0.0992,0.60904 -0.1558,1.24641 -0.24078,1.85545 -0.12748,1.01979 -0.28328,2.02542 -0.38243,3.05938 0,0.6232 -0.0991,1.27474 -0.1558,1.92627 -0.0708,1.00563 -0.16996,2.02542 -0.22662,3.05938 v 0.18413 c -0.085,1.6005 -0.12747,3.22934 -0.12747,4.85817 a 97.517632,97.517632 0 0 0 -16.07589,-53.82236 l -0.79317,-1.21809 c -1.41638,-2.01126 -2.83276,-3.98002 -4.34829,-5.87797 a 101.80926,101.80926 0 0 0 -7.53513,-8.49827 98.764045,98.764045 0 0 0 -22.66205,-16.89739 c -2.83275,-1.50136 -5.66551,-2.83275 -8.49827,-4.12166 -1.41637,-0.6232 -2.97439,-1.14726 -4.47575,-1.75631 a 98.622407,98.622407 0 0 0 -89.43011,11.33103 c -1.41638,0.94897 -2.73361,1.92627 -4.06501,2.94607 -1.98293,1.51552 -3.9092,3.10186 -5.73633,4.75903 -1.24641,1.11893 -2.45033,2.2662 -3.64009,3.44179 -1.18976,1.1756 -2.32286,2.37952 -3.4418,3.5976 -1.41638,1.52969 -2.73361,3.11604 -4.03668,4.73071 -1.30307,1.61467 -2.54948,3.28599 -3.7534,4.97148 -1.51552,2.16706 -2.96023,4.37661 -4.24913,6.65698 a 96.922753,96.922753 0 0 0 -4.7732,9.16397 c -1.03395,2.23788 -1.99709,4.50408 -2.83275,6.8836 -0.55239,1.50136 -1.06229,3.00272 -1.54386,4.5749 a 96.412857,96.412857 0 0 0 -3.28599,14.2346 99.146467,99.146467 0 0 0 -1.0198,10.83529 c 0,1.41638 -0.12747,2.71945 -0.12747,4.09333 0,-1.50136 0,-2.98856 -0.0992,-4.46159 a 96.979409,96.979409 0 0 0 -4.24913,-24.70163 c -0.48157,-1.52969 -1.00563,-3.04522 -1.55802,-4.5749 -0.79317,-2.19539 -1.69965,-4.24914 -2.63446,-6.43036 -0.93481,-2.18122 -2.02542,-4.24914 -3.14436,-6.40203 l -0.72235,-1.27474 c -1.65716,-2.94607 -3.47013,-5.80715 -5.41057,-8.56909 -1.21808,-1.69965 -2.45033,-3.35681 -3.76756,-4.97148 -1.31723,-1.61468 -2.43617,-2.9744 -3.71091,-4.37661 l -0.31161,-0.3541 a 99.288105,99.288105 0 0 0 -21.13236,-17.46394 c -2.13873,-1.30307 -4.33411,-2.54948 -6.57199,-3.68258 -2.23788,-1.13311 -4.53241,-2.22372 -6.89776,-3.20102 a 98.863191,98.863191 0 0 0 -57.80239,-5.66551 95.803815,95.803815 0 0 0 -19.46104,6.20374 c -2.6203,1.16143 -5.16978,2.45033 -7.64844,3.82422 -2.47866,1.37388 -4.8865,2.83275 -7.20936,4.44742 -2.32286,1.61468 -4.58906,3.25767 -6.71363,5.04231 -1.21809,0.99147 -2.40784,2.01126 -3.56927,3.07354 -1.16143,1.06228 -2.29454,2.1104 -3.4418,3.22934 -0.83567,0.83567 -1.67133,1.69966 -2.4645,2.56365 a 97.503468,97.503468 0 0 0 -24.57416,49.30412 c -0.18413,0.99146 -0.33993,1.98293 -0.48157,2.97439 -0.18413,1.24642 -0.33993,2.49283 -0.48157,3.75341 -0.14164,1.26057 -0.19829,2.53531 -0.28327,3.79589 -0.085,1.26057 -0.14164,2.57781 -0.16997,3.88087 a 96.979409,96.979409 0 0 0 2.29453,23.39857 c 0,0 43.38366,198.1513 67.56123,307.28323 a 89.52926,89.52926 0 0 0 87.57466,70.22403 h 466.95153 a 89.557587,89.557587 0 0 0 87.53217,-70.13905 c 18.41292,-83.35385 46.58468,-211.19614 46.58468,-211.19614 l 21.08987,-96.07292 a 96.667805,96.667805 0 0 0 1.92627,-12.74741 c 0.12747,-1.41637 0.19829,-2.83275 0.26911,-4.24913 0,-0.86399 0,-1.71382 0.0708,-2.56364 a 91.483861,91.483861 0 0 0 -0.41075,-9.84383 z"
     id="path3"
     style="stroke-width:1.41638" />
</svg>
