<?xml version="1.0" encoding="UTF-8" standalone="no"?>
<svg
   xmlns:osb="http://www.openswatchbook.org/uri/2009/osb"
   xmlns:dc="http://purl.org/dc/elements/1.1/"
   xmlns:cc="http://creativecommons.org/ns#"
   xmlns:rdf="http://www.w3.org/1999/02/22-rdf-syntax-ns#"
   xmlns:svg="http://www.w3.org/2000/svg"
   xmlns="http://www.w3.org/2000/svg"
   xmlns:sodipodi="http://sodipodi.sourceforge.net/DTD/sodipodi-0.dtd"
   xmlns:inkscape="http://www.inkscape.org/namespaces/inkscape"
   width="300"
   height="300"
   version="1.1"
   viewBox="0 0 79.374643 79.37535"
   id="svg1002"
   sodipodi:docname="CryptPad_logo_text.svg"
   inkscape:version="1.0.2 (1.0.2+r75+1)"
   inkscape:export-xdpi="320"
   inkscape:export-ydpi="320">
  <metadata
     id="metadata1008">
    <rdf:RDF>
      <cc:Work
         rdf:about="">
        <dc:format>image/svg+xml</dc:format>
        <dc:type
           rdf:resource="http://purl.org/dc/dcmitype/StillImage" />
        <dc:title />
      </cc:Work>
    </rdf:RDF>
  </metadata>
  <defs
     id="defs1006">
    <linearGradient
       id="linearGradient1033"
       osb:paint="solid">
      <stop
         style="stop-color:#000000;stop-opacity:1;"
         offset="0"
         id="stop1031" />
    </linearGradient>
  </defs>
  <sodipodi:namedview
     pagecolor="#ffffff"
     bordercolor="#666666"
     borderopacity="1"
     objecttolerance="10"
     gridtolerance="10"
     guidetolerance="10"
     inkscape:pageopacity="0"
     inkscape:pageshadow="2"
     inkscape:window-width="1204"
     inkscape:window-height="1013"
     id="namedview1004"
     showgrid="false"
     inkscape:zoom="1.1418338"
     inkscape:cx="142.46918"
     inkscape:cy="223.06942"
     inkscape:window-x="708"
     inkscape:window-y="899"
     inkscape:window-maximized="0"
     inkscape:current-layer="svg1002"
     inkscape:document-rotation="0" />
  <g
     id="g1000"
     transform="matrix(0.55741391,0,0,0.55741391,19.072192,3.6660346)">
    <g
       transform="translate(-640.42,-172.99)"
       style="fill:#ffffff"
       id="g982">
      <g
         style="fill:#ffffff"
         id="g976">
        <path
           d="m 644.02,176.9 h 44.386 l 22.414,20.826 v 24.899 c 0,26.166 -21.414,32.228 -33.117,38.409 -12.815,-5.8945 -32.794,-12.329 -33.117,-38.409 z"
           style="fill:#ffffff"
           id="path974" />
      </g>
      <g
         style="fill:#ffffff"
         id="g980">
        <path
           d="m 644.02,176.9 h 44.386 l 22.414,20.826 v 24.899 c 0,26.166 -21.414,32.228 -33.117,38.409 -12.815,-5.8945 -32.794,-12.329 -33.117,-38.409 z"
           style="fill:#ffffff"
           id="path978" />
      </g>
    </g>
    <g
       transform="translate(-125.38,-26.449)"
       id="g998">
      <path
         style="color:#000000;font-style:normal;font-variant:normal;font-weight:normal;font-stretch:normal;font-size:medium;line-height:normal;font-family:sans-serif;font-variant-ligatures:normal;font-variant-position:normal;font-variant-caps:normal;font-variant-numeric:normal;font-variant-alternates:normal;font-variant-east-asian:normal;font-feature-settings:normal;font-variation-settings:normal;text-indent:0;text-align:start;text-decoration:none;text-decoration-line:none;text-decoration-style:solid;text-decoration-color:#000000;letter-spacing:normal;word-spacing:normal;text-transform:none;writing-mode:lr-tb;direction:ltr;text-orientation:mixed;dominant-baseline:auto;baseline-shift:baseline;text-anchor:start;white-space:normal;shape-padding:0;shape-margin:0;inline-size:0;clip-rule:nonzero;display:inline;overflow:visible;visibility:visible;isolation:auto;mix-blend-mode:normal;color-interpolation:sRGB;color-interpolation-filters:linearRGB;solid-color:#000000;solid-opacity:1;vector-effect:none;fill:#0087ff;fill-opacity:0.39608;fill-rule:nonzero;stroke-width:1;stroke-linecap:butt;stroke-linejoin:miter;stroke-miterlimit:4;stroke-dasharray:none;stroke-dashoffset:0;stroke-opacity:1;color-rendering:auto;image-rendering:auto;shape-rendering:auto;text-rendering:auto;enable-background:accumulate;stop-color:#000000;stop-opacity:1;stroke:none;opacity:1"
         d="m 128.98,30.355 0.55499,39.644 h 33.141 l 0.004,-39.644 z"
         id="path984" />
      <path
         style="color:#000000;font-style:normal;font-variant:normal;font-weight:normal;font-stretch:normal;font-size:medium;line-height:normal;font-family:sans-serif;font-variant-ligatures:normal;font-variant-position:normal;font-variant-caps:normal;font-variant-numeric:normal;font-variant-alternates:normal;font-variant-east-asian:normal;font-feature-settings:normal;font-variation-settings:normal;text-indent:0;text-align:start;text-decoration:none;text-decoration-line:none;text-decoration-style:solid;text-decoration-color:#000000;letter-spacing:normal;word-spacing:normal;text-transform:none;writing-mode:lr-tb;direction:ltr;text-orientation:mixed;dominant-baseline:auto;baseline-shift:baseline;text-anchor:start;white-space:normal;shape-padding:0;shape-margin:0;inline-size:0;clip-rule:nonzero;display:inline;overflow:visible;visibility:visible;isolation:auto;mix-blend-mode:normal;color-interpolation:sRGB;color-interpolation-filters:linearRGB;solid-color:#000000;solid-opacity:1;vector-effect:none;fill:#0087ff;fill-opacity:0.39608;fill-rule:nonzero;stroke-width:1;stroke-linecap:butt;stroke-linejoin:miter;stroke-miterlimit:4;stroke-dasharray:none;stroke-dashoffset:0;stroke-opacity:1;color-rendering:auto;image-rendering:auto;shape-rendering:auto;text-rendering:auto;enable-background:accumulate;stop-color:#000000;stop-opacity:1;stroke:none;opacity:1"
         d="m 162.69,70 0.003,43.946 c 12.825,-5.8796 32.762,-17.077 33.127,-43.157 l 0.0108,-0.78911 z"
         id="path986" />
      <path
         id="path988"
         style="color:#000000;font-style:normal;font-variant:normal;font-weight:normal;font-stretch:normal;font-size:medium;line-height:normal;font-family:sans-serif;font-variant-ligatures:normal;font-variant-position:normal;font-variant-caps:normal;font-variant-numeric:normal;font-variant-alternates:normal;font-variant-east-asian:normal;font-feature-settings:normal;font-variation-settings:normal;text-indent:0;text-align:start;text-decoration:none;text-decoration-line:none;text-decoration-style:solid;text-decoration-color:#000000;letter-spacing:normal;word-spacing:normal;text-transform:none;writing-mode:lr-tb;direction:ltr;text-orientation:mixed;dominant-baseline:auto;baseline-shift:baseline;text-anchor:start;white-space:normal;shape-padding:0;shape-margin:0;inline-size:0;clip-rule:nonzero;display:inline;overflow:visible;visibility:visible;opacity:1;isolation:auto;mix-blend-mode:normal;color-interpolation:sRGB;color-interpolation-filters:linearRGB;solid-color:#000000;solid-opacity:1;vector-effect:none;fill:#0087ff;fill-opacity:1;fill-rule:nonzero;stroke:none;stroke-width:2.10675;stroke-linecap:butt;stroke-linejoin:miter;stroke-miterlimit:4;stroke-dasharray:none;stroke-dashoffset:0;stroke-opacity:1;color-rendering:auto;image-rendering:auto;shape-rendering:auto;text-rendering:auto;enable-background:accumulate;stop-color:#000000;stop-opacity:1"
         d="M 74.025391 16.509766 L 74.09375 22.15625 L 75.287109 118.48633 C 75.644899 147.37589 87.339428 166.4606 102.28125 179.08008 C 117.22307 191.69956 135.10135 198.32712 148.30078 204.39844 L 150.80273 205.55078 L 153.23438 204.26172 C 164.98592 198.05508 182.98809 191.4594 198.28516 178.98438 C 213.58224 166.50933 225.97461 147.49941 225.97461 118.41602 L 225.97461 63.529297 L 175.37109 16.509766 L 74.025391 16.509766 z M 85.310547 27.662109 L 163.29492 27.662109 L 163.29492 75.050781 L 214.82812 75.050781 L 214.82812 118.41602 C 214.82812 144.4579 204.66202 159.39644 191.23828 170.34375 C 178.6063 180.64535 163.11476 186.79519 150.55469 193.16797 C 137.23205 187.15321 121.7847 180.96092 109.47266 170.5625 C 96.449474 159.56345 86.758217 144.40023 86.435547 118.3457 L 85.310547 27.662109 z M 174.44531 30.873047 L 210 63.904297 L 174.44531 63.904297 L 174.44531 30.873047 z "
         transform="matrix(0.47466433,0,0,0.47466433,91.163872,19.872138)" />
      <g
         transform="matrix(1.1107,0,0,1.1107,18.926,21.932)"
         style="fill:#0087ff"
         id="g996">
        <path
           id="path992"
           style="color:#000000;font-style:normal;font-variant:normal;font-weight:normal;font-stretch:normal;font-size:medium;line-height:normal;font-family:sans-serif;font-variant-ligatures:normal;font-variant-position:normal;font-variant-caps:normal;font-variant-numeric:normal;font-variant-alternates:normal;font-variant-east-asian:normal;font-feature-settings:normal;font-variation-settings:normal;text-indent:0;text-align:start;text-decoration:none;text-decoration-line:none;text-decoration-style:solid;text-decoration-color:#000000;letter-spacing:normal;word-spacing:normal;text-transform:none;writing-mode:lr-tb;direction:ltr;text-orientation:mixed;dominant-baseline:auto;baseline-shift:baseline;text-anchor:start;white-space:normal;shape-padding:0;shape-margin:0;inline-size:0;clip-rule:nonzero;display:inline;overflow:visible;visibility:visible;opacity:1;isolation:auto;mix-blend-mode:normal;color-interpolation:sRGB;color-interpolation-filters:linearRGB;solid-color:#000000;solid-opacity:1;vector-effect:none;fill:#0087ff;fill-opacity:1;fill-rule:nonzero;stroke:none;stroke-width:2.33997;stroke-linecap:butt;stroke-linejoin:miter;stroke-miterlimit:4;stroke-dasharray:none;stroke-dashoffset:0;stroke-opacity:1;color-rendering:auto;image-rendering:auto;shape-rendering:auto;text-rendering:auto;enable-background:accumulate;stop-color:#000000;stop-opacity:1"
           d="M 149.92969 85.304688 C 139.43792 85.304687 130.93359 93.809004 130.93359 104.30078 C 130.93359 111.84719 135.3441 118.34684 141.71875 121.41211 L 135.08398 156.44922 L 164.78516 156.44922 L 158.14844 121.4082 C 164.51883 118.34135 168.92578 111.84408 168.92578 104.30078 C 168.92578 93.809004 160.42146 85.304688 149.92969 85.304688 z "
           transform="matrix(0.42735602,0,0,0.42735602,65.038149,-1.8545624)" />
      </g>
    </g>
  </g>
  <g
     aria-label="CryptPad"
     id="text1012"
     style="font-size:10.5834px;line-height:1.25;font-family:sans-serif;word-spacing:0px;fill:#0087ff;fill-opacity:1;stroke-width:0.264585"
     transform="matrix(0.9159499,0,0,0.9159499,-4.7874287,0.86172654)">
    <path
       d="m 12.416977,79.322226 q -2.310709,0 -3.4396052,-1.640427 -1.1112569,-1.658066 -1.1112569,-4.727252 0,-3.069186 1.1112569,-4.709613 1.1288962,-1.658066 3.4396052,-1.658066 0.864311,0 1.499315,0.246946 0.635004,0.229307 1.093618,0.635004 0.458614,0.388058 0.776116,0.899589 0.317502,0.511531 0.52917,1.075979 l -1.499315,0.582087 q -0.158751,-0.405697 -0.35278,-0.758477 -0.194029,-0.370419 -0.476253,-0.635004 -0.264585,-0.282224 -0.652643,-0.440975 -0.388058,-0.158751 -0.934867,-0.158751 -0.687921,0 -1.199452,0.282224 -0.511531,0.264585 -0.846672,0.776116 -0.335141,0.511531 -0.5115312,1.23473 -0.158751,0.723199 -0.158751,1.605149 v 2.046124 q 0,0.88195 0.158751,1.605149 0.1763902,0.723199 0.5115312,1.23473 0.335141,0.511531 0.846672,0.793755 0.511531,0.264585 1.199452,0.264585 0.546809,0 0.934867,-0.158751 0.388058,-0.158751 0.652643,-0.423336 0.282224,-0.282224 0.476253,-0.635004 0.194029,-0.370419 0.35278,-0.776116 l 1.499315,0.582087 q -0.211668,0.564448 -0.52917,1.075979 -0.317502,0.511531 -0.776116,0.917228 -0.458614,0.388058 -1.093618,0.635004 -0.635004,0.229307 -1.499315,0.229307 z"
       style="font-style:normal;font-variant:normal;font-weight:normal;font-stretch:normal;font-size:17.639px;font-family:'IBM Plex Mono';-inkscape-font-specification:'IBM Plex Mono, Normal';font-variant-ligatures:normal;font-variant-caps:normal;font-variant-numeric:normal;font-variant-east-asian:normal;fill:#0087ff;fill-opacity:1;stroke-width:0.264585"
       id="path1014" />
    <path
       d="m 18.661156,77.752355 h 2.557655 v -6.385318 h -2.557655 v -1.358203 h 4.198082 v 2.345987 h 0.105834 q 0.299863,-1.111257 1.040701,-1.728622 0.758477,-0.617365 1.993207,-0.617365 h 1.199452 v 1.605149 h -1.7639 q -1.181813,0 -1.887373,0.687921 -0.687921,0.670282 -0.687921,1.746261 v 3.70419 h 3.439605 v 1.358203 h -7.637687 z"
       style="font-style:normal;font-variant:normal;font-weight:normal;font-stretch:normal;font-size:17.639px;font-family:'IBM Plex Mono';-inkscape-font-specification:'IBM Plex Mono, Normal';font-variant-ligatures:normal;font-variant-caps:normal;font-variant-numeric:normal;font-variant-east-asian:normal;fill:#0087ff;fill-opacity:1;stroke-width:0.264585"
       id="path1016" />
    <path
       d="m 36.017905,70.008834 h 1.658066 l -4.480306,10.989097 q -0.158751,0.405697 -0.370419,0.70556 -0.194029,0.317502 -0.476253,0.511531 -0.282224,0.211668 -0.670282,0.317502 -0.388058,0.105834 -0.917228,0.105834 h -1.428759 v -1.358203 h 2.11668 l 0.934867,-2.328348 -3.668912,-8.942973 h 1.710983 l 1.499315,3.810024 1.252369,3.298493 h 0.08819 l 1.252369,-3.298493 z"
       style="font-style:normal;font-variant:normal;font-weight:normal;font-stretch:normal;font-size:17.639px;font-family:'IBM Plex Mono';-inkscape-font-specification:'IBM Plex Mono, Normal';font-variant-ligatures:normal;font-variant-caps:normal;font-variant-numeric:normal;font-variant-east-asian:normal;fill:#0087ff;fill-opacity:1;stroke-width:0.264585"
       id="path1018" />
    <path
       d="m 40.039569,70.008834 h 1.640427 v 1.516954 h 0.08819 q 0.405697,-0.846672 1.093618,-1.287647 0.687921,-0.440975 1.693344,-0.440975 1.640427,0 2.575294,1.23473 0.952506,1.23473 0.952506,3.5278 0,2.29307 -0.952506,3.5278 -0.934867,1.23473 -2.575294,1.23473 -1.005423,0 -1.693344,-0.440975 -0.687921,-0.440975 -1.093618,-1.287647 h -0.08819 v 5.044754 h -1.640427 z m 3.845302,7.919911 q 1.164174,0 1.799178,-0.70556 0.652643,-0.723199 0.652643,-1.905012 v -1.516954 q 0,-1.181813 -0.652643,-1.887373 -0.635004,-0.723199 -1.799178,-0.723199 -0.440975,0 -0.846672,0.123473 -0.388058,0.105834 -0.70556,0.335141 -0.299863,0.229307 -0.476253,0.564448 -0.17639,0.317502 -0.17639,0.758477 v 3.17502 q 0,0.440975 0.17639,0.776116 0.17639,0.335141 0.476253,0.564448 0.317502,0.211668 0.70556,0.335141 0.405697,0.105834 0.846672,0.105834 z"
       style="font-style:normal;font-variant:normal;font-weight:normal;font-stretch:normal;font-size:17.639px;font-family:'IBM Plex Mono';-inkscape-font-specification:'IBM Plex Mono, Normal';font-variant-ligatures:normal;font-variant-caps:normal;font-variant-numeric:normal;font-variant-east-asian:normal;fill:#0087ff;fill-opacity:1;stroke-width:0.264585"
       id="path1020" />
    <path
       d="m 54.856303,79.110558 q -1.111257,0 -1.640427,-0.599726 -0.52917,-0.617365 -0.52917,-1.58751 v -5.556285 h -2.910435 v -1.358203 h 2.11668 q 0.476253,0 0.670282,-0.194029 0.211668,-0.194029 0.211668,-0.687921 v -2.328348 h 1.552232 v 3.210298 h 4.039331 v 1.358203 h -4.039331 v 6.385318 h 4.039331 v 1.358203 z"
       style="font-style:normal;font-variant:normal;font-weight:normal;font-stretch:normal;font-size:17.639px;font-family:'IBM Plex Mono';-inkscape-font-specification:'IBM Plex Mono, Normal';font-variant-ligatures:normal;font-variant-caps:normal;font-variant-numeric:normal;font-variant-east-asian:normal;fill:#0087ff;fill-opacity:1;stroke-width:0.264585"
       id="path1022" />
    <path
       d="M 61.188678,79.110558 V 66.798536 h 4.533223 q 1.746261,0 2.64585,0.952506 0.917228,0.952506 0.917228,2.663489 0,1.710983 -0.917228,2.663489 -0.899589,0.952506 -2.64585,0.952506 h -2.82224 v 5.080032 z m 1.710983,-6.52643 h 2.663489 q 0.934867,0 1.428759,-0.440975 0.493892,-0.458614 0.493892,-1.305286 v -0.846672 q 0,-0.846672 -0.493892,-1.287647 -0.493892,-0.458614 -1.428759,-0.458614 h -2.663489 z"
       style="font-style:normal;font-variant:normal;font-weight:normal;font-stretch:normal;font-size:17.639px;font-family:'IBM Plex Mono';-inkscape-font-specification:'IBM Plex Mono, Normal';font-variant-ligatures:normal;font-variant-caps:normal;font-variant-numeric:normal;font-variant-east-asian:normal;fill:#0087ff;fill-opacity:1;stroke-width:0.264585"
       id="path1024" />
    <path
       d="m 78.933482,79.110558 q -0.811394,0 -1.199452,-0.405697 -0.370419,-0.423336 -0.458614,-1.093618 h -0.0882 q -0.299863,0.793755 -0.970145,1.252369 -0.670282,0.458614 -1.781539,0.458614 -1.41112,0 -2.257792,-0.723199 -0.829033,-0.740838 -0.829033,-2.028485 0,-1.305286 0.952506,-1.993207 0.952506,-0.687921 2.99863,-0.687921 h 1.852095 V 73.07802 q 0,-0.970145 -0.52917,-1.446398 -0.52917,-0.493892 -1.534593,-0.493892 -0.899589,0 -1.481676,0.35278 -0.564448,0.335141 -0.917228,0.952506 L 71.64857,71.613983 q 0.17639,-0.35278 0.493892,-0.670282 0.317502,-0.335141 0.758477,-0.582087 0.440975,-0.264585 1.023062,-0.405697 0.582087,-0.158751 1.287647,-0.158751 1.658066,0 2.610572,0.829033 0.970145,0.811394 0.970145,2.310709 v 4.815447 h 1.217091 v 1.358203 z m -4.109887,-1.075979 q 1.023062,0 1.675705,-0.458614 0.652643,-0.458614 0.652643,-1.146535 v -1.41112 h -1.834456 q -1.164174,0 -1.728622,0.335141 -0.546809,0.335141 -0.546809,0.970145 v 0.370419 q 0,0.670282 0.476253,1.005423 0.476253,0.335141 1.305286,0.335141 z"
       style="font-style:normal;font-variant:normal;font-weight:normal;font-stretch:normal;font-size:17.639px;font-family:'IBM Plex Mono';-inkscape-font-specification:'IBM Plex Mono, Normal';font-variant-ligatures:normal;font-variant-caps:normal;font-variant-numeric:normal;font-variant-east-asian:normal;fill:#0087ff;fill-opacity:1;stroke-width:0.264585"
       id="path1026" />
    <path
       d="m 88.21157,77.593604 h -0.08819 q -0.405697,0.846672 -1.093618,1.287647 -0.687921,0.440975 -1.693344,0.440975 -1.640427,0 -2.592933,-1.23473 -0.934867,-1.23473 -0.934867,-3.5278 0,-2.29307 0.934867,-3.5278 0.952506,-1.23473 2.592933,-1.23473 1.005423,0 1.693344,0.440975 0.687921,0.440975 1.093618,1.287647 h 0.08819 v -5.46809 h 1.640427 v 13.05286 H 88.21157 Z m -2.204875,0.335141 q 0.440975,0 0.829033,-0.105834 0.405697,-0.123473 0.70556,-0.335141 0.317502,-0.229307 0.493892,-0.564448 0.17639,-0.335141 0.17639,-0.776116 v -3.17502 q 0,-0.440975 -0.17639,-0.758477 -0.17639,-0.335141 -0.493892,-0.564448 -0.299863,-0.229307 -0.70556,-0.335141 -0.388058,-0.123473 -0.829033,-0.123473 -1.164174,0 -1.816817,0.723199 -0.635004,0.70556 -0.635004,1.887373 v 1.516954 q 0,1.181813 0.635004,1.905012 0.652643,0.70556 1.816817,0.70556 z"
       style="font-style:normal;font-variant:normal;font-weight:normal;font-stretch:normal;font-size:17.639px;font-family:'IBM Plex Mono';-inkscape-font-specification:'IBM Plex Mono, Normal';font-variant-ligatures:normal;font-variant-caps:normal;font-variant-numeric:normal;font-variant-east-asian:normal;fill:#0087ff;fill-opacity:1;stroke-width:0.264585"
       id="path1028" />
  </g>
</svg>
