<svg width="2015" height="260" viewBox="0 0 2015 260" fill="none" xmlns="http://www.w3.org/2000/svg">
<path d="M1981.07 110.575V185.953C1981.07 191.06 1982.22 194.767 1984.53 197.074C1987 199.216 1991.12 200.287 1996.89 200.287H2014.19V223.765H1991.94C1979.26 223.765 1969.54 220.799 1962.78 214.868C1956.03 208.936 1952.65 199.298 1952.65 185.953V110.575H1936.59V87.5916H1952.65V53.7336H1981.07V87.5916H2014.19V110.575H1981.07Z" fill="white"/>
<path d="M1920.48 152.342C1920.48 157.45 1920.15 162.063 1919.49 166.182H1815.44C1816.27 177.056 1820.3 185.788 1827.55 192.378C1834.8 198.969 1843.7 202.264 1854.25 202.264C1869.4 202.264 1880.11 195.921 1886.37 183.234H1916.77C1912.65 195.756 1905.16 206.053 1894.28 214.127C1883.57 222.035 1870.23 225.989 1854.25 225.989C1841.23 225.989 1829.53 223.106 1819.15 217.339C1808.94 211.408 1800.86 203.17 1794.93 192.626C1789.17 181.916 1786.28 169.559 1786.28 155.555C1786.28 141.55 1789.08 129.276 1794.68 118.731C1800.45 108.022 1808.44 99.7839 1818.66 94.0174C1829.04 88.2508 1840.9 85.3676 1854.25 85.3676C1867.1 85.3676 1878.55 88.1684 1888.6 93.7702C1898.65 99.372 1906.47 107.28 1912.08 117.496C1917.68 127.546 1920.48 139.161 1920.48 152.342ZM1891.07 143.445C1890.9 133.065 1887.2 124.745 1879.95 118.484C1872.7 112.223 1863.72 109.093 1853.01 109.093C1843.29 109.093 1834.97 112.223 1828.05 118.484C1821.13 124.58 1817.01 132.9 1815.69 143.445H1891.07Z" fill="white"/>
<path d="M1758.68 40.8828V223.765H1730.5V40.8828H1758.68Z" fill="white"/>
<path d="M1693.52 40.8828V223.765H1665.34V40.8828H1693.52Z" fill="white"/>
<path d="M1488.46 155.061C1488.46 141.386 1491.26 129.276 1496.86 118.731C1502.63 108.187 1510.37 100.031 1520.09 94.2645C1529.98 88.3332 1540.85 85.3676 1552.71 85.3676C1563.42 85.3676 1572.73 87.5094 1580.64 91.7931C1588.71 95.9121 1595.14 101.102 1599.92 107.363V87.5918H1628.34V223.765H1599.92V203.5C1595.14 209.925 1588.63 215.28 1580.39 219.564C1572.16 223.847 1562.76 225.989 1552.22 225.989C1540.52 225.989 1529.81 223.024 1520.09 217.092C1510.37 210.996 1502.63 202.593 1496.86 191.884C1491.26 181.01 1488.46 168.736 1488.46 155.061ZM1599.92 155.555C1599.92 146.164 1597.94 138.008 1593.99 131.088C1590.2 124.168 1585.17 118.896 1578.91 115.271C1572.65 111.647 1565.89 109.834 1558.65 109.834C1551.4 109.834 1544.64 111.647 1538.38 115.271C1532.12 118.731 1527.01 123.921 1523.06 130.841C1519.27 137.596 1517.37 145.669 1517.37 155.061C1517.37 164.452 1519.27 172.69 1523.06 179.774C1527.01 186.859 1532.12 192.296 1538.38 196.085C1544.81 199.71 1551.56 201.522 1558.65 201.522C1565.89 201.522 1572.65 199.71 1578.91 196.085C1585.17 192.461 1590.2 187.188 1593.99 180.269C1597.94 173.184 1599.92 164.946 1599.92 155.555Z" fill="white"/>
<path d="M1474.61 52.0042L1423.7 223.765H1391.82L1355.74 93.7705L1317.43 223.765L1285.8 224.012L1237.11 52.0042H1267.02L1302.61 191.884L1341.16 52.0042H1372.79L1408.63 191.143L1444.46 52.0042H1474.61Z" fill="white"/>
<path d="M1094.97 85.3676C1105.67 85.3676 1115.23 87.5918 1123.63 92.0403C1132.2 96.4888 1138.87 103.079 1143.65 111.811C1148.43 120.544 1150.82 131.088 1150.82 143.445V223.765H1122.89V147.646C1122.89 135.454 1119.84 126.145 1113.75 119.72C1107.65 113.129 1099.33 109.834 1088.79 109.834C1078.24 109.834 1069.84 113.129 1063.58 119.72C1057.48 126.145 1054.43 135.454 1054.43 147.646V223.765H1026.26V87.5918H1054.43V103.161C1059.05 97.5597 1064.9 93.1936 1071.98 90.0632C1079.23 86.9328 1086.89 85.3676 1094.97 85.3676Z" fill="white"/>
<path d="M998.537 152.342C998.537 157.45 998.207 162.063 997.548 166.182H893.503C894.327 177.056 898.364 185.788 905.613 192.378C912.862 198.969 921.759 202.264 932.304 202.264C947.462 202.264 958.171 195.921 964.432 183.234H994.83C990.711 195.756 983.214 206.053 972.34 214.127C961.631 222.035 948.285 225.989 932.304 225.989C919.288 225.989 907.59 223.106 897.21 217.339C886.995 211.408 878.922 203.17 872.991 192.626C867.224 181.916 864.341 169.559 864.341 155.555C864.341 141.55 867.142 129.276 872.744 118.731C878.51 108.022 886.501 99.7839 896.716 94.0174C907.096 88.2508 918.958 85.3676 932.304 85.3676C945.155 85.3676 956.606 88.1684 966.656 93.7702C976.706 99.372 984.532 107.28 990.134 117.496C995.736 127.546 998.537 139.161 998.537 152.342ZM969.127 143.445C968.963 133.065 965.256 124.745 958.006 118.484C950.757 112.223 941.777 109.093 931.068 109.093C921.347 109.093 913.027 112.223 906.107 118.484C899.187 124.58 895.068 132.9 893.75 143.445H969.127Z" fill="white"/>
<path d="M696.843 155.061C696.843 141.386 699.644 129.276 705.245 118.731C711.012 108.187 718.756 100.031 728.476 94.2646C738.362 88.3333 749.318 85.3677 761.346 85.3677C770.243 85.3677 778.975 87.3448 787.543 91.299C796.275 95.0884 803.195 100.196 808.302 106.622V40.8828H836.723V223.765H808.302V203.253C803.689 209.843 797.263 215.28 789.025 219.564C780.952 223.847 771.643 225.989 761.099 225.989C749.236 225.989 738.362 223.024 728.476 217.092C718.756 210.996 711.012 202.594 705.245 191.884C699.644 181.01 696.843 168.736 696.843 155.061ZM808.302 155.555C808.302 146.164 806.325 138.008 802.371 131.088C798.581 124.168 793.556 118.896 787.295 115.271C781.035 111.647 774.279 109.834 767.03 109.834C759.781 109.834 753.026 111.647 746.765 115.271C740.504 118.731 735.396 123.921 731.442 130.841C727.653 137.596 725.758 145.669 725.758 155.061C725.758 164.452 727.653 172.69 731.442 179.774C735.396 186.859 740.504 192.296 746.765 196.086C753.19 199.71 759.945 201.523 767.03 201.523C774.279 201.523 781.035 199.71 787.295 196.086C793.556 192.461 798.581 187.189 802.371 180.269C806.325 173.184 808.302 164.946 808.302 155.555Z" fill="white"/>
<path d="M655.405 69.5506C650.298 69.5506 646.014 67.8206 642.554 64.3607C639.094 60.9007 637.364 56.617 637.364 51.5095C637.364 46.4019 639.094 42.1182 642.554 38.6583C646.014 35.1983 650.298 33.4684 655.405 33.4684C660.348 33.4684 664.549 35.1983 668.009 38.6583C671.469 42.1182 673.199 46.4019 673.199 51.5095C673.199 56.617 671.469 60.9007 668.009 64.3607C664.549 67.8206 660.348 69.5506 655.405 69.5506ZM669.245 87.5917V223.765H641.071V87.5917H669.245Z" fill="white"/>
<path d="M604.041 52.0042V223.765H575.867V106.127L523.474 223.765H503.95L451.31 106.127V223.765H423.136V52.0042H453.534L513.836 186.694L573.89 52.0042H604.041Z" fill="white"/>
<g clip-path="url(#clip0_14512_6726)">
<path d="M276.114 179.57C254.331 179.57 236.669 197.439 236.669 219.475C236.669 241.511 254.331 259.379 276.114 259.379C297.896 259.379 315.559 241.511 315.559 219.475C315.559 197.439 297.896 179.57 276.114 179.57Z" fill="#634CFF"/>
<path d="M78.8896 259.379H0V99.7613C0 44.7596 44.2439 0 98.612 0C152.98 0 197.224 44.7596 197.224 99.7613V159.618H118.334V99.7613C118.334 88.7654 109.481 79.809 98.612 79.809C87.7428 79.809 78.8896 88.7654 78.8896 99.7613V259.379Z" fill="#634CFF"/>
<path d="M197.224 259.379H118.334V99.7613C118.334 44.7596 162.578 0 216.946 0C271.314 0 315.558 44.7596 315.558 99.7613V159.618H236.668V99.7613C236.668 88.7654 227.815 79.809 216.946 79.809C206.077 79.809 197.224 88.7654 197.224 99.7613V259.379Z" fill="#634CFF"/>
</g>
<defs>
<clipPath id="clip0_14512_6726">
<rect width="315.558" height="259.379" fill="white"/>
</clipPath>
</defs>
</svg>
